<?xml version="1.0" encoding="UTF-8"?>
<svg xmlns="http://www.w3.org/2000/svg" xmlns:xlink="http://www.w3.org/1999/xlink" width="80mm" height="80mm" viewBox="0 0 80 80">
<rect x="-8" y="-8" width="96" height="96" fill="rgb(90%, 90%, 90%)" fill-opacity="1"/>
<path fill-rule="evenodd" fill="rgb(20%, 20%, 20%)" fill-opacity="1" d="M 3.113281 38.519531 L 3.113281 14.964844 L 5.777344 14.964844 L 5.777344 65.335938 L 6.074219 65.335938 L 6.074219 14.664062 L 0.148438 14.664062 L 0.148438 0.148438 L 5.777344 0.148438 L 5.777344 2.8125 L 2.8125 2.8125 L 2.8125 6.074219 L 3.113281 6.074219 L 3.113281 3.113281 L 6.074219 3.113281 L 6.074219 0.148438 L 73.925781 0.148438 L 73.925781 3.113281 L 74.222656 3.113281 L 74.222656 0.148438 L 79.851562 0.148438 L 79.851562 70.960938 L 77.1875 70.960938 L 77.1875 8.738281 L 73.925781 8.738281 L 73.925781 9.039062 L 76.886719 9.039062 L 76.886719 71.261719 L 79.851562 71.261719 L 79.851562 79.851562 L 71.261719 79.851562 L 71.261719 70.960938 L 68.296875 70.960938 L 68.296875 68 L 14.964844 68 L 14.964844 65.335938 L 65.335938 65.335938 L 65.335938 41.632812 L 68 41.632812 L 68 65.335938 L 68.296875 65.335938 L 68.296875 14.964844 L 70.960938 14.964844 L 70.960938 68.296875 L 71.261719 68.296875 L 71.261719 14.664062 L 68 14.664062 L 68 41.332031 L 62.371094 41.332031 L 62.371094 38.667969 L 65.335938 38.667969 L 65.335938 12 L 73.925781 12 L 73.925781 77.1875 L 77.1875 77.1875 L 77.1875 73.925781 L 76.886719 73.925781 L 76.886719 76.886719 L 74.222656 76.886719 L 74.222656 11.703125 L 71.261719 11.703125 L 71.261719 6.074219 L 77.1875 6.074219 L 77.1875 2.8125 L 76.886719 2.8125 L 76.886719 5.777344 L 71.261719 5.777344 L 71.261719 2.8125 L 70.960938 2.8125 L 70.960938 11.703125 L 14.964844 11.703125 L 14.964844 9.039062 L 68.296875 9.039062 L 68.296875 2.8125 L 14.664062 2.8125 L 14.664062 3.113281 L 68 3.113281 L 68 8.738281 L 14.664062 8.738281 L 14.664062 12 L 65.035156 12 L 65.035156 14.664062 L 14.664062 14.664062 L 14.664062 38.367188 L 12 38.367188 L 12 14.664062 L 11.703125 14.664062 L 11.703125 71.261719 L 65.035156 71.261719 L 65.035156 73.925781 L 14.664062 73.925781 L 14.664062 74.222656 L 65.035156 74.222656 L 65.035156 76.886719 L 8.738281 76.886719 L 8.738281 77.1875 L 65.335938 77.1875 L 65.335938 74.222656 L 68.296875 74.222656 L 68.296875 73.925781 L 65.335938 73.925781 L 65.335938 70.960938 L 12 70.960938 L 12 38.667969 L 17.628906 38.667969 L 17.628906 41.332031 L 14.664062 41.332031 L 14.664062 68.296875 L 68 68.296875 L 68 71.261719 L 70.960938 71.261719 L 70.960938 76.886719 L 68 76.886719 L 68 77.1875 L 70.960938 77.1875 L 70.960938 79.851562 L 6.074219 79.851562 L 6.074219 74.222656 L 12 74.222656 L 12 73.925781 L 9.039062 73.925781 L 9.039062 12 L 12 12 L 12 6.074219 L 65.335938 6.074219 L 65.335938 5.777344 L 12 5.777344 L 12 2.8125 L 8.738281 2.8125 L 8.738281 5.777344 L 5.777344 5.777344 L 5.777344 8.738281 L 2.8125 8.738281 L 2.8125 12 L 6.074219 12 L 6.074219 11.703125 L 3.113281 11.703125 L 3.113281 9.039062 L 9.039062 9.039062 L 9.039062 8.738281 L 6.074219 8.738281 L 6.074219 6.074219 L 9.039062 6.074219 L 9.039062 3.113281 L 11.703125 3.113281 L 11.703125 11.703125 L 8.738281 11.703125 L 8.738281 68 L 2.8125 68 L 2.8125 68.296875 L 8.738281 68.296875 L 8.738281 73.925781 L 5.777344 73.925781 L 5.777344 79.851562 L 0.148438 79.851562 L 0.148438 71.261719 L 2.8125 71.261719 L 2.8125 77.1875 L 3.113281 77.1875 L 3.113281 71.261719 L 6.074219 71.261719 L 6.074219 70.960938 L 0.148438 70.960938 L 0.148438 14.964844 L 2.8125 14.964844 L 2.8125 65.335938 L 3.113281 65.335938 Z M 3.113281 38.519531 "/>
<path fill-rule="evenodd" fill="rgb(80%, 40%, 40%)" fill-opacity="1" d="M 15.496094 39.199219 L 17.09375 39.199219 L 17.09375 40.796875 L 15.496094 40.796875 Z M 15.496094 39.199219 "/>
<path fill-rule="evenodd" fill="rgb(40%, 80%, 40%)" fill-opacity="1" d="M 62.90625 39.199219 L 64.503906 39.199219 L 64.503906 40.796875 L 62.90625 40.796875 Z M 62.90625 39.199219 "/>
</svg>
