<?xml version="1.0" encoding="UTF-8"?>
<svg xmlns="http://www.w3.org/2000/svg" xmlns:xlink="http://www.w3.org/1999/xlink" width="55mm" height="55mm" viewBox="0 0 55 55">
<rect x="-5.5" y="-5.5" width="66" height="66" fill="rgb(90%, 90%, 90%)" fill-opacity="1"/>
<path fill-rule="nonzero" fill="rgb(20%, 20%, 20%)" fill-opacity="1" d="M 5.199219 40 L 5.199219 30.199219 L 9.800781 30.199219 L 9.800781 35.199219 L 15.199219 35.199219 L 15.199219 34.800781 L 10.199219 34.800781 L 10.199219 25.199219 L 15.199219 25.199219 L 15.199219 24.800781 L 9.800781 24.800781 L 9.800781 29.800781 L 0.199219 29.800781 L 0.199219 25.199219 L 5.199219 25.199219 L 5.199219 20.199219 L 19.800781 20.199219 L 19.800781 25.199219 L 20.199219 25.199219 L 20.199219 20.199219 L 34.800781 20.199219 L 34.800781 25.199219 L 35.199219 25.199219 L 35.199219 15.199219 L 44.800781 15.199219 L 44.800781 20.199219 L 45.199219 20.199219 L 45.199219 9.800781 L 44.800781 9.800781 L 44.800781 14.800781 L 35.199219 14.800781 L 35.199219 9.800781 L 34.800781 9.800781 L 34.800781 19.800781 L 20.199219 19.800781 L 20.199219 10.199219 L 25.199219 10.199219 L 25.199219 9.800781 L 9.800781 9.800781 L 9.800781 15.199219 L 15.199219 15.199219 L 15.199219 14.800781 L 10.199219 14.800781 L 10.199219 10.199219 L 19.800781 10.199219 L 19.800781 19.800781 L 5.199219 19.800781 L 5.199219 5.199219 L 29.800781 5.199219 L 29.800781 14.800781 L 24.800781 14.800781 L 24.800781 15.199219 L 30.199219 15.199219 L 30.199219 5.199219 L 39.800781 5.199219 L 39.800781 10.199219 L 40.199219 10.199219 L 40.199219 5.199219 L 49.800781 5.199219 L 49.800781 24.800781 L 40.199219 24.800781 L 40.199219 19.800781 L 39.800781 19.800781 L 39.800781 29.800781 L 30.199219 29.800781 L 30.199219 24.800781 L 24.800781 24.800781 L 24.800781 29.800781 L 14.800781 29.800781 L 14.800781 30.199219 L 19.800781 30.199219 L 19.800781 39.800781 L 9.800781 39.800781 L 9.800781 45.199219 L 10.199219 45.199219 L 10.199219 40.199219 L 19.800781 40.199219 L 19.800781 45.199219 L 25.199219 45.199219 L 25.199219 44.800781 L 20.199219 44.800781 L 20.199219 30.199219 L 25.199219 30.199219 L 25.199219 25.199219 L 29.800781 25.199219 L 29.800781 30.199219 L 40.199219 30.199219 L 40.199219 25.199219 L 54.800781 25.199219 L 54.800781 29.800781 L 44.800781 29.800781 L 44.800781 34.800781 L 24.800781 34.800781 L 24.800781 40.199219 L 29.800781 40.199219 L 29.800781 45.199219 L 35.199219 45.199219 L 35.199219 44.800781 L 30.199219 44.800781 L 30.199219 39.800781 L 25.199219 39.800781 L 25.199219 35.199219 L 44.800781 35.199219 L 44.800781 40.199219 L 45.199219 40.199219 L 45.199219 30.199219 L 49.800781 30.199219 L 49.800781 49.800781 L 40.199219 49.800781 L 40.199219 45.199219 L 45.199219 45.199219 L 45.199219 44.800781 L 40.199219 44.800781 L 40.199219 39.800781 L 34.800781 39.800781 L 34.800781 40.199219 L 39.800781 40.199219 L 39.800781 49.800781 L 15.199219 49.800781 L 15.199219 44.800781 L 14.800781 44.800781 L 14.800781 49.800781 L 5.199219 49.800781 Z M 5.199219 40 "/>
<path fill-rule="nonzero" fill="rgb(80%, 40%, 40%)" fill-opacity="1" d="M 51.121094 26.121094 L 53.882812 26.121094 L 53.882812 28.882812 L 51.121094 28.882812 Z M 51.121094 26.121094 "/>
<path fill-rule="nonzero" fill="rgb(40%, 80%, 40%)" fill-opacity="1" d="M 1.121094 26.121094 L 3.882812 26.121094 L 3.882812 28.882812 L 1.121094 28.882812 Z M 1.121094 26.121094 "/>
</svg>
