<?xml version="1.0" encoding="UTF-8"?>
<svg xmlns="http://www.w3.org/2000/svg" xmlns:xlink="http://www.w3.org/1999/xlink" width="42mm" height="42mm" viewBox="0 0 42 42">
<rect x="-4.2" y="-4.2" width="50.4" height="50.4" fill="rgb(90%, 90%, 90%)" fill-opacity="1"/>
<path fill-rule="nonzero" fill="rgb(20%, 20%, 20%)" fill-opacity="1" d="M 0.851562 15.273438 L 0.851562 4.667969 L 4.667969 4.667969 L 4.667969 2.96875 L 0.851562 2.96875 L 0.851562 0.851562 L 10.605469 0.851562 L 10.605469 4.667969 L 22.058594 4.667969 L 22.058594 12.304688 L 23.757812 12.304688 L 23.757812 8.488281 L 39.03125 8.488281 L 39.03125 6.785156 L 35.214844 6.785156 L 35.214844 2.96875 L 29.695312 2.96875 L 29.695312 4.667969 L 33.511719 4.667969 L 33.511719 6.785156 L 23.757812 6.785156 L 23.757812 2.96875 L 12.304688 2.96875 L 12.304688 0.851562 L 25.878906 0.851562 L 25.878906 4.667969 L 27.578125 4.667969 L 27.578125 0.851562 L 41.148438 0.851562 L 41.148438 2.96875 L 37.332031 2.96875 L 37.332031 4.667969 L 41.148438 4.667969 L 41.148438 18.242188 L 37.332031 18.242188 L 37.332031 22.058594 L 29.695312 22.058594 L 29.695312 25.878906 L 27.578125 25.878906 L 27.578125 18.242188 L 25.878906 18.242188 L 25.878906 22.058594 L 23.757812 22.058594 L 23.757812 16.121094 L 27.578125 16.121094 L 27.578125 12.304688 L 37.332031 12.304688 L 37.332031 14.421875 L 33.511719 14.421875 L 33.511719 18.242188 L 31.394531 18.242188 L 31.394531 14.421875 L 29.695312 14.421875 L 29.695312 19.941406 L 35.214844 19.941406 L 35.214844 16.121094 L 39.03125 16.121094 L 39.03125 10.605469 L 25.878906 10.605469 L 25.878906 14.421875 L 19.941406 14.421875 L 19.941406 10.605469 L 16.121094 10.605469 L 16.121094 8.488281 L 19.941406 8.488281 L 19.941406 6.785156 L 8.488281 6.785156 L 8.488281 2.96875 L 6.785156 2.96875 L 6.785156 6.785156 L 2.96875 6.785156 L 2.96875 8.488281 L 14.421875 8.488281 L 14.421875 12.304688 L 18.242188 12.304688 L 18.242188 16.121094 L 22.058594 16.121094 L 22.058594 23.757812 L 25.878906 23.757812 L 25.878906 27.578125 L 29.695312 27.578125 L 29.695312 31.394531 L 33.511719 31.394531 L 33.511719 35.214844 L 37.332031 35.214844 L 37.332031 39.03125 L 39.03125 39.03125 L 39.03125 33.511719 L 35.214844 33.511719 L 35.214844 29.695312 L 31.394531 29.695312 L 31.394531 23.757812 L 39.03125 23.757812 L 39.03125 19.941406 L 41.148438 19.941406 L 41.148438 25.878906 L 33.511719 25.878906 L 33.511719 27.578125 L 37.332031 27.578125 L 37.332031 31.394531 L 39.03125 31.394531 L 39.03125 27.578125 L 41.148438 27.578125 L 41.148438 41.148438 L 35.214844 41.148438 L 35.214844 37.332031 L 31.394531 37.332031 L 31.394531 33.511719 L 27.578125 33.511719 L 27.578125 29.695312 L 25.878906 29.695312 L 25.878906 37.332031 L 23.757812 37.332031 L 23.757812 25.878906 L 19.941406 25.878906 L 19.941406 18.242188 L 16.121094 18.242188 L 16.121094 14.421875 L 12.304688 14.421875 L 12.304688 10.605469 L 2.96875 10.605469 L 2.96875 16.121094 L 4.667969 16.121094 L 4.667969 12.304688 L 10.605469 12.304688 L 10.605469 16.121094 L 14.421875 16.121094 L 14.421875 19.941406 L 18.242188 19.941406 L 18.242188 25.878906 L 14.421875 25.878906 L 14.421875 27.578125 L 22.058594 27.578125 L 22.058594 39.03125 L 27.578125 39.03125 L 27.578125 35.214844 L 29.695312 35.214844 L 29.695312 39.03125 L 33.511719 39.03125 L 33.511719 41.148438 L 16.121094 41.148438 L 16.121094 37.332031 L 10.605469 37.332031 L 10.605469 39.03125 L 14.421875 39.03125 L 14.421875 41.148438 L 0.851562 41.148438 L 0.851562 35.214844 L 4.667969 35.214844 L 4.667969 33.511719 L 0.851562 33.511719 L 0.851562 23.757812 L 2.96875 23.757812 L 2.96875 27.578125 L 10.605469 27.578125 L 10.605469 31.394531 L 18.242188 31.394531 L 18.242188 33.511719 L 8.488281 33.511719 L 8.488281 29.695312 L 2.96875 29.695312 L 2.96875 31.394531 L 6.785156 31.394531 L 6.785156 37.332031 L 2.96875 37.332031 L 2.96875 39.03125 L 8.488281 39.03125 L 8.488281 35.214844 L 18.242188 35.214844 L 18.242188 39.03125 L 19.941406 39.03125 L 19.941406 29.695312 L 12.304688 29.695312 L 12.304688 23.757812 L 16.121094 23.757812 L 16.121094 22.058594 L 10.605469 22.058594 L 10.605469 25.878906 L 4.667969 25.878906 L 4.667969 22.058594 L 0.851562 22.058594 L 0.851562 19.941406 L 6.785156 19.941406 L 6.785156 23.757812 L 8.488281 23.757812 L 8.488281 19.941406 L 12.304688 19.941406 L 12.304688 18.242188 L 8.488281 18.242188 L 8.488281 14.421875 L 6.785156 14.421875 L 6.785156 18.242188 L 0.851562 18.242188 Z M 0.851562 15.273438 "/>
<path fill-rule="nonzero" fill="rgb(80%, 40%, 40%)" fill-opacity="1" d="M 39.457031 20.363281 L 40.726562 20.363281 L 40.726562 21.632812 L 39.457031 21.632812 Z M 39.457031 20.363281 "/>
<path fill-rule="nonzero" fill="rgb(40%, 80%, 40%)" fill-opacity="1" d="M 1.273438 20.363281 L 2.542969 20.363281 L 2.542969 21.632812 L 1.273438 21.632812 Z M 1.273438 20.363281 "/>
</svg>
