<?xml version="1.0" encoding="UTF-8"?>
<svg xmlns="http://www.w3.org/2000/svg" xmlns:xlink="http://www.w3.org/1999/xlink" width="50mm" height="40mm" viewBox="0 0 50 40">
<rect x="-5" y="-4" width="60" height="48" fill="rgb(90%, 90%, 90%)" fill-opacity="1"/>
<path fill-rule="evenodd" fill="rgb(20%, 20%, 20%)" fill-opacity="1" d="M 9.144531 30.714844 L 9.144531 25.570312 L 19.429688 25.570312 L 19.429688 32.714844 L 30.570312 32.714844 L 30.570312 21.570312 L 26.570312 21.570312 L 26.570312 28.714844 L 23.429688 28.714844 L 23.429688 14.429688 L 19.429688 14.429688 L 19.429688 21.570312 L 9.144531 21.570312 L 9.144531 7.285156 L 5.144531 7.285156 L 5.144531 14.429688 L 2 14.429688 L 2 4.144531 L 48 4.144531 L 48 21.570312 L 44.855469 21.570312 L 44.855469 7.285156 L 33.714844 7.285156 L 33.714844 11.285156 L 40.855469 11.285156 L 40.855469 32.714844 L 44.855469 32.714844 L 44.855469 25.570312 L 48 25.570312 L 48 35.855469 L 37.714844 35.855469 L 37.714844 14.429688 L 30.570312 14.429688 L 30.570312 7.285156 L 12.285156 7.285156 L 12.285156 18.429688 L 16.285156 18.429688 L 16.285156 11.285156 L 26.570312 11.285156 L 26.570312 18.429688 L 33.714844 18.429688 L 33.714844 35.855469 L 16.285156 35.855469 L 16.285156 28.714844 L 12.285156 28.714844 L 12.285156 35.855469 L 2 35.855469 L 2 18.429688 L 5.144531 18.429688 L 5.144531 32.714844 L 9.144531 32.714844 Z M 9.144531 30.714844 "/>
<path fill-rule="evenodd" fill="rgb(80%, 40%, 40%)" fill-opacity="1" d="M 44.855469 18.429688 L 48 18.429688 L 48 21.574219 L 44.855469 21.574219 Z M 44.855469 18.429688 "/>
<path fill-rule="evenodd" fill="rgb(40%, 80%, 40%)" fill-opacity="1" d="M 2 18.429688 L 5.144531 18.429688 L 5.144531 21.574219 L 2 21.574219 Z M 2 18.429688 "/>
</svg>
