<?xml version="1.0" encoding="UTF-8"?>
<svg xmlns="http://www.w3.org/2000/svg" xmlns:xlink="http://www.w3.org/1999/xlink" width="30mm" height="30mm" viewBox="0 0 30 30">
<rect x="-3" y="-3" width="36" height="36" fill="rgb(90%, 90%, 90%)" fill-opacity="1"/>
<path fill-rule="nonzero" fill="rgb(20%, 20%, 20%)" fill-opacity="1" d="M 6.429688 22.277344 L 7.277344 22.277344 L 7.277344 20.578125 L 0.851562 20.578125 L 0.851562 5.136719 L 5.578125 5.136719 L 5.578125 9.421875 L 7.277344 9.421875 L 7.277344 5.136719 L 22.722656 5.136719 L 22.722656 7.722656 L 18.4375 7.722656 L 18.4375 9.421875 L 24.421875 9.421875 L 24.421875 3.4375 L 0.851562 3.4375 L 0.851562 0.851562 L 29.148438 0.851562 L 29.148438 12.007812 L 15.851562 12.007812 L 15.851562 7.722656 L 9.863281 7.722656 L 9.863281 12.007812 L 5.578125 12.007812 L 5.578125 17.992188 L 7.277344 17.992188 L 7.277344 13.707031 L 11.5625 13.707031 L 11.5625 9.421875 L 14.148438 9.421875 L 14.148438 13.707031 L 18.4375 13.707031 L 18.4375 16.292969 L 9.863281 16.292969 L 9.863281 24.863281 L 5.578125 24.863281 L 5.578125 26.5625 L 11.5625 26.5625 L 11.5625 17.992188 L 20.136719 17.992188 L 20.136719 13.707031 L 29.148438 13.707031 L 29.148438 29.148438 L 24.421875 29.148438 L 24.421875 16.292969 L 22.722656 16.292969 L 22.722656 20.578125 L 14.148438 20.578125 L 14.148438 26.5625 L 20.136719 26.5625 L 20.136719 24.863281 L 15.851562 24.863281 L 15.851562 22.277344 L 22.722656 22.277344 L 22.722656 29.148438 L 0.851562 29.148438 L 0.851562 22.277344 Z M 6.429688 22.277344 "/>
<path fill-rule="nonzero" fill="rgb(80%, 40%, 40%)" fill-opacity="1" d="M 1.367188 1.367188 L 5.0625 1.367188 L 5.0625 2.917969 L 1.367188 2.917969 Z M 1.367188 1.367188 "/>
<path fill-rule="nonzero" fill="rgb(40%, 80%, 40%)" fill-opacity="1" d="M 24.9375 27.082031 L 28.632812 27.082031 L 28.632812 28.632812 L 24.9375 28.632812 Z M 24.9375 27.082031 "/>
</svg>
