<?xml version="1.0" encoding="UTF-8"?>
<svg xmlns="http://www.w3.org/2000/svg" xmlns:xlink="http://www.w3.org/1999/xlink" width="200mm" height="300mm" viewBox="0 0 200 300">
<rect x="-20" y="-30" width="240" height="360" fill="rgb(90%, 90%, 90%)" fill-opacity="1"/>
<path fill-rule="evenodd" fill="rgb(20%, 20%, 20%)" fill-opacity="1" d="M 0.25 4 L 0.25 0.25 L 3.75 0.25 L 3.75 8.25 L 7.75 8.25 L 7.75 12.25 L 16.25 12.25 L 16.25 11.75 L 12.25 11.75 L 12.25 4.25 L 23.75 4.25 L 23.75 12.25 L 24.25 12.25 L 24.25 8.25 L 31.75 8.25 L 31.75 12.25 L 35.75 12.25 L 35.75 16.25 L 39.75 16.25 L 39.75 24.25 L 40.25 24.25 L 40.25 16.25 L 51.75 16.25 L 51.75 20.25 L 52.25 20.25 L 52.25 16.25 L 60.25 16.25 L 60.25 12.25 L 67.75 12.25 L 67.75 35.75 L 63.75 35.75 L 63.75 36.25 L 75.75 36.25 L 75.75 47.75 L 68.25 47.75 L 68.25 43.75 L 56.25 43.75 L 56.25 27.75 L 55.75 27.75 L 55.75 35.75 L 40.25 35.75 L 40.25 31.75 L 31.75 31.75 L 31.75 47.75 L 27.75 47.75 L 27.75 55.75 L 23.75 55.75 L 23.75 60.25 L 24.25 60.25 L 24.25 56.25 L 27.75 56.25 L 27.75 63.75 L 16.25 63.75 L 16.25 51.75 L 12.25 51.75 L 12.25 40.25 L 16.25 40.25 L 16.25 36.25 L 24.25 36.25 L 24.25 19.75 L 15.75 19.75 L 15.75 27.75 L 11.75 27.75 L 11.75 32.25 L 12.25 32.25 L 12.25 28.25 L 19.75 28.25 L 19.75 32.25 L 20.25 32.25 L 20.25 23.75 L 19.75 23.75 L 19.75 27.75 L 16.25 27.75 L 16.25 20.25 L 23.75 20.25 L 23.75 35.75 L 16.25 35.75 L 16.25 31.75 L 15.75 31.75 L 15.75 39.75 L 11.75 39.75 L 11.75 52.25 L 15.75 52.25 L 15.75 59.75 L 11.75 59.75 L 11.75 60.25 L 15.75 60.25 L 15.75 67.75 L 11.75 67.75 L 11.75 68.25 L 19.75 68.25 L 19.75 79.75 L 11.75 79.75 L 11.75 84.25 L 12.25 84.25 L 12.25 80.25 L 20.25 80.25 L 20.25 72.25 L 23.75 72.25 L 23.75 76.25 L 27.75 76.25 L 27.75 80.25 L 28.25 80.25 L 28.25 76.25 L 35.75 76.25 L 35.75 79.75 L 31.75 79.75 L 31.75 87.75 L 23.75 87.75 L 23.75 96.25 L 24.25 96.25 L 24.25 88.25 L 27.75 88.25 L 27.75 107.75 L 23.75 107.75 L 23.75 111.75 L 15.75 111.75 L 15.75 116.25 L 20.25 116.25 L 20.25 115.75 L 16.25 115.75 L 16.25 112.25 L 27.75 112.25 L 27.75 123.75 L 11.75 123.75 L 11.75 140.25 L 12.25 140.25 L 12.25 132.25 L 19.75 132.25 L 19.75 144.25 L 24.25 144.25 L 24.25 143.75 L 20.25 143.75 L 20.25 127.75 L 19.75 127.75 L 19.75 131.75 L 12.25 131.75 L 12.25 124.25 L 15.75 124.25 L 15.75 128.25 L 16.25 128.25 L 16.25 124.25 L 27.75 124.25 L 27.75 128.25 L 28.25 128.25 L 28.25 111.75 L 24.25 111.75 L 24.25 108.25 L 28.25 108.25 L 28.25 104.25 L 32.25 104.25 L 32.25 103.75 L 28.25 103.75 L 28.25 88.25 L 32.25 88.25 L 32.25 80.25 L 39.75 80.25 L 39.75 84.25 L 43.75 84.25 L 43.75 92.25 L 47.75 92.25 L 47.75 100.25 L 56.25 100.25 L 56.25 91.75 L 51.75 91.75 L 51.75 92.25 L 55.75 92.25 L 55.75 99.75 L 48.25 99.75 L 48.25 96.25 L 52.25 96.25 L 52.25 95.75 L 48.25 95.75 L 48.25 91.75 L 44.25 91.75 L 44.25 84.25 L 48.25 84.25 L 48.25 79.75 L 44.25 79.75 L 44.25 67.75 L 43.75 67.75 L 43.75 80.25 L 47.75 80.25 L 47.75 83.75 L 40.25 83.75 L 40.25 79.75 L 36.25 79.75 L 36.25 75.75 L 32.25 75.75 L 32.25 71.75 L 31.75 71.75 L 31.75 75.75 L 24.25 75.75 L 24.25 71.75 L 20.25 71.75 L 20.25 67.75 L 16.25 67.75 L 16.25 64.25 L 32.25 64.25 L 32.25 63.75 L 28.25 63.75 L 28.25 56.25 L 32.25 56.25 L 32.25 55.75 L 28.25 55.75 L 28.25 48.25 L 32.25 48.25 L 32.25 44.25 L 39.75 44.25 L 39.75 48.25 L 40.25 48.25 L 40.25 44.25 L 47.75 44.25 L 47.75 52.25 L 48.25 52.25 L 48.25 48.25 L 52.25 48.25 L 52.25 39.75 L 51.75 39.75 L 51.75 47.75 L 48.25 47.75 L 48.25 43.75 L 44.25 43.75 L 44.25 39.75 L 43.75 39.75 L 43.75 43.75 L 36.25 43.75 L 36.25 39.75 L 35.75 39.75 L 35.75 43.75 L 32.25 43.75 L 32.25 32.25 L 39.75 32.25 L 39.75 35.75 L 35.75 35.75 L 35.75 36.25 L 39.75 36.25 L 39.75 40.25 L 40.25 40.25 L 40.25 36.25 L 47.75 36.25 L 47.75 40.25 L 48.25 40.25 L 48.25 36.25 L 55.75 36.25 L 55.75 44.25 L 67.75 44.25 L 67.75 47.75 L 63.75 47.75 L 63.75 55.75 L 55.75 55.75 L 55.75 56.25 L 63.75 56.25 L 63.75 63.75 L 51.75 63.75 L 51.75 68.25 L 55.75 68.25 L 55.75 72.25 L 60.25 72.25 L 60.25 67.75 L 59.75 67.75 L 59.75 71.75 L 56.25 71.75 L 56.25 67.75 L 52.25 67.75 L 52.25 64.25 L 63.75 64.25 L 63.75 79.75 L 59.75 79.75 L 59.75 83.75 L 55.75 83.75 L 55.75 84.25 L 60.25 84.25 L 60.25 80.25 L 63.75 80.25 L 63.75 103.75 L 60.25 103.75 L 60.25 87.75 L 52.25 87.75 L 52.25 76.25 L 55.75 76.25 L 55.75 80.25 L 56.25 80.25 L 56.25 76.25 L 60.25 76.25 L 60.25 75.75 L 48.25 75.75 L 48.25 72.25 L 52.25 72.25 L 52.25 71.75 L 48.25 71.75 L 48.25 59.75 L 47.75 59.75 L 47.75 63.75 L 40.25 63.75 L 40.25 59.75 L 39.75 59.75 L 39.75 71.75 L 36.25 71.75 L 36.25 52.25 L 43.75 52.25 L 43.75 55.75 L 39.75 55.75 L 39.75 56.25 L 43.75 56.25 L 43.75 60.25 L 44.25 60.25 L 44.25 56.25 L 51.75 56.25 L 51.75 60.25 L 60.25 60.25 L 60.25 59.75 L 52.25 59.75 L 52.25 52.25 L 56.25 52.25 L 56.25 48.25 L 59.75 48.25 L 59.75 52.25 L 60.25 52.25 L 60.25 47.75 L 55.75 47.75 L 55.75 51.75 L 51.75 51.75 L 51.75 55.75 L 44.25 55.75 L 44.25 47.75 L 43.75 47.75 L 43.75 51.75 L 36.25 51.75 L 36.25 47.75 L 35.75 47.75 L 35.75 51.75 L 31.75 51.75 L 31.75 52.25 L 35.75 52.25 L 35.75 59.75 L 31.75 59.75 L 31.75 60.25 L 35.75 60.25 L 35.75 67.75 L 23.75 67.75 L 23.75 68.25 L 27.75 68.25 L 27.75 72.25 L 28.25 72.25 L 28.25 68.25 L 35.75 68.25 L 35.75 72.25 L 39.75 72.25 L 39.75 76.25 L 40.25 76.25 L 40.25 64.25 L 47.75 64.25 L 47.75 76.25 L 51.75 76.25 L 51.75 87.75 L 47.75 87.75 L 47.75 88.25 L 59.75 88.25 L 59.75 103.75 L 47.75 103.75 L 47.75 107.75 L 44.25 107.75 L 44.25 103.75 L 40.25 103.75 L 40.25 96.25 L 43.75 96.25 L 43.75 100.25 L 44.25 100.25 L 44.25 95.75 L 32.25 95.75 L 32.25 92.25 L 36.25 92.25 L 36.25 88.25 L 39.75 88.25 L 39.75 92.25 L 40.25 92.25 L 40.25 87.75 L 36.25 87.75 L 36.25 83.75 L 35.75 83.75 L 35.75 91.75 L 31.75 91.75 L 31.75 96.25 L 39.75 96.25 L 39.75 104.25 L 43.75 104.25 L 43.75 108.25 L 48.25 108.25 L 48.25 104.25 L 63.75 104.25 L 63.75 111.75 L 59.75 111.75 L 59.75 112.25 L 63.75 112.25 L 63.75 132.25 L 79.75 132.25 L 79.75 136.25 L 83.75 136.25 L 83.75 140.25 L 84.25 140.25 L 84.25 136.25 L 88.25 136.25 L 88.25 131.75 L 83.75 131.75 L 83.75 132.25 L 87.75 132.25 L 87.75 135.75 L 80.25 135.75 L 80.25 131.75 L 64.25 131.75 L 64.25 128.25 L 91.75 128.25 L 91.75 139.75 L 87.75 139.75 L 87.75 143.75 L 80.25 143.75 L 80.25 139.75 L 63.75 139.75 L 63.75 140.25 L 67.75 140.25 L 67.75 147.75 L 63.75 147.75 L 63.75 148.25 L 67.75 148.25 L 67.75 151.75 L 63.75 151.75 L 63.75 159.75 L 59.75 159.75 L 59.75 160.25 L 67.75 160.25 L 67.75 163.75 L 52.25 163.75 L 52.25 156.25 L 55.75 156.25 L 55.75 160.25 L 56.25 160.25 L 56.25 156.25 L 60.25 156.25 L 60.25 144.25 L 64.25 144.25 L 64.25 143.75 L 56.25 143.75 L 56.25 140.25 L 60.25 140.25 L 60.25 136.25 L 76.25 136.25 L 76.25 135.75 L 60.25 135.75 L 60.25 119.75 L 59.75 119.75 L 59.75 123.75 L 52.25 123.75 L 52.25 119.75 L 40.25 119.75 L 40.25 115.75 L 39.75 115.75 L 39.75 119.75 L 35.75 119.75 L 35.75 120.25 L 43.75 120.25 L 43.75 127.75 L 39.75 127.75 L 39.75 131.75 L 35.75 131.75 L 35.75 135.75 L 31.75 135.75 L 31.75 140.25 L 32.25 140.25 L 32.25 136.25 L 39.75 136.25 L 39.75 140.25 L 43.75 140.25 L 43.75 147.75 L 35.75 147.75 L 35.75 151.75 L 31.75 151.75 L 31.75 152.25 L 43.75 152.25 L 43.75 163.75 L 39.75 163.75 L 39.75 167.75 L 35.75 167.75 L 35.75 180.25 L 39.75 180.25 L 39.75 191.75 L 28.25 191.75 L 28.25 188.25 L 32.25 188.25 L 32.25 187.75 L 27.75 187.75 L 27.75 191.75 L 20.25 191.75 L 20.25 187.75 L 19.75 187.75 L 19.75 195.75 L 12.25 195.75 L 12.25 187.75 L 11.75 187.75 L 11.75 196.25 L 20.25 196.25 L 20.25 192.25 L 31.75 192.25 L 31.75 199.75 L 27.75 199.75 L 27.75 200.25 L 31.75 200.25 L 31.75 204.25 L 32.25 204.25 L 32.25 196.25 L 47.75 196.25 L 47.75 211.75 L 40.25 211.75 L 40.25 207.75 L 39.75 207.75 L 39.75 211.75 L 35.75 211.75 L 35.75 215.75 L 31.75 215.75 L 31.75 220.25 L 35.75 220.25 L 35.75 236.25 L 36.25 236.25 L 36.25 232.25 L 52.25 232.25 L 52.25 231.75 L 48.25 231.75 L 48.25 220.25 L 52.25 220.25 L 52.25 216.25 L 59.75 216.25 L 59.75 220.25 L 63.75 220.25 L 63.75 239.75 L 60.25 239.75 L 60.25 231.75 L 59.75 231.75 L 59.75 240.25 L 63.75 240.25 L 63.75 247.75 L 59.75 247.75 L 59.75 248.25 L 63.75 248.25 L 63.75 252.25 L 83.75 252.25 L 83.75 255.75 L 71.75 255.75 L 71.75 256.25 L 83.75 256.25 L 83.75 260.25 L 84.25 260.25 L 84.25 252.25 L 95.75 252.25 L 95.75 256.25 L 96.25 256.25 L 96.25 252.25 L 99.75 252.25 L 99.75 259.75 L 95.75 259.75 L 95.75 267.75 L 92.25 267.75 L 92.25 255.75 L 91.75 255.75 L 91.75 268.25 L 96.25 268.25 L 96.25 260.25 L 100.25 260.25 L 100.25 252.25 L 115.75 252.25 L 115.75 255.75 L 107.75 255.75 L 107.75 256.25 L 116.25 256.25 L 116.25 252.25 L 135.75 252.25 L 135.75 259.75 L 128.25 259.75 L 128.25 256.25 L 132.25 256.25 L 132.25 255.75 L 123.75 255.75 L 123.75 256.25 L 127.75 256.25 L 127.75 260.25 L 136.25 260.25 L 136.25 252.25 L 151.75 252.25 L 151.75 256.25 L 152.25 256.25 L 152.25 252.25 L 159.75 252.25 L 159.75 256.25 L 163.75 256.25 L 163.75 260.25 L 175.75 260.25 L 175.75 264.25 L 180.25 264.25 L 180.25 259.75 L 179.75 259.75 L 179.75 263.75 L 176.25 263.75 L 176.25 255.75 L 171.75 255.75 L 171.75 256.25 L 175.75 256.25 L 175.75 259.75 L 164.25 259.75 L 164.25 255.75 L 160.25 255.75 L 160.25 252.25 L 167.75 252.25 L 167.75 256.25 L 168.25 256.25 L 168.25 252.25 L 184.25 252.25 L 184.25 248.25 L 188.25 248.25 L 188.25 244.25 L 195.75 244.25 L 195.75 248.25 L 196.25 248.25 L 196.25 239.75 L 191.75 239.75 L 191.75 240.25 L 195.75 240.25 L 195.75 243.75 L 187.75 243.75 L 187.75 247.75 L 184.25 247.75 L 184.25 236.25 L 187.75 236.25 L 187.75 240.25 L 188.25 240.25 L 188.25 236.25 L 199.75 236.25 L 199.75 251.75 L 192.25 251.75 L 192.25 247.75 L 191.75 247.75 L 191.75 251.75 L 187.75 251.75 L 187.75 259.75 L 184.25 259.75 L 184.25 255.75 L 179.75 255.75 L 179.75 256.25 L 183.75 256.25 L 183.75 267.75 L 168.25 267.75 L 168.25 264.25 L 172.25 264.25 L 172.25 263.75 L 159.75 263.75 L 159.75 275.75 L 156.25 275.75 L 156.25 271.75 L 148.25 271.75 L 148.25 264.25 L 152.25 264.25 L 152.25 263.75 L 148.25 263.75 L 148.25 260.25 L 155.75 260.25 L 155.75 267.75 L 151.75 267.75 L 151.75 268.25 L 156.25 268.25 L 156.25 260.25 L 160.25 260.25 L 160.25 259.75 L 156.25 259.75 L 156.25 255.75 L 155.75 255.75 L 155.75 259.75 L 144.25 259.75 L 144.25 256.25 L 148.25 256.25 L 148.25 255.75 L 143.75 255.75 L 143.75 260.25 L 147.75 260.25 L 147.75 272.25 L 155.75 272.25 L 155.75 279.75 L 147.75 279.75 L 147.75 280.25 L 156.25 280.25 L 156.25 276.25 L 160.25 276.25 L 160.25 264.25 L 167.75 264.25 L 167.75 268.25 L 188.25 268.25 L 188.25 267.75 L 184.25 267.75 L 184.25 260.25 L 188.25 260.25 L 188.25 252.25 L 199.75 252.25 L 199.75 279.75 L 196.25 279.75 L 196.25 259.75 L 195.75 259.75 L 195.75 279.75 L 191.75 279.75 L 191.75 283.75 L 188.25 283.75 L 188.25 279.75 L 187.75 279.75 L 187.75 287.75 L 183.75 287.75 L 183.75 288.25 L 187.75 288.25 L 187.75 296.25 L 192.25 296.25 L 192.25 295.75 L 188.25 295.75 L 188.25 284.25 L 192.25 284.25 L 192.25 280.25 L 199.75 280.25 L 199.75 299.75 L 196.25 299.75 L 196.25 283.75 L 195.75 283.75 L 195.75 287.75 L 191.75 287.75 L 191.75 292.25 L 192.25 292.25 L 192.25 288.25 L 195.75 288.25 L 195.75 299.75 L 184.25 299.75 L 184.25 291.75 L 180.25 291.75 L 180.25 284.25 L 184.25 284.25 L 184.25 276.25 L 192.25 276.25 L 192.25 256.25 L 196.25 256.25 L 196.25 255.75 L 191.75 255.75 L 191.75 263.75 L 187.75 263.75 L 187.75 264.25 L 191.75 264.25 L 191.75 271.75 L 164.25 271.75 L 164.25 267.75 L 163.75 267.75 L 163.75 279.75 L 159.75 279.75 L 159.75 283.75 L 144.25 283.75 L 144.25 276.25 L 152.25 276.25 L 152.25 275.75 L 144.25 275.75 L 144.25 263.75 L 140.25 263.75 L 140.25 255.75 L 139.75 255.75 L 139.75 263.75 L 124.25 263.75 L 124.25 259.75 L 120.25 259.75 L 120.25 255.75 L 119.75 255.75 L 119.75 259.75 L 104.25 259.75 L 104.25 255.75 L 103.75 255.75 L 103.75 263.75 L 99.75 263.75 L 99.75 268.25 L 100.25 268.25 L 100.25 264.25 L 104.25 264.25 L 104.25 260.25 L 115.75 260.25 L 115.75 263.75 L 107.75 263.75 L 107.75 267.75 L 103.75 267.75 L 103.75 271.75 L 88.25 271.75 L 88.25 255.75 L 87.75 255.75 L 87.75 263.75 L 80.25 263.75 L 80.25 259.75 L 68.25 259.75 L 68.25 255.75 L 60.25 255.75 L 60.25 251.75 L 56.25 251.75 L 56.25 244.25 L 60.25 244.25 L 60.25 243.75 L 56.25 243.75 L 56.25 228.25 L 60.25 228.25 L 60.25 223.75 L 56.25 223.75 L 56.25 219.75 L 55.75 219.75 L 55.75 223.75 L 51.75 223.75 L 51.75 228.25 L 52.25 228.25 L 52.25 224.25 L 59.75 224.25 L 59.75 227.75 L 55.75 227.75 L 55.75 235.75 L 39.75 235.75 L 39.75 239.75 L 32.25 239.75 L 32.25 223.75 L 31.75 223.75 L 31.75 235.75 L 28.25 235.75 L 28.25 212.25 L 32.25 212.25 L 32.25 208.25 L 36.25 208.25 L 36.25 204.25 L 43.75 204.25 L 43.75 208.25 L 44.25 208.25 L 44.25 199.75 L 35.75 199.75 L 35.75 200.25 L 43.75 200.25 L 43.75 203.75 L 35.75 203.75 L 35.75 207.75 L 28.25 207.75 L 28.25 203.75 L 24.25 203.75 L 24.25 196.25 L 28.25 196.25 L 28.25 195.75 L 23.75 195.75 L 23.75 203.75 L 20.25 203.75 L 20.25 199.75 L 8.25 199.75 L 8.25 184.25 L 15.75 184.25 L 15.75 192.25 L 16.25 192.25 L 16.25 184.25 L 23.75 184.25 L 23.75 188.25 L 24.25 188.25 L 24.25 184.25 L 35.75 184.25 L 35.75 188.25 L 36.25 188.25 L 36.25 183.75 L 32.25 183.75 L 32.25 164.25 L 36.25 164.25 L 36.25 160.25 L 40.25 160.25 L 40.25 155.75 L 28.25 155.75 L 28.25 148.25 L 32.25 148.25 L 32.25 144.25 L 40.25 144.25 L 40.25 143.75 L 36.25 143.75 L 36.25 139.75 L 35.75 139.75 L 35.75 143.75 L 28.25 143.75 L 28.25 132.25 L 32.25 132.25 L 32.25 128.25 L 36.25 128.25 L 36.25 124.25 L 40.25 124.25 L 40.25 123.75 L 32.25 123.75 L 32.25 116.25 L 36.25 116.25 L 36.25 112.25 L 43.75 112.25 L 43.75 116.25 L 55.75 116.25 L 55.75 120.25 L 56.25 120.25 L 56.25 116.25 L 60.25 116.25 L 60.25 115.75 L 56.25 115.75 L 56.25 108.25 L 60.25 108.25 L 60.25 107.75 L 51.75 107.75 L 51.75 111.75 L 47.75 111.75 L 47.75 112.25 L 52.25 112.25 L 52.25 108.25 L 55.75 108.25 L 55.75 115.75 L 44.25 115.75 L 44.25 111.75 L 40.25 111.75 L 40.25 107.75 L 36.25 107.75 L 36.25 99.75 L 31.75 99.75 L 31.75 100.25 L 35.75 100.25 L 35.75 108.25 L 39.75 108.25 L 39.75 111.75 L 35.75 111.75 L 35.75 115.75 L 32.25 115.75 L 32.25 107.75 L 31.75 107.75 L 31.75 124.25 L 35.75 124.25 L 35.75 127.75 L 31.75 127.75 L 31.75 131.75 L 27.75 131.75 L 27.75 139.75 L 24.25 139.75 L 24.25 127.75 L 23.75 127.75 L 23.75 140.25 L 27.75 140.25 L 27.75 144.25 L 31.75 144.25 L 31.75 147.75 L 27.75 147.75 L 27.75 155.75 L 12.25 155.75 L 12.25 147.75 L 11.75 147.75 L 11.75 160.25 L 16.25 160.25 L 16.25 159.75 L 12.25 159.75 L 12.25 156.25 L 23.75 156.25 L 23.75 167.75 L 19.75 167.75 L 19.75 172.25 L 20.25 172.25 L 20.25 168.25 L 28.25 168.25 L 28.25 159.75 L 27.75 159.75 L 27.75 167.75 L 24.25 167.75 L 24.25 156.25 L 39.75 156.25 L 39.75 159.75 L 35.75 159.75 L 35.75 163.75 L 32.25 163.75 L 32.25 159.75 L 31.75 159.75 L 31.75 175.75 L 27.75 175.75 L 27.75 180.25 L 28.25 180.25 L 28.25 176.25 L 31.75 176.25 L 31.75 183.75 L 20.25 183.75 L 20.25 179.75 L 11.75 179.75 L 11.75 180.25 L 19.75 180.25 L 19.75 183.75 L 8.25 183.75 L 8.25 172.25 L 12.25 172.25 L 12.25 167.75 L 11.75 167.75 L 11.75 171.75 L 8.25 171.75 L 8.25 164.25 L 15.75 164.25 L 15.75 175.75 L 11.75 175.75 L 11.75 176.25 L 23.75 176.25 L 23.75 180.25 L 24.25 180.25 L 24.25 172.25 L 28.25 172.25 L 28.25 171.75 L 23.75 171.75 L 23.75 175.75 L 16.25 175.75 L 16.25 164.25 L 20.25 164.25 L 20.25 159.75 L 19.75 159.75 L 19.75 163.75 L 8.25 163.75 L 8.25 144.25 L 15.75 144.25 L 15.75 148.25 L 23.75 148.25 L 23.75 151.75 L 15.75 151.75 L 15.75 152.25 L 24.25 152.25 L 24.25 147.75 L 16.25 147.75 L 16.25 135.75 L 15.75 135.75 L 15.75 143.75 L 8.25 143.75 L 8.25 100.25 L 16.25 100.25 L 16.25 99.75 L 12.25 99.75 L 12.25 95.75 L 11.75 95.75 L 11.75 99.75 L 8.25 99.75 L 8.25 88.25 L 16.25 88.25 L 16.25 84.25 L 19.75 84.25 L 19.75 95.75 L 16.25 95.75 L 16.25 91.75 L 11.75 91.75 L 11.75 92.25 L 15.75 92.25 L 15.75 96.25 L 19.75 96.25 L 19.75 100.25 L 23.75 100.25 L 23.75 103.75 L 19.75 103.75 L 19.75 107.75 L 12.25 107.75 L 12.25 104.25 L 16.25 104.25 L 16.25 103.75 L 11.75 103.75 L 11.75 120.25 L 24.25 120.25 L 24.25 115.75 L 23.75 115.75 L 23.75 119.75 L 12.25 119.75 L 12.25 108.25 L 20.25 108.25 L 20.25 104.25 L 24.25 104.25 L 24.25 99.75 L 20.25 99.75 L 20.25 84.25 L 28.25 84.25 L 28.25 83.75 L 24.25 83.75 L 24.25 79.75 L 23.75 79.75 L 23.75 83.75 L 15.75 83.75 L 15.75 87.75 L 8.25 87.75 L 8.25 72.25 L 15.75 72.25 L 15.75 75.75 L 11.75 75.75 L 11.75 76.25 L 16.25 76.25 L 16.25 71.75 L 8.25 71.75 L 8.25 64.25 L 12.25 64.25 L 12.25 63.75 L 8.25 63.75 L 8.25 56.25 L 12.25 56.25 L 12.25 55.75 L 8.25 55.75 L 8.25 36.25 L 12.25 36.25 L 12.25 35.75 L 8.25 35.75 L 8.25 16.25 L 11.75 16.25 L 11.75 24.25 L 12.25 24.25 L 12.25 16.25 L 31.75 16.25 L 31.75 24.25 L 32.25 24.25 L 32.25 20.25 L 35.75 20.25 L 35.75 27.75 L 28.25 27.75 L 28.25 19.75 L 27.75 19.75 L 27.75 43.75 L 23.75 43.75 L 23.75 51.75 L 20.25 51.75 L 20.25 47.75 L 16.25 47.75 L 16.25 44.25 L 20.25 44.25 L 20.25 40.25 L 24.25 40.25 L 24.25 39.75 L 19.75 39.75 L 19.75 43.75 L 15.75 43.75 L 15.75 48.25 L 19.75 48.25 L 19.75 60.25 L 20.25 60.25 L 20.25 52.25 L 24.25 52.25 L 24.25 44.25 L 28.25 44.25 L 28.25 28.25 L 48.25 28.25 L 48.25 27.75 L 44.25 27.75 L 44.25 20.25 L 47.75 20.25 L 47.75 24.25 L 51.75 24.25 L 51.75 31.75 L 43.75 31.75 L 43.75 32.25 L 52.25 32.25 L 52.25 24.25 L 56.25 24.25 L 56.25 20.25 L 63.75 20.25 L 63.75 31.75 L 60.25 31.75 L 60.25 23.75 L 59.75 23.75 L 59.75 40.25 L 71.75 40.25 L 71.75 44.25 L 72.25 44.25 L 72.25 39.75 L 60.25 39.75 L 60.25 32.25 L 64.25 32.25 L 64.25 15.75 L 63.75 15.75 L 63.75 19.75 L 55.75 19.75 L 55.75 23.75 L 48.25 23.75 L 48.25 19.75 L 43.75 19.75 L 43.75 27.75 L 36.25 27.75 L 36.25 19.75 L 32.25 19.75 L 32.25 15.75 L 28.25 15.75 L 28.25 11.75 L 27.75 11.75 L 27.75 15.75 L 20.25 15.75 L 20.25 7.75 L 15.75 7.75 L 15.75 8.25 L 19.75 8.25 L 19.75 15.75 L 0.25 15.75 L 0.25 12.25 L 4.25 12.25 L 4.25 11.75 L 0.25 11.75 Z M 172.25 280 L 172.25 279.75 L 167.75 279.75 L 167.75 283.75 L 160.25 283.75 L 160.25 280.25 L 164.25 280.25 L 164.25 272.25 L 191.75 272.25 L 191.75 275.75 L 183.75 275.75 L 183.75 279.75 L 179.75 279.75 L 179.75 280.25 L 183.75 280.25 L 183.75 283.75 L 179.75 283.75 L 179.75 287.75 L 175.75 287.75 L 175.75 296.25 L 176.25 296.25 L 176.25 288.25 L 179.75 288.25 L 179.75 292.25 L 183.75 292.25 L 183.75 299.75 L 180.25 299.75 L 180.25 295.75 L 179.75 295.75 L 179.75 299.75 L 168.25 299.75 L 168.25 295.75 L 167.75 295.75 L 167.75 299.75 L 160.25 299.75 L 160.25 292.25 L 163.75 292.25 L 163.75 296.25 L 164.25 296.25 L 164.25 292.25 L 168.25 292.25 L 168.25 288.25 L 171.75 288.25 L 171.75 296.25 L 172.25 296.25 L 172.25 284.25 L 176.25 284.25 L 176.25 276.25 L 180.25 276.25 L 180.25 275.75 L 167.75 275.75 L 167.75 276.25 L 175.75 276.25 L 175.75 283.75 L 171.75 283.75 L 171.75 287.75 L 167.75 287.75 L 167.75 291.75 L 160.25 291.75 L 160.25 287.75 L 159.75 287.75 L 159.75 299.75 L 152.25 299.75 L 152.25 295.75 L 151.75 295.75 L 151.75 299.75 L 124.25 299.75 L 124.25 292.25 L 128.25 292.25 L 128.25 291.75 L 123.75 291.75 L 123.75 295.75 L 119.75 295.75 L 119.75 296.25 L 123.75 296.25 L 123.75 299.75 L 108.25 299.75 L 108.25 296.25 L 112.25 296.25 L 112.25 288.25 L 116.25 288.25 L 116.25 287.75 L 112.25 287.75 L 112.25 279.75 L 107.75 279.75 L 107.75 280.25 L 111.75 280.25 L 111.75 283.75 L 100.25 283.75 L 100.25 279.75 L 99.75 279.75 L 99.75 283.75 L 96.25 283.75 L 96.25 276.25 L 103.75 276.25 L 103.75 280.25 L 104.25 280.25 L 104.25 276.25 L 108.25 276.25 L 108.25 272.25 L 111.75 272.25 L 111.75 276.25 L 115.75 276.25 L 115.75 284.25 L 124.25 284.25 L 124.25 280.25 L 127.75 280.25 L 127.75 284.25 L 131.75 284.25 L 131.75 287.75 L 119.75 287.75 L 119.75 291.75 L 115.75 291.75 L 115.75 296.25 L 116.25 296.25 L 116.25 292.25 L 120.25 292.25 L 120.25 288.25 L 131.75 288.25 L 131.75 295.75 L 127.75 295.75 L 127.75 296.25 L 132.25 296.25 L 132.25 288.25 L 136.25 288.25 L 136.25 287.75 L 132.25 287.75 L 132.25 283.75 L 128.25 283.75 L 128.25 279.75 L 124.25 279.75 L 124.25 275.75 L 123.75 275.75 L 123.75 283.75 L 116.25 283.75 L 116.25 275.75 L 112.25 275.75 L 112.25 268.25 L 124.25 268.25 L 124.25 267.75 L 120.25 267.75 L 120.25 263.75 L 119.75 263.75 L 119.75 267.75 L 111.75 267.75 L 111.75 271.75 L 107.75 271.75 L 107.75 275.75 L 91.75 275.75 L 91.75 276.25 L 95.75 276.25 L 95.75 284.25 L 103.75 284.25 L 103.75 288.25 L 104.25 288.25 L 104.25 284.25 L 111.75 284.25 L 111.75 295.75 L 107.75 295.75 L 107.75 299.75 L 96.25 299.75 L 96.25 296.25 L 104.25 296.25 L 104.25 292.25 L 108.25 292.25 L 108.25 287.75 L 107.75 287.75 L 107.75 291.75 L 100.25 291.75 L 100.25 287.75 L 92.25 287.75 L 92.25 279.75 L 88.25 279.75 L 88.25 275.75 L 87.75 275.75 L 87.75 280.25 L 91.75 280.25 L 91.75 287.75 L 87.75 287.75 L 87.75 288.25 L 95.75 288.25 L 95.75 292.25 L 96.25 292.25 L 96.25 288.25 L 99.75 288.25 L 99.75 292.25 L 103.75 292.25 L 103.75 295.75 L 87.75 295.75 L 87.75 296.25 L 95.75 296.25 L 95.75 299.75 L 80.25 299.75 L 80.25 291.75 L 75.75 291.75 L 75.75 296.25 L 76.25 296.25 L 76.25 292.25 L 79.75 292.25 L 79.75 299.75 L 64.25 299.75 L 64.25 292.25 L 68.25 292.25 L 68.25 291.75 L 64.25 291.75 L 64.25 287.75 L 63.75 287.75 L 63.75 299.75 L 60.25 299.75 L 60.25 291.75 L 52.25 291.75 L 52.25 283.75 L 39.75 283.75 L 39.75 287.75 L 32.25 287.75 L 32.25 283.75 L 24.25 283.75 L 24.25 276.25 L 32.25 276.25 L 32.25 263.75 L 28.25 263.75 L 28.25 259.75 L 24.25 259.75 L 24.25 255.75 L 23.75 255.75 L 23.75 260.25 L 27.75 260.25 L 27.75 268.25 L 28.25 268.25 L 28.25 264.25 L 31.75 264.25 L 31.75 275.75 L 20.25 275.75 L 20.25 271.75 L 15.75 271.75 L 15.75 279.75 L 8.25 279.75 L 8.25 260.25 L 15.75 260.25 L 15.75 264.25 L 16.25 264.25 L 16.25 259.75 L 12.25 259.75 L 12.25 240.25 L 19.75 240.25 L 19.75 248.25 L 28.25 248.25 L 28.25 247.75 L 24.25 247.75 L 24.25 240.25 L 28.25 240.25 L 28.25 239.75 L 23.75 239.75 L 23.75 247.75 L 20.25 247.75 L 20.25 239.75 L 12.25 239.75 L 12.25 235.75 L 11.75 235.75 L 11.75 259.75 L 8.25 259.75 L 8.25 228.25 L 12.25 228.25 L 12.25 224.25 L 19.75 224.25 L 19.75 228.25 L 20.25 228.25 L 20.25 224.25 L 24.25 224.25 L 24.25 223.75 L 11.75 223.75 L 11.75 227.75 L 8.25 227.75 L 8.25 212.25 L 15.75 212.25 L 15.75 216.25 L 20.25 216.25 L 20.25 215.75 L 16.25 215.75 L 16.25 208.25 L 24.25 208.25 L 24.25 207.75 L 16.25 207.75 L 16.25 203.75 L 15.75 203.75 L 15.75 211.75 L 8.25 211.75 L 8.25 200.25 L 11.75 200.25 L 11.75 208.25 L 12.25 208.25 L 12.25 200.25 L 19.75 200.25 L 19.75 204.25 L 27.75 204.25 L 27.75 208.25 L 31.75 208.25 L 31.75 211.75 L 27.75 211.75 L 27.75 219.75 L 24.25 219.75 L 24.25 211.75 L 19.75 211.75 L 19.75 212.25 L 23.75 212.25 L 23.75 219.75 L 12.25 219.75 L 12.25 215.75 L 11.75 215.75 L 11.75 220.25 L 27.75 220.25 L 27.75 235.75 L 16.25 235.75 L 16.25 232.25 L 24.25 232.25 L 24.25 227.75 L 23.75 227.75 L 23.75 231.75 L 16.25 231.75 L 16.25 227.75 L 15.75 227.75 L 15.75 231.75 L 11.75 231.75 L 11.75 232.25 L 15.75 232.25 L 15.75 236.25 L 31.75 236.25 L 31.75 240.25 L 39.75 240.25 L 39.75 247.75 L 35.75 247.75 L 35.75 248.25 L 40.25 248.25 L 40.25 244.25 L 48.25 244.25 L 48.25 240.25 L 52.25 240.25 L 52.25 239.75 L 47.75 239.75 L 47.75 243.75 L 40.25 243.75 L 40.25 236.25 L 43.75 236.25 L 43.75 240.25 L 44.25 240.25 L 44.25 236.25 L 55.75 236.25 L 55.75 251.75 L 51.75 251.75 L 51.75 255.75 L 47.75 255.75 L 47.75 264.25 L 56.25 264.25 L 56.25 260.25 L 63.75 260.25 L 63.75 264.25 L 67.75 264.25 L 67.75 268.25 L 79.75 268.25 L 79.75 275.75 L 71.75 275.75 L 71.75 279.75 L 63.75 279.75 L 63.75 280.25 L 75.75 280.25 L 75.75 284.25 L 76.25 284.25 L 76.25 279.75 L 72.25 279.75 L 72.25 276.25 L 80.25 276.25 L 80.25 267.75 L 76.25 267.75 L 76.25 263.75 L 71.75 263.75 L 71.75 264.25 L 75.75 264.25 L 75.75 267.75 L 68.25 267.75 L 68.25 263.75 L 64.25 263.75 L 64.25 259.75 L 55.75 259.75 L 55.75 263.75 L 48.25 263.75 L 48.25 256.25 L 51.75 256.25 L 51.75 260.25 L 52.25 260.25 L 52.25 252.25 L 59.75 252.25 L 59.75 255.75 L 55.75 255.75 L 55.75 256.25 L 67.75 256.25 L 67.75 260.25 L 79.75 260.25 L 79.75 264.25 L 87.75 264.25 L 87.75 271.75 L 84.25 271.75 L 84.25 267.75 L 83.75 267.75 L 83.75 287.75 L 80.25 287.75 L 80.25 279.75 L 79.75 279.75 L 79.75 287.75 L 68.25 287.75 L 68.25 284.25 L 72.25 284.25 L 72.25 283.75 L 59.75 283.75 L 59.75 287.75 L 56.25 287.75 L 56.25 271.75 L 47.75 271.75 L 47.75 276.25 L 48.25 276.25 L 48.25 272.25 L 55.75 272.25 L 55.75 279.75 L 52.25 279.75 L 52.25 275.75 L 51.75 275.75 L 51.75 279.75 L 40.25 279.75 L 40.25 275.75 L 39.75 275.75 L 39.75 279.75 L 36.25 279.75 L 36.25 268.25 L 40.25 268.25 L 40.25 259.75 L 39.75 259.75 L 39.75 267.75 L 36.25 267.75 L 36.25 255.75 L 35.75 255.75 L 35.75 259.75 L 32.25 259.75 L 32.25 255.75 L 28.25 255.75 L 28.25 252.25 L 43.75 252.25 L 43.75 255.75 L 39.75 255.75 L 39.75 256.25 L 43.75 256.25 L 43.75 271.75 L 39.75 271.75 L 39.75 272.25 L 43.75 272.25 L 43.75 276.25 L 44.25 276.25 L 44.25 268.25 L 63.75 268.25 L 63.75 272.25 L 67.75 272.25 L 67.75 275.75 L 60.25 275.75 L 60.25 271.75 L 59.75 271.75 L 59.75 280.25 L 60.25 280.25 L 60.25 276.25 L 68.25 276.25 L 68.25 272.25 L 76.25 272.25 L 76.25 271.75 L 64.25 271.75 L 64.25 267.75 L 60.25 267.75 L 60.25 263.75 L 59.75 263.75 L 59.75 267.75 L 44.25 267.75 L 44.25 248.25 L 47.75 248.25 L 47.75 252.25 L 48.25 252.25 L 48.25 248.25 L 52.25 248.25 L 52.25 243.75 L 51.75 243.75 L 51.75 247.75 L 43.75 247.75 L 43.75 251.75 L 32.25 251.75 L 32.25 244.25 L 36.25 244.25 L 36.25 243.75 L 27.75 243.75 L 27.75 244.25 L 31.75 244.25 L 31.75 251.75 L 19.75 251.75 L 19.75 255.75 L 16.25 255.75 L 16.25 243.75 L 15.75 243.75 L 15.75 256.25 L 19.75 256.25 L 19.75 264.25 L 23.75 264.25 L 23.75 267.75 L 12.25 267.75 L 12.25 263.75 L 11.75 263.75 L 11.75 276.25 L 12.25 276.25 L 12.25 268.25 L 23.75 268.25 L 23.75 272.25 L 28.25 272.25 L 28.25 271.75 L 24.25 271.75 L 24.25 263.75 L 20.25 263.75 L 20.25 252.25 L 27.75 252.25 L 27.75 256.25 L 31.75 256.25 L 31.75 260.25 L 35.75 260.25 L 35.75 279.75 L 27.75 279.75 L 27.75 280.25 L 35.75 280.25 L 35.75 284.25 L 36.25 284.25 L 36.25 280.25 L 55.75 280.25 L 55.75 288.25 L 60.25 288.25 L 60.25 284.25 L 67.75 284.25 L 67.75 288.25 L 71.75 288.25 L 71.75 295.75 L 67.75 295.75 L 67.75 296.25 L 72.25 296.25 L 72.25 288.25 L 83.75 288.25 L 83.75 296.25 L 84.25 296.25 L 84.25 292.25 L 92.25 292.25 L 92.25 291.75 L 84.25 291.75 L 84.25 284.25 L 88.25 284.25 L 88.25 283.75 L 84.25 283.75 L 84.25 272.25 L 104.25 272.25 L 104.25 268.25 L 108.25 268.25 L 108.25 264.25 L 116.25 264.25 L 116.25 260.25 L 123.75 260.25 L 123.75 264.25 L 127.75 264.25 L 127.75 271.75 L 115.75 271.75 L 115.75 272.25 L 119.75 272.25 L 119.75 280.25 L 120.25 280.25 L 120.25 272.25 L 127.75 272.25 L 127.75 276.25 L 131.75 276.25 L 131.75 280.25 L 135.75 280.25 L 135.75 284.25 L 139.75 284.25 L 139.75 291.75 L 135.75 291.75 L 135.75 296.25 L 148.25 296.25 L 148.25 292.25 L 155.75 292.25 L 155.75 296.25 L 156.25 296.25 L 156.25 287.75 L 155.75 287.75 L 155.75 291.75 L 148.25 291.75 L 148.25 287.75 L 143.75 287.75 L 143.75 292.25 L 144.25 292.25 L 144.25 288.25 L 147.75 288.25 L 147.75 295.75 L 136.25 295.75 L 136.25 292.25 L 140.25 292.25 L 140.25 279.75 L 139.75 279.75 L 139.75 283.75 L 136.25 283.75 L 136.25 271.75 L 131.75 271.75 L 131.75 272.25 L 135.75 272.25 L 135.75 279.75 L 132.25 279.75 L 132.25 275.75 L 128.25 275.75 L 128.25 264.25 L 143.75 264.25 L 143.75 275.75 L 140.25 275.75 L 140.25 267.75 L 131.75 267.75 L 131.75 268.25 L 139.75 268.25 L 139.75 276.25 L 143.75 276.25 L 143.75 284.25 L 151.75 284.25 L 151.75 288.25 L 152.25 288.25 L 152.25 284.25 L 163.75 284.25 L 163.75 288.25 L 164.25 288.25 L 164.25 284.25 L 168.25 284.25 L 168.25 280.25 L 172.25 280.25 Z M 48.25 288 L 48.25 287.75 L 47.75 287.75 L 47.75 291.75 L 43.75 291.75 L 43.75 295.75 L 40.25 295.75 L 40.25 291.75 L 32.25 291.75 L 32.25 288.25 L 40.25 288.25 L 40.25 284.25 L 43.75 284.25 L 43.75 288.25 L 44.25 288.25 L 44.25 284.25 L 51.75 284.25 L 51.75 292.25 L 59.75 292.25 L 59.75 299.75 L 48.25 299.75 L 48.25 296.25 L 56.25 296.25 L 56.25 295.75 L 47.75 295.75 L 47.75 299.75 L 36.25 299.75 L 36.25 295.75 L 35.75 295.75 L 35.75 299.75 L 12.25 299.75 L 12.25 296.25 L 20.25 296.25 L 20.25 288.25 L 23.75 288.25 L 23.75 292.25 L 27.75 292.25 L 27.75 295.75 L 23.75 295.75 L 23.75 296.25 L 28.25 296.25 L 28.25 291.75 L 24.25 291.75 L 24.25 287.75 L 20.25 287.75 L 20.25 279.75 L 19.75 279.75 L 19.75 295.75 L 12.25 295.75 L 12.25 287.75 L 3.75 287.75 L 3.75 296.25 L 8.25 296.25 L 8.25 295.75 L 4.25 295.75 L 4.25 288.25 L 11.75 288.25 L 11.75 299.75 L 0.25 299.75 L 0.25 284.25 L 15.75 284.25 L 15.75 292.25 L 16.25 292.25 L 16.25 283.75 L 8.25 283.75 L 8.25 280.25 L 16.25 280.25 L 16.25 272.25 L 19.75 272.25 L 19.75 276.25 L 23.75 276.25 L 23.75 284.25 L 27.75 284.25 L 27.75 288.25 L 28.25 288.25 L 28.25 284.25 L 31.75 284.25 L 31.75 296.25 L 32.25 296.25 L 32.25 292.25 L 39.75 292.25 L 39.75 296.25 L 44.25 296.25 L 44.25 292.25 L 48.25 292.25 Z M 68.25 148 L 68.25 140.25 L 79.75 140.25 L 79.75 144.25 L 87.75 144.25 L 87.75 148.25 L 99.75 148.25 L 99.75 151.75 L 91.75 151.75 L 91.75 155.75 L 88.25 155.75 L 88.25 151.75 L 87.75 151.75 L 87.75 156.25 L 92.25 156.25 L 92.25 152.25 L 99.75 152.25 L 99.75 156.25 L 103.75 156.25 L 103.75 159.75 L 99.75 159.75 L 99.75 160.25 L 108.25 160.25 L 108.25 159.75 L 104.25 159.75 L 104.25 155.75 L 100.25 155.75 L 100.25 144.25 L 107.75 144.25 L 107.75 148.25 L 108.25 148.25 L 108.25 143.75 L 99.75 143.75 L 99.75 147.75 L 88.25 147.75 L 88.25 140.25 L 92.25 140.25 L 92.25 128.25 L 107.75 128.25 L 107.75 131.75 L 99.75 131.75 L 99.75 136.25 L 100.25 136.25 L 100.25 132.25 L 108.25 132.25 L 108.25 128.25 L 119.75 128.25 L 119.75 139.75 L 116.25 139.75 L 116.25 131.75 L 115.75 131.75 L 115.75 140.25 L 119.75 140.25 L 119.75 147.75 L 115.75 147.75 L 115.75 148.25 L 119.75 148.25 L 119.75 151.75 L 112.25 151.75 L 112.25 144.25 L 116.25 144.25 L 116.25 143.75 L 112.25 143.75 L 112.25 131.75 L 111.75 131.75 L 111.75 135.75 L 103.75 135.75 L 103.75 139.75 L 96.25 139.75 L 96.25 131.75 L 95.75 131.75 L 95.75 143.75 L 91.75 143.75 L 91.75 144.25 L 96.25 144.25 L 96.25 140.25 L 108.25 140.25 L 108.25 139.75 L 104.25 139.75 L 104.25 136.25 L 111.75 136.25 L 111.75 151.75 L 104.25 151.75 L 104.25 147.75 L 103.75 147.75 L 103.75 152.25 L 107.75 152.25 L 107.75 156.25 L 111.75 156.25 L 111.75 163.75 L 96.25 163.75 L 96.25 155.75 L 95.75 155.75 L 95.75 159.75 L 84.25 159.75 L 84.25 147.75 L 76.25 147.75 L 76.25 143.75 L 71.75 143.75 L 71.75 155.75 L 67.75 155.75 L 67.75 156.25 L 71.75 156.25 L 71.75 160.25 L 75.75 160.25 L 75.75 164.25 L 83.75 164.25 L 83.75 168.25 L 100.25 168.25 L 100.25 167.75 L 84.25 167.75 L 84.25 163.75 L 76.25 163.75 L 76.25 159.75 L 72.25 159.75 L 72.25 144.25 L 75.75 144.25 L 75.75 148.25 L 79.75 148.25 L 79.75 152.25 L 80.25 152.25 L 80.25 148.25 L 83.75 148.25 L 83.75 159.75 L 80.25 159.75 L 80.25 155.75 L 76.25 155.75 L 76.25 151.75 L 75.75 151.75 L 75.75 156.25 L 79.75 156.25 L 79.75 160.25 L 95.75 160.25 L 95.75 163.75 L 87.75 163.75 L 87.75 164.25 L 107.75 164.25 L 107.75 168.25 L 112.25 168.25 L 112.25 167.75 L 108.25 167.75 L 108.25 164.25 L 112.25 164.25 L 112.25 160.25 L 116.25 160.25 L 116.25 159.75 L 112.25 159.75 L 112.25 155.75 L 108.25 155.75 L 108.25 152.25 L 119.75 152.25 L 119.75 155.75 L 115.75 155.75 L 115.75 156.25 L 119.75 156.25 L 119.75 171.75 L 116.25 171.75 L 116.25 163.75 L 115.75 163.75 L 115.75 171.75 L 104.25 171.75 L 104.25 167.75 L 103.75 167.75 L 103.75 171.75 L 68.25 171.75 L 68.25 167.75 L 55.75 167.75 L 55.75 187.75 L 51.75 187.75 L 51.75 191.75 L 43.75 191.75 L 43.75 192.25 L 51.75 192.25 L 51.75 196.25 L 56.25 196.25 L 56.25 191.75 L 55.75 191.75 L 55.75 195.75 L 52.25 195.75 L 52.25 188.25 L 56.25 188.25 L 56.25 184.25 L 60.25 184.25 L 60.25 179.75 L 59.75 179.75 L 59.75 183.75 L 56.25 183.75 L 56.25 168.25 L 67.75 168.25 L 67.75 171.75 L 63.75 171.75 L 63.75 175.75 L 60.25 175.75 L 60.25 171.75 L 59.75 171.75 L 59.75 176.25 L 63.75 176.25 L 63.75 203.75 L 51.75 203.75 L 51.75 204.25 L 59.75 204.25 L 59.75 211.75 L 55.75 211.75 L 55.75 212.25 L 60.25 212.25 L 60.25 204.25 L 63.75 204.25 L 63.75 219.75 L 60.25 219.75 L 60.25 215.75 L 39.75 215.75 L 39.75 224.25 L 43.75 224.25 L 43.75 228.25 L 44.25 228.25 L 44.25 219.75 L 43.75 219.75 L 43.75 223.75 L 40.25 223.75 L 40.25 216.25 L 51.75 216.25 L 51.75 219.75 L 47.75 219.75 L 47.75 231.75 L 36.25 231.75 L 36.25 228.25 L 40.25 228.25 L 40.25 227.75 L 36.25 227.75 L 36.25 219.75 L 32.25 219.75 L 32.25 216.25 L 36.25 216.25 L 36.25 212.25 L 48.25 212.25 L 48.25 208.25 L 51.75 208.25 L 51.75 212.25 L 52.25 212.25 L 52.25 208.25 L 56.25 208.25 L 56.25 207.75 L 48.25 207.75 L 48.25 200.25 L 60.25 200.25 L 60.25 187.75 L 59.75 187.75 L 59.75 199.75 L 48.25 199.75 L 48.25 195.75 L 32.25 195.75 L 32.25 192.25 L 40.25 192.25 L 40.25 184.25 L 44.25 184.25 L 44.25 180.25 L 48.25 180.25 L 48.25 179.75 L 44.25 179.75 L 44.25 175.75 L 40.25 175.75 L 40.25 171.75 L 39.75 171.75 L 39.75 176.25 L 43.75 176.25 L 43.75 183.75 L 40.25 183.75 L 40.25 179.75 L 36.25 179.75 L 36.25 168.25 L 48.25 168.25 L 48.25 163.75 L 47.75 163.75 L 47.75 167.75 L 40.25 167.75 L 40.25 164.25 L 44.25 164.25 L 44.25 156.25 L 48.25 156.25 L 48.25 152.25 L 56.25 152.25 L 56.25 147.75 L 52.25 147.75 L 52.25 136.25 L 56.25 136.25 L 56.25 127.75 L 55.75 127.75 L 55.75 135.75 L 48.25 135.75 L 48.25 127.75 L 47.75 127.75 L 47.75 131.75 L 43.75 131.75 L 43.75 132.25 L 47.75 132.25 L 47.75 140.25 L 48.25 140.25 L 48.25 136.25 L 51.75 136.25 L 51.75 148.25 L 55.75 148.25 L 55.75 151.75 L 47.75 151.75 L 47.75 155.75 L 44.25 155.75 L 44.25 151.75 L 36.25 151.75 L 36.25 148.25 L 44.25 148.25 L 44.25 144.25 L 47.75 144.25 L 47.75 148.25 L 48.25 148.25 L 48.25 143.75 L 44.25 143.75 L 44.25 139.75 L 40.25 139.75 L 40.25 136.25 L 44.25 136.25 L 44.25 135.75 L 36.25 135.75 L 36.25 132.25 L 40.25 132.25 L 40.25 128.25 L 44.25 128.25 L 44.25 120.25 L 51.75 120.25 L 51.75 123.75 L 47.75 123.75 L 47.75 124.25 L 51.75 124.25 L 51.75 132.25 L 52.25 132.25 L 52.25 124.25 L 59.75 124.25 L 59.75 139.75 L 55.75 139.75 L 55.75 144.25 L 59.75 144.25 L 59.75 155.75 L 51.75 155.75 L 51.75 159.75 L 47.75 159.75 L 47.75 160.25 L 51.75 160.25 L 51.75 175.75 L 48.25 175.75 L 48.25 171.75 L 43.75 171.75 L 43.75 172.25 L 47.75 172.25 L 47.75 176.25 L 51.75 176.25 L 51.75 183.75 L 47.75 183.75 L 47.75 187.75 L 43.75 187.75 L 43.75 188.25 L 48.25 188.25 L 48.25 184.25 L 52.25 184.25 L 52.25 164.25 L 71.75 164.25 L 71.75 168.25 L 80.25 168.25 L 80.25 167.75 L 72.25 167.75 L 72.25 163.75 L 68.25 163.75 L 68.25 159.75 L 64.25 159.75 L 64.25 152.25 L 68.25 152.25 Z M 92 8.25 L 100.25 8.25 L 100.25 7.75 L 92.25 7.75 L 92.25 3.75 L 91.75 3.75 L 91.75 7.75 L 88.25 7.75 L 88.25 3.75 L 75.75 3.75 L 75.75 4.25 L 79.75 4.25 L 79.75 7.75 L 75.75 7.75 L 75.75 15.75 L 71.75 15.75 L 71.75 16.25 L 75.75 16.25 L 75.75 23.75 L 71.75 23.75 L 71.75 24.25 L 75.75 24.25 L 75.75 31.75 L 71.75 31.75 L 71.75 32.25 L 76.25 32.25 L 76.25 16.25 L 83.75 16.25 L 83.75 19.75 L 79.75 19.75 L 79.75 35.75 L 68.25 35.75 L 68.25 28.25 L 72.25 28.25 L 72.25 27.75 L 68.25 27.75 L 68.25 20.25 L 72.25 20.25 L 72.25 19.75 L 68.25 19.75 L 68.25 11.75 L 55.75 11.75 L 55.75 12.25 L 59.75 12.25 L 59.75 15.75 L 44.25 15.75 L 44.25 8.25 L 48.25 8.25 L 48.25 7.75 L 44.25 7.75 L 44.25 3.75 L 35.75 3.75 L 35.75 4.25 L 39.75 4.25 L 39.75 12.25 L 40.25 12.25 L 40.25 4.25 L 43.75 4.25 L 43.75 15.75 L 36.25 15.75 L 36.25 11.75 L 32.25 11.75 L 32.25 8.25 L 36.25 8.25 L 36.25 7.75 L 24.25 7.75 L 24.25 3.75 L 7.75 3.75 L 7.75 4.25 L 11.75 4.25 L 11.75 11.75 L 8.25 11.75 L 8.25 7.75 L 4.25 7.75 L 4.25 0.25 L 31.75 0.25 L 31.75 3.75 L 27.75 3.75 L 27.75 4.25 L 32.25 4.25 L 32.25 0.25 L 59.75 0.25 L 59.75 4.25 L 60.25 4.25 L 60.25 0.25 L 71.75 0.25 L 71.75 7.75 L 64.25 7.75 L 64.25 4.25 L 68.25 4.25 L 68.25 3.75 L 63.75 3.75 L 63.75 7.75 L 52.25 7.75 L 52.25 4.25 L 56.25 4.25 L 56.25 3.75 L 47.75 3.75 L 47.75 4.25 L 51.75 4.25 L 51.75 11.75 L 47.75 11.75 L 47.75 12.25 L 52.25 12.25 L 52.25 8.25 L 71.75 8.25 L 71.75 12.25 L 72.25 12.25 L 72.25 0.25 L 95.75 0.25 L 95.75 4.25 L 103.75 4.25 L 103.75 11.75 L 84.25 11.75 L 84.25 7.75 L 83.75 7.75 L 83.75 11.75 L 79.75 11.75 L 79.75 12.25 L 87.75 12.25 L 87.75 23.75 L 83.75 23.75 L 83.75 39.75 L 79.75 39.75 L 79.75 40.25 L 87.75 40.25 L 87.75 44.25 L 88.25 44.25 L 88.25 40.25 L 92.25 40.25 L 92.25 32.25 L 103.75 32.25 L 103.75 43.75 L 99.75 43.75 L 99.75 44.25 L 104.25 44.25 L 104.25 40.25 L 116.25 40.25 L 116.25 32.25 L 123.75 32.25 L 123.75 40.25 L 131.75 40.25 L 131.75 43.75 L 127.75 43.75 L 127.75 44.25 L 140.25 44.25 L 140.25 36.25 L 144.25 36.25 L 144.25 32.25 L 152.25 32.25 L 152.25 28.25 L 156.25 28.25 L 156.25 24.25 L 160.25 24.25 L 160.25 23.75 L 156.25 23.75 L 156.25 16.25 L 172.25 16.25 L 172.25 15.75 L 168.25 15.75 L 168.25 8.25 L 184.25 8.25 L 184.25 3.75 L 183.75 3.75 L 183.75 7.75 L 176.25 7.75 L 176.25 3.75 L 171.75 3.75 L 171.75 4.25 L 175.75 4.25 L 175.75 7.75 L 164.25 7.75 L 164.25 3.75 L 155.75 3.75 L 155.75 7.75 L 148.25 7.75 L 148.25 0.25 L 151.75 0.25 L 151.75 4.25 L 152.25 4.25 L 152.25 0.25 L 167.75 0.25 L 167.75 4.25 L 168.25 4.25 L 168.25 0.25 L 179.75 0.25 L 179.75 4.25 L 180.25 4.25 L 180.25 0.25 L 191.75 0.25 L 191.75 11.75 L 188.25 11.75 L 188.25 3.75 L 187.75 3.75 L 187.75 11.75 L 171.75 11.75 L 171.75 12.25 L 175.75 12.25 L 175.75 23.75 L 167.75 23.75 L 167.75 24.25 L 171.75 24.25 L 171.75 27.75 L 167.75 27.75 L 167.75 35.75 L 164.25 35.75 L 164.25 31.75 L 160.25 31.75 L 160.25 28.25 L 164.25 28.25 L 164.25 20.25 L 172.25 20.25 L 172.25 19.75 L 159.75 19.75 L 159.75 20.25 L 163.75 20.25 L 163.75 27.75 L 159.75 27.75 L 159.75 31.75 L 155.75 31.75 L 155.75 35.75 L 147.75 35.75 L 147.75 39.75 L 143.75 39.75 L 143.75 40.25 L 147.75 40.25 L 147.75 44.25 L 152.25 44.25 L 152.25 43.75 L 148.25 43.75 L 148.25 36.25 L 156.25 36.25 L 156.25 32.25 L 163.75 32.25 L 163.75 43.75 L 159.75 43.75 L 159.75 44.25 L 168.25 44.25 L 168.25 43.75 L 164.25 43.75 L 164.25 36.25 L 168.25 36.25 L 168.25 28.25 L 172.25 28.25 L 172.25 24.25 L 176.25 24.25 L 176.25 20.25 L 180.25 20.25 L 180.25 19.75 L 176.25 19.75 L 176.25 12.25 L 196.25 12.25 L 196.25 11.75 L 192.25 11.75 L 192.25 0.25 L 199.75 0.25 L 199.75 3.75 L 195.75 3.75 L 195.75 8.25 L 196.25 8.25 L 196.25 4.25 L 199.75 4.25 L 199.75 15.75 L 179.75 15.75 L 179.75 16.25 L 183.75 16.25 L 183.75 23.75 L 179.75 23.75 L 179.75 27.75 L 175.75 27.75 L 175.75 31.75 L 171.75 31.75 L 171.75 39.75 L 167.75 39.75 L 167.75 40.25 L 171.75 40.25 L 171.75 44.25 L 172.25 44.25 L 172.25 32.25 L 180.25 32.25 L 180.25 31.75 L 176.25 31.75 L 176.25 28.25 L 180.25 28.25 L 180.25 24.25 L 192.25 24.25 L 192.25 19.75 L 187.75 19.75 L 187.75 20.25 L 191.75 20.25 L 191.75 23.75 L 184.25 23.75 L 184.25 16.25 L 199.75 16.25 L 199.75 31.75 L 187.75 31.75 L 187.75 39.75 L 179.75 39.75 L 179.75 40.25 L 183.75 40.25 L 183.75 44.25 L 191.75 44.25 L 191.75 56.25 L 195.75 56.25 L 195.75 60.25 L 196.25 60.25 L 196.25 51.75 L 195.75 51.75 L 195.75 55.75 L 192.25 55.75 L 192.25 44.25 L 196.25 44.25 L 196.25 39.75 L 195.75 39.75 L 195.75 43.75 L 184.25 43.75 L 184.25 40.25 L 188.25 40.25 L 188.25 32.25 L 199.75 32.25 L 199.75 35.75 L 191.75 35.75 L 191.75 40.25 L 192.25 40.25 L 192.25 36.25 L 199.75 36.25 L 199.75 47.75 L 195.75 47.75 L 195.75 48.25 L 199.75 48.25 L 199.75 63.75 L 184.25 63.75 L 184.25 48.25 L 187.75 48.25 L 187.75 60.25 L 192.25 60.25 L 192.25 59.75 L 188.25 59.75 L 188.25 47.75 L 176.25 47.75 L 176.25 44.25 L 180.25 44.25 L 180.25 43.75 L 176.25 43.75 L 176.25 36.25 L 184.25 36.25 L 184.25 28.25 L 196.25 28.25 L 196.25 19.75 L 195.75 19.75 L 195.75 27.75 L 183.75 27.75 L 183.75 35.75 L 175.75 35.75 L 175.75 47.75 L 156.25 47.75 L 156.25 40.25 L 160.25 40.25 L 160.25 35.75 L 159.75 35.75 L 159.75 39.75 L 151.75 39.75 L 151.75 40.25 L 155.75 40.25 L 155.75 47.75 L 144.25 47.75 L 144.25 43.75 L 143.75 43.75 L 143.75 47.75 L 124.25 47.75 L 124.25 43.75 L 120.25 43.75 L 120.25 35.75 L 119.75 35.75 L 119.75 43.75 L 107.75 43.75 L 107.75 44.25 L 123.75 44.25 L 123.75 47.75 L 96.25 47.75 L 96.25 40.25 L 100.25 40.25 L 100.25 35.75 L 95.75 35.75 L 95.75 36.25 L 99.75 36.25 L 99.75 39.75 L 95.75 39.75 L 95.75 43.75 L 91.75 43.75 L 91.75 44.25 L 95.75 44.25 L 95.75 47.75 L 84.25 47.75 L 84.25 43.75 L 79.75 43.75 L 79.75 44.25 L 83.75 44.25 L 83.75 47.75 L 76.25 47.75 L 76.25 36.25 L 80.25 36.25 L 80.25 20.25 L 84.25 20.25 L 84.25 15.75 L 76.25 15.75 L 76.25 8.25 L 80.25 8.25 L 80.25 4.25 L 87.75 4.25 L 87.75 8.25 Z M 124.25 28 L 124.25 27.75 L 123.75 27.75 L 123.75 31.75 L 115.75 31.75 L 115.75 39.75 L 108.25 39.75 L 108.25 35.75 L 107.75 35.75 L 107.75 39.75 L 104.25 39.75 L 104.25 23.75 L 100.25 23.75 L 100.25 16.25 L 108.25 16.25 L 108.25 11.75 L 107.75 11.75 L 107.75 15.75 L 99.75 15.75 L 99.75 23.75 L 91.75 23.75 L 91.75 24.25 L 95.75 24.25 L 95.75 28.25 L 96.25 28.25 L 96.25 24.25 L 103.75 24.25 L 103.75 31.75 L 100.25 31.75 L 100.25 27.75 L 99.75 27.75 L 99.75 31.75 L 91.75 31.75 L 91.75 35.75 L 87.75 35.75 L 87.75 36.25 L 91.75 36.25 L 91.75 39.75 L 84.25 39.75 L 84.25 24.25 L 87.75 24.25 L 87.75 32.25 L 88.25 32.25 L 88.25 28.25 L 92.25 28.25 L 92.25 27.75 L 88.25 27.75 L 88.25 12.25 L 95.75 12.25 L 95.75 19.75 L 92.25 19.75 L 92.25 15.75 L 91.75 15.75 L 91.75 20.25 L 96.25 20.25 L 96.25 12.25 L 104.25 12.25 L 104.25 4.25 L 107.75 4.25 L 107.75 8.25 L 111.75 8.25 L 111.75 24.25 L 112.25 24.25 L 112.25 16.25 L 115.75 16.25 L 115.75 20.25 L 131.75 20.25 L 131.75 27.75 L 128.25 27.75 L 128.25 23.75 L 119.75 23.75 L 119.75 27.75 L 116.25 27.75 L 116.25 23.75 L 115.75 23.75 L 115.75 27.75 L 111.75 27.75 L 111.75 31.75 L 108.25 31.75 L 108.25 19.75 L 103.75 19.75 L 103.75 20.25 L 107.75 20.25 L 107.75 32.25 L 111.75 32.25 L 111.75 36.25 L 112.25 36.25 L 112.25 28.25 L 120.25 28.25 L 120.25 24.25 L 127.75 24.25 L 127.75 28.25 L 131.75 28.25 L 131.75 35.75 L 127.75 35.75 L 127.75 36.25 L 135.75 36.25 L 135.75 40.25 L 136.25 40.25 L 136.25 35.75 L 132.25 35.75 L 132.25 19.75 L 116.25 19.75 L 116.25 15.75 L 112.25 15.75 L 112.25 8.25 L 116.25 8.25 L 116.25 7.75 L 108.25 7.75 L 108.25 3.75 L 96.25 3.75 L 96.25 0.25 L 111.75 0.25 L 111.75 4.25 L 119.75 4.25 L 119.75 11.75 L 115.75 11.75 L 115.75 12.25 L 119.75 12.25 L 119.75 16.25 L 135.75 16.25 L 135.75 32.25 L 136.25 32.25 L 136.25 20.25 L 140.25 20.25 L 140.25 19.75 L 136.25 19.75 L 136.25 15.75 L 132.25 15.75 L 132.25 11.75 L 127.75 11.75 L 127.75 12.25 L 131.75 12.25 L 131.75 15.75 L 120.25 15.75 L 120.25 4.25 L 132.25 4.25 L 132.25 3.75 L 112.25 3.75 L 112.25 0.25 L 147.75 0.25 L 147.75 8.25 L 151.75 8.25 L 151.75 16.25 L 152.25 16.25 L 152.25 12.25 L 164.25 12.25 L 164.25 11.75 L 160.25 11.75 L 160.25 7.75 L 159.75 7.75 L 159.75 11.75 L 152.25 11.75 L 152.25 8.25 L 156.25 8.25 L 156.25 4.25 L 163.75 4.25 L 163.75 8.25 L 167.75 8.25 L 167.75 15.75 L 155.75 15.75 L 155.75 23.75 L 151.75 23.75 L 151.75 24.25 L 155.75 24.25 L 155.75 27.75 L 151.75 27.75 L 151.75 31.75 L 144.25 31.75 L 144.25 27.75 L 143.75 27.75 L 143.75 35.75 L 140.25 35.75 L 140.25 24.25 L 144.25 24.25 L 144.25 15.75 L 140.25 15.75 L 140.25 11.75 L 136.25 11.75 L 136.25 4.25 L 143.75 4.25 L 143.75 7.75 L 139.75 7.75 L 139.75 8.25 L 143.75 8.25 L 143.75 12.25 L 147.75 12.25 L 147.75 28.25 L 148.25 28.25 L 148.25 20.25 L 152.25 20.25 L 152.25 19.75 L 148.25 19.75 L 148.25 11.75 L 144.25 11.75 L 144.25 3.75 L 135.75 3.75 L 135.75 7.75 L 123.75 7.75 L 123.75 12.25 L 124.25 12.25 L 124.25 8.25 L 135.75 8.25 L 135.75 12.25 L 139.75 12.25 L 139.75 16.25 L 143.75 16.25 L 143.75 23.75 L 139.75 23.75 L 139.75 43.75 L 132.25 43.75 L 132.25 39.75 L 124.25 39.75 L 124.25 32.25 L 128.25 32.25 L 128.25 31.75 L 124.25 31.75 Z M 124.25 28 "/>
<path fill-rule="evenodd" fill="rgb(80%, 40%, 40%)" fill-opacity="1" d="M 0.949219 0.949219 L 3.050781 0.949219 L 3.050781 3.050781 L 0.949219 3.050781 Z M 0.949219 0.949219 "/>
<path fill-rule="evenodd" fill="rgb(80%, 70%, 40%)" fill-opacity="1" d="M 96.949219 0.949219 L 99.050781 0.949219 L 99.050781 3.050781 L 96.949219 3.050781 Z M 96.949219 0.949219 "/>
<path fill-rule="evenodd" fill="rgb(60%, 80%, 40%)" fill-opacity="1" d="M 196.949219 0.949219 L 199.050781 0.949219 L 199.050781 3.050781 L 196.949219 3.050781 Z M 196.949219 0.949219 "/>
<path fill-rule="evenodd" fill="rgb(40%, 80%, 50%)" fill-opacity="1" d="M 116.949219 148.949219 L 119.050781 148.949219 L 119.050781 151.050781 L 116.949219 151.050781 Z M 116.949219 148.949219 "/>
<path fill-rule="evenodd" fill="rgb(40%, 80%, 80%)" fill-opacity="1" d="M 196.949219 296.949219 L 199.050781 296.949219 L 199.050781 299.050781 L 196.949219 299.050781 Z M 196.949219 296.949219 "/>
<path fill-rule="evenodd" fill="rgb(40%, 50%, 80%)" fill-opacity="1" d="M 96.949219 296.949219 L 99.050781 296.949219 L 99.050781 299.050781 L 96.949219 299.050781 Z M 96.949219 296.949219 "/>
<path fill-rule="evenodd" fill="rgb(60%, 40%, 80%)" fill-opacity="1" d="M 4.949219 288.949219 L 11.050781 288.949219 L 11.050781 295.050781 L 4.949219 295.050781 Z M 4.949219 288.949219 "/>
</svg>
