<?xml version="1.0" encoding="UTF-8"?>
<svg xmlns="http://www.w3.org/2000/svg" xmlns:xlink="http://www.w3.org/1999/xlink" width="50mm" height="40mm" viewBox="0 0 50 40">
<rect x="-5" y="-4" width="60" height="48" fill="rgb(90%, 90%, 90%)" fill-opacity="1"/>
<path fill-rule="evenodd" fill="rgb(20%, 20%, 20%)" fill-opacity="1" d="M 9.144531 7.144531 L 9.144531 2 L 48 2 L 48 5.144531 L 19.429688 5.144531 L 19.429688 9.144531 L 48 9.144531 L 48 19.429688 L 44.855469 19.429688 L 44.855469 12.285156 L 16.285156 12.285156 L 16.285156 5.144531 L 12.285156 5.144531 L 12.285156 23.429688 L 16.285156 23.429688 L 16.285156 16.285156 L 40.855469 16.285156 L 40.855469 23.429688 L 48 23.429688 L 48 33.714844 L 37.714844 33.714844 L 37.714844 30.570312 L 44.855469 30.570312 L 44.855469 26.570312 L 37.714844 26.570312 L 37.714844 19.429688 L 33.714844 19.429688 L 33.714844 33.714844 L 2 33.714844 L 2 16.285156 L 5.144531 16.285156 L 5.144531 30.570312 L 30.570312 30.570312 L 30.570312 19.429688 L 26.570312 19.429688 L 26.570312 26.570312 L 23.429688 26.570312 L 23.429688 19.429688 L 19.429688 19.429688 L 19.429688 26.570312 L 9.144531 26.570312 L 9.144531 12.285156 L 2 12.285156 L 2 2 L 5.144531 2 L 5.144531 9.144531 L 9.144531 9.144531 Z M 9.144531 7.144531 "/>
<path fill-rule="evenodd" fill="rgb(80%, 40%, 40%)" fill-opacity="1" d="M 44.855469 16.285156 L 48 16.285156 L 48 19.429688 L 44.855469 19.429688 Z M 44.855469 16.285156 "/>
<path fill-rule="evenodd" fill="rgb(40%, 80%, 40%)" fill-opacity="1" d="M 2 16.285156 L 5.144531 16.285156 L 5.144531 19.429688 L 2 19.429688 Z M 2 16.285156 "/>
</svg>
