<?xml version="1.0" encoding="UTF-8"?>
<svg xmlns="http://www.w3.org/2000/svg" xmlns:xlink="http://www.w3.org/1999/xlink" width="20mm" height="44mm" viewBox="0 0 20 44">
<rect x="-2" y="-4.4" width="24" height="52.8" fill="rgb(90%, 90%, 90%)" fill-opacity="1"/>
<path fill-rule="nonzero" fill="rgb(20%, 20%, 20%)" fill-opacity="1" d="M 7.148438 28 L 7.148438 28.851562 L 11.148438 28.851562 L 11.148438 31.148438 L 7.148438 31.148438 L 7.148438 32.851562 L 11.148438 32.851562 L 11.148438 36.851562 L 12.851562 36.851562 L 12.851562 27.148438 L 8.851562 27.148438 L 8.851562 12.851562 L 11.148438 12.851562 L 11.148438 16.851562 L 12.851562 16.851562 L 12.851562 11.148438 L 8.851562 11.148438 L 8.851562 4.851562 L 12.851562 4.851562 L 12.851562 3.148438 L 7.148438 3.148438 L 7.148438 23.148438 L 0.851562 23.148438 L 0.851562 20.851562 L 4.851562 20.851562 L 4.851562 0.851562 L 15.148438 0.851562 L 15.148438 7.148438 L 11.148438 7.148438 L 11.148438 8.851562 L 15.148438 8.851562 L 15.148438 19.148438 L 11.148438 19.148438 L 11.148438 20.851562 L 19.148438 20.851562 L 19.148438 23.148438 L 11.148438 23.148438 L 11.148438 24.851562 L 15.148438 24.851562 L 15.148438 39.148438 L 8.851562 39.148438 L 8.851562 35.148438 L 7.148438 35.148438 L 7.148438 40.851562 L 15.148438 40.851562 L 15.148438 43.148438 L 4.851562 43.148438 L 4.851562 24.851562 L 7.148438 24.851562 Z M 7.148438 28 "/>
<path fill-rule="nonzero" fill="rgb(80%, 40%, 40%)" fill-opacity="1" d="M 17.308594 21.308594 L 18.6875 21.308594 L 18.6875 22.6875 L 17.308594 22.6875 Z M 17.308594 21.308594 "/>
<path fill-rule="nonzero" fill="rgb(40%, 80%, 40%)" fill-opacity="1" d="M 1.308594 21.308594 L 2.6875 21.308594 L 2.6875 22.6875 L 1.308594 22.6875 Z M 1.308594 21.308594 "/>
</svg>
