<?xml version="1.0" encoding="UTF-8"?>
<svg xmlns="http://www.w3.org/2000/svg" xmlns:xlink="http://www.w3.org/1999/xlink" width="30mm" height="30mm" viewBox="0 0 30 30">
<rect x="-3" y="-3" width="36" height="36" fill="rgb(90%, 90%, 90%)" fill-opacity="1"/>
<path fill-rule="nonzero" fill="rgb(20%, 20%, 20%)" fill-opacity="1" d="M 4.285156 24.421875 L 5.136719 24.421875 L 5.136719 22.722656 L 0.851562 22.722656 L 0.851562 7.277344 L 3.4375 7.277344 L 3.4375 15.851562 L 5.136719 15.851562 L 5.136719 11.5625 L 12.007812 11.5625 L 12.007812 20.136719 L 13.707031 20.136719 L 13.707031 5.578125 L 12.007812 5.578125 L 12.007812 9.863281 L 5.136719 9.863281 L 5.136719 5.578125 L 0.851562 5.578125 L 0.851562 0.851562 L 7.722656 0.851562 L 7.722656 7.277344 L 9.421875 7.277344 L 9.421875 0.851562 L 16.292969 0.851562 L 16.292969 22.722656 L 9.421875 22.722656 L 9.421875 14.148438 L 7.722656 14.148438 L 7.722656 18.4375 L 3.4375 18.4375 L 3.4375 20.136719 L 7.722656 20.136719 L 7.722656 24.421875 L 17.992188 24.421875 L 17.992188 0.851562 L 29.148438 0.851562 L 29.148438 5.578125 L 24.863281 5.578125 L 24.863281 7.277344 L 29.148438 7.277344 L 29.148438 14.148438 L 24.863281 14.148438 L 24.863281 15.851562 L 29.148438 15.851562 L 29.148438 22.722656 L 24.863281 22.722656 L 24.863281 24.421875 L 29.148438 24.421875 L 29.148438 29.148438 L 22.277344 29.148438 L 22.277344 20.136719 L 26.5625 20.136719 L 26.5625 18.4375 L 22.277344 18.4375 L 22.277344 11.5625 L 26.5625 11.5625 L 26.5625 9.863281 L 22.277344 9.863281 L 22.277344 5.578125 L 20.578125 5.578125 L 20.578125 29.148438 L 0.851562 29.148438 L 0.851562 24.421875 Z M 4.285156 24.421875 "/>
<path fill-rule="nonzero" fill="rgb(80%, 40%, 40%)" fill-opacity="1" d="M 1.367188 1.367188 L 2.917969 1.367188 L 2.917969 5.0625 L 1.367188 5.0625 Z M 1.367188 1.367188 "/>
<path fill-rule="nonzero" fill="rgb(40%, 80%, 40%)" fill-opacity="1" d="M 27.082031 24.9375 L 28.632812 24.9375 L 28.632812 28.632812 L 27.082031 28.632812 Z M 27.082031 24.9375 "/>
</svg>
