<?xml version="1.0" encoding="UTF-8"?>
<svg xmlns="http://www.w3.org/2000/svg" xmlns:xlink="http://www.w3.org/1999/xlink" width="42mm" height="40mm" viewBox="0 0 42 40">
<rect x="-4.2" y="-4" width="50.4" height="48" fill="rgb(90%, 90%, 90%)" fill-opacity="1"/>
<path fill-rule="nonzero" fill="rgb(20%, 20%, 20%)" fill-opacity="1" d="M 24.070312 13.332031 L 24.070312 12.484375 L 17.929688 12.484375 L 17.929688 16.929688 L 13.484375 16.929688 L 13.484375 18.628906 L 17.929688 18.628906 L 17.929688 31.960938 L 22.371094 31.960938 L 22.371094 39.148438 L 15.183594 39.148438 L 15.183594 36.40625 L 19.628906 36.40625 L 19.628906 34.707031 L 15.183594 34.707031 L 15.183594 30.261719 L 10.738281 30.261719 L 10.738281 27.515625 L 15.183594 27.515625 L 15.183594 25.816406 L 9.039062 25.816406 L 9.039062 31.960938 L 13.484375 31.960938 L 13.484375 39.148438 L 0.851562 39.148438 L 0.851562 18.628906 L 4.59375 18.628906 L 4.59375 36.40625 L 10.738281 36.40625 L 10.738281 34.707031 L 6.292969 34.707031 L 6.292969 23.070312 L 15.183594 23.070312 L 15.183594 21.371094 L 6.292969 21.371094 L 6.292969 16.929688 L 0.851562 16.929688 L 0.851562 9.738281 L 6.292969 9.738281 L 6.292969 5.292969 L 15.183594 5.292969 L 15.183594 3.59375 L 4.59375 3.59375 L 4.59375 8.039062 L 0.851562 8.039062 L 0.851562 0.851562 L 26.816406 0.851562 L 26.816406 5.292969 L 31.261719 5.292969 L 31.261719 9.738281 L 32.960938 9.738281 L 32.960938 3.59375 L 28.515625 3.59375 L 28.515625 0.851562 L 41.148438 0.851562 L 41.148438 16.929688 L 31.261719 16.929688 L 31.261719 21.371094 L 26.816406 21.371094 L 26.816406 23.070312 L 31.261719 23.070312 L 31.261719 27.515625 L 35.707031 27.515625 L 35.707031 30.261719 L 28.515625 30.261719 L 28.515625 25.816406 L 24.070312 25.816406 L 24.070312 18.628906 L 28.515625 18.628906 L 28.515625 14.183594 L 37.40625 14.183594 L 37.40625 3.59375 L 35.707031 3.59375 L 35.707031 12.484375 L 28.515625 12.484375 L 28.515625 8.039062 L 19.628906 8.039062 L 19.628906 5.292969 L 24.070312 5.292969 L 24.070312 3.59375 L 17.929688 3.59375 L 17.929688 8.039062 L 13.484375 8.039062 L 13.484375 12.484375 L 10.738281 12.484375 L 10.738281 8.039062 L 9.039062 8.039062 L 9.039062 12.484375 L 4.59375 12.484375 L 4.59375 14.183594 L 9.039062 14.183594 L 9.039062 18.628906 L 10.738281 18.628906 L 10.738281 14.183594 L 15.183594 14.183594 L 15.183594 9.738281 L 26.816406 9.738281 L 26.816406 16.929688 L 22.371094 16.929688 L 22.371094 27.515625 L 26.816406 27.515625 L 26.816406 36.40625 L 28.515625 36.40625 L 28.515625 31.960938 L 37.40625 31.960938 L 37.40625 25.816406 L 32.960938 25.816406 L 32.960938 18.628906 L 41.148438 18.628906 L 41.148438 21.371094 L 35.707031 21.371094 L 35.707031 23.070312 L 41.148438 23.070312 L 41.148438 34.707031 L 31.261719 34.707031 L 31.261719 36.40625 L 41.148438 36.40625 L 41.148438 39.148438 L 24.070312 39.148438 L 24.070312 30.261719 L 19.628906 30.261719 L 19.628906 14.183594 L 24.070312 14.183594 Z M 24.070312 13.332031 "/>
<path fill-rule="nonzero" fill="rgb(80%, 40%, 40%)" fill-opacity="1" d="M 37.953125 19.175781 L 40.601562 19.175781 L 40.601562 20.824219 L 37.953125 20.824219 Z M 37.953125 19.175781 "/>
<path fill-rule="nonzero" fill="rgb(40%, 80%, 40%)" fill-opacity="1" d="M 1.398438 19.175781 L 4.046875 19.175781 L 4.046875 20.824219 L 1.398438 20.824219 Z M 1.398438 19.175781 "/>
</svg>
