<?xml version="1.0" encoding="UTF-8"?>
<svg xmlns="http://www.w3.org/2000/svg" xmlns:xlink="http://www.w3.org/1999/xlink" width="60mm" height="60mm" viewBox="0 0 60 60">
<rect x="-6" y="-6" width="72" height="72" fill="rgb(90%, 90%, 90%)" fill-opacity="1"/>
<path fill-rule="evenodd" fill="rgb(20%, 20%, 20%)" fill-opacity="1" d="M 4 13.5 L 5.5 13.5 L 5.5 10.5 L 1.5 10.5 L 1.5 1.5 L 2.5 1.5 L 2.5 5.5 L 5.5 5.5 L 5.5 1.5 L 18.5 1.5 L 18.5 6.5 L 14.5 6.5 L 14.5 13.5 L 18.5 13.5 L 18.5 17.5 L 42.5 17.5 L 42.5 21.5 L 57.5 21.5 L 57.5 6.5 L 50.5 6.5 L 50.5 9.5 L 54.5 9.5 L 54.5 14.5 L 46.5 14.5 L 46.5 17.5 L 54.5 17.5 L 54.5 18.5 L 45.5 18.5 L 45.5 2.5 L 42.5 2.5 L 42.5 14.5 L 21.5 14.5 L 21.5 13.5 L 41.5 13.5 L 41.5 10.5 L 17.5 10.5 L 17.5 9.5 L 41.5 9.5 L 41.5 6.5 L 21.5 6.5 L 21.5 5.5 L 41.5 5.5 L 41.5 2.5 L 21.5 2.5 L 21.5 1.5 L 58.5 1.5 L 58.5 2.5 L 46.5 2.5 L 46.5 13.5 L 53.5 13.5 L 53.5 10.5 L 49.5 10.5 L 49.5 5.5 L 58.5 5.5 L 58.5 26.5 L 57.5 26.5 L 57.5 22.5 L 21.5 22.5 L 21.5 21.5 L 41.5 21.5 L 41.5 18.5 L 13.5 18.5 L 13.5 17.5 L 17.5 17.5 L 17.5 14.5 L 13.5 14.5 L 13.5 5.5 L 17.5 5.5 L 17.5 2.5 L 10.5 2.5 L 10.5 18.5 L 2.5 18.5 L 2.5 25.5 L 5.5 25.5 L 5.5 21.5 L 18.5 21.5 L 18.5 25.5 L 42.5 25.5 L 42.5 30.5 L 18.5 30.5 L 18.5 33.5 L 38.5 33.5 L 38.5 34.5 L 2.5 34.5 L 2.5 49.5 L 5.5 49.5 L 5.5 37.5 L 38.5 37.5 L 38.5 38.5 L 14.5 38.5 L 14.5 50.5 L 13.5 50.5 L 13.5 38.5 L 10.5 38.5 L 10.5 57.5 L 13.5 57.5 L 13.5 53.5 L 17.5 53.5 L 17.5 49.5 L 49.5 49.5 L 49.5 46.5 L 17.5 46.5 L 17.5 41.5 L 49.5 41.5 L 49.5 38.5 L 41.5 38.5 L 41.5 33.5 L 49.5 33.5 L 49.5 30.5 L 45.5 30.5 L 45.5 25.5 L 54.5 25.5 L 54.5 33.5 L 57.5 33.5 L 57.5 29.5 L 58.5 29.5 L 58.5 34.5 L 53.5 34.5 L 53.5 26.5 L 46.5 26.5 L 46.5 29.5 L 50.5 29.5 L 50.5 34.5 L 42.5 34.5 L 42.5 37.5 L 50.5 37.5 L 50.5 42.5 L 18.5 42.5 L 18.5 45.5 L 50.5 45.5 L 50.5 50.5 L 18.5 50.5 L 18.5 54.5 L 14.5 54.5 L 14.5 57.5 L 41.5 57.5 L 41.5 54.5 L 21.5 54.5 L 21.5 53.5 L 46.5 53.5 L 46.5 57.5 L 53.5 57.5 L 53.5 54.5 L 49.5 54.5 L 49.5 53.5 L 53.5 53.5 L 53.5 49.5 L 57.5 49.5 L 57.5 42.5 L 54.5 42.5 L 54.5 46.5 L 53.5 46.5 L 53.5 37.5 L 58.5 37.5 L 58.5 38.5 L 54.5 38.5 L 54.5 41.5 L 58.5 41.5 L 58.5 58.5 L 57.5 58.5 L 57.5 50.5 L 54.5 50.5 L 54.5 58.5 L 45.5 58.5 L 45.5 54.5 L 42.5 54.5 L 42.5 58.5 L 9.5 58.5 L 9.5 38.5 L 6.5 38.5 L 6.5 50.5 L 2.5 50.5 L 2.5 57.5 L 5.5 57.5 L 5.5 53.5 L 6.5 53.5 L 6.5 58.5 L 1.5 58.5 L 1.5 33.5 L 9.5 33.5 L 9.5 30.5 L 1.5 30.5 L 1.5 29.5 L 10.5 29.5 L 10.5 33.5 L 17.5 33.5 L 17.5 29.5 L 41.5 29.5 L 41.5 26.5 L 17.5 26.5 L 17.5 22.5 L 6.5 22.5 L 6.5 25.5 L 14.5 25.5 L 14.5 30.5 L 13.5 30.5 L 13.5 26.5 L 1.5 26.5 L 1.5 17.5 L 9.5 17.5 L 9.5 2.5 L 6.5 2.5 L 6.5 6.5 L 2.5 6.5 L 2.5 9.5 L 6.5 9.5 L 6.5 14.5 L 1.5 14.5 L 1.5 13.5 Z M 4 13.5 "/>
<path fill-rule="evenodd" fill="rgb(80%, 40%, 40%)" fill-opacity="1" d="M 57.5 29.5 L 58.5 29.5 L 58.5 30.5 L 57.5 30.5 Z M 57.5 29.5 "/>
<path fill-rule="evenodd" fill="rgb(40%, 80%, 40%)" fill-opacity="1" d="M 1.5 29.5 L 2.5 29.5 L 2.5 30.5 L 1.5 30.5 Z M 1.5 29.5 "/>
</svg>
