<?xml version="1.0" encoding="UTF-8"?>
<svg xmlns="http://www.w3.org/2000/svg" xmlns:xlink="http://www.w3.org/1999/xlink" width="60mm" height="60mm" viewBox="0 0 60 60">
<rect x="-6" y="-6" width="72" height="72" fill="rgb(90%, 90%, 90%)" fill-opacity="1"/>
<path fill-rule="evenodd" fill="rgb(20%, 20%, 20%)" fill-opacity="1" d="M 1.5 52 L 1.5 1.5 L 58.5 1.5 L 58.5 58.5 L 1.5 58.5 Z M 2.5 52 L 2.5 50.5 L 5.5 50.5 L 5.5 53.5 L 2.5 53.5 Z M 4 54.5 L 5.5 54.5 L 5.5 57.5 L 2.5 57.5 L 2.5 54.5 Z M 5.5 32 L 5.5 30.5 L 2.5 30.5 L 2.5 33.5 L 5.5 33.5 Z M 6.5 32 L 6.5 30.5 L 9.5 30.5 L 9.5 33.5 L 6.5 33.5 Z M 8 34.5 L 9.5 34.5 L 9.5 37.5 L 6.5 37.5 L 6.5 34.5 Z M 5.5 36 L 5.5 37.5 L 2.5 37.5 L 2.5 34.5 L 5.5 34.5 Z M 9.5 12 L 9.5 10.5 L 6.5 10.5 L 6.5 13.5 L 9.5 13.5 Z M 10.5 12 L 10.5 10.5 L 13.5 10.5 L 13.5 13.5 L 10.5 13.5 Z M 12 14.5 L 13.5 14.5 L 13.5 17.5 L 10.5 17.5 L 10.5 14.5 Z M 9.5 16 L 9.5 17.5 L 6.5 17.5 L 6.5 14.5 L 9.5 14.5 Z M 13.5 8 L 13.5 6.5 L 10.5 6.5 L 10.5 9.5 L 13.5 9.5 Z M 14.5 8 L 14.5 6.5 L 17.5 6.5 L 17.5 9.5 L 14.5 9.5 Z M 16 10.5 L 17.5 10.5 L 17.5 13.5 L 14.5 13.5 L 14.5 10.5 Z M 17.5 28 L 17.5 26.5 L 14.5 26.5 L 14.5 29.5 L 17.5 29.5 Z M 18.5 28 L 18.5 26.5 L 41.5 26.5 L 41.5 29.5 L 18.5 29.5 Z M 20 30.5 L 41.5 30.5 L 41.5 33.5 L 18.5 33.5 L 18.5 30.5 Z M 17.5 32 L 17.5 33.5 L 14.5 33.5 L 14.5 30.5 L 17.5 30.5 Z M 28 37.5 L 41.5 37.5 L 41.5 34.5 L 18.5 34.5 L 18.5 37.5 Z M 28 38.5 L 41.5 38.5 L 41.5 41.5 L 18.5 41.5 L 18.5 38.5 Z M 42.5 36 L 42.5 34.5 L 45.5 34.5 L 45.5 37.5 L 42.5 37.5 Z M 44 38.5 L 45.5 38.5 L 45.5 41.5 L 42.5 41.5 L 42.5 38.5 Z M 49.5 44 L 49.5 42.5 L 46.5 42.5 L 46.5 45.5 L 49.5 45.5 Z M 50.5 44 L 50.5 42.5 L 53.5 42.5 L 53.5 45.5 L 50.5 45.5 Z M 52 46.5 L 53.5 46.5 L 53.5 49.5 L 50.5 49.5 L 50.5 46.5 Z M 49.5 48 L 49.5 49.5 L 46.5 49.5 L 46.5 46.5 L 49.5 46.5 Z M 57.5 52 L 57.5 50.5 L 54.5 50.5 L 54.5 53.5 L 57.5 53.5 Z M 57.5 56 L 57.5 57.5 L 54.5 57.5 L 54.5 54.5 L 57.5 54.5 Z M 2.5 24 L 2.5 22.5 L 5.5 22.5 L 5.5 25.5 L 2.5 25.5 Z M 4 26.5 L 5.5 26.5 L 5.5 29.5 L 2.5 29.5 L 2.5 26.5 Z M 5.5 44 L 5.5 42.5 L 2.5 42.5 L 2.5 45.5 L 5.5 45.5 Z M 6.5 44 L 6.5 42.5 L 9.5 42.5 L 9.5 45.5 L 6.5 45.5 Z M 8 46.5 L 9.5 46.5 L 9.5 49.5 L 6.5 49.5 L 6.5 46.5 Z M 5.5 48 L 5.5 49.5 L 2.5 49.5 L 2.5 46.5 L 5.5 46.5 Z M 20 2.5 L 41.5 2.5 L 41.5 5.5 L 18.5 5.5 L 18.5 2.5 Z M 17.5 4 L 17.5 5.5 L 14.5 5.5 L 14.5 2.5 L 17.5 2.5 Z M 28 9.5 L 41.5 9.5 L 41.5 6.5 L 18.5 6.5 L 18.5 9.5 Z M 28 10.5 L 41.5 10.5 L 41.5 13.5 L 18.5 13.5 L 18.5 10.5 Z M 42.5 8 L 42.5 6.5 L 45.5 6.5 L 45.5 9.5 L 42.5 9.5 Z M 44 10.5 L 45.5 10.5 L 45.5 13.5 L 42.5 13.5 L 42.5 10.5 Z M 49.5 16 L 49.5 14.5 L 46.5 14.5 L 46.5 17.5 L 49.5 17.5 Z M 50.5 16 L 50.5 14.5 L 53.5 14.5 L 53.5 17.5 L 50.5 17.5 Z M 52 18.5 L 53.5 18.5 L 53.5 21.5 L 50.5 21.5 L 50.5 18.5 Z M 49.5 20 L 49.5 21.5 L 46.5 21.5 L 46.5 18.5 L 49.5 18.5 Z M 57.5 24 L 57.5 22.5 L 54.5 22.5 L 54.5 25.5 L 57.5 25.5 Z M 57.5 28 L 57.5 29.5 L 54.5 29.5 L 54.5 26.5 L 57.5 26.5 Z M 13.5 32 L 13.5 30.5 L 10.5 30.5 L 10.5 33.5 L 13.5 33.5 Z M 16 34.5 L 17.5 34.5 L 17.5 37.5 L 14.5 37.5 L 14.5 34.5 Z M 13.5 36 L 13.5 37.5 L 10.5 37.5 L 10.5 34.5 L 13.5 34.5 Z M 24 42.5 L 41.5 42.5 L 41.5 45.5 L 18.5 45.5 L 18.5 42.5 Z M 32 49.5 L 41.5 49.5 L 41.5 46.5 L 18.5 46.5 L 18.5 49.5 Z M 32 50.5 L 41.5 50.5 L 41.5 53.5 L 18.5 53.5 L 18.5 50.5 Z M 45.5 48 L 45.5 46.5 L 42.5 46.5 L 42.5 49.5 L 45.5 49.5 Z M 48 50.5 L 49.5 50.5 L 49.5 53.5 L 46.5 53.5 L 46.5 50.5 Z M 45.5 52 L 45.5 53.5 L 42.5 53.5 L 42.5 50.5 L 45.5 50.5 Z M 53.5 56 L 53.5 54.5 L 50.5 54.5 L 50.5 57.5 L 53.5 57.5 Z M 24 14.5 L 41.5 14.5 L 41.5 17.5 L 18.5 17.5 L 18.5 14.5 Z M 32 21.5 L 41.5 21.5 L 41.5 18.5 L 18.5 18.5 L 18.5 21.5 Z M 32 22.5 L 41.5 22.5 L 41.5 25.5 L 18.5 25.5 L 18.5 22.5 Z M 45.5 20 L 45.5 18.5 L 42.5 18.5 L 42.5 21.5 L 45.5 21.5 Z M 48 22.5 L 49.5 22.5 L 49.5 25.5 L 46.5 25.5 L 46.5 22.5 Z M 45.5 24 L 45.5 25.5 L 42.5 25.5 L 42.5 22.5 L 45.5 22.5 Z M 53.5 28 L 53.5 26.5 L 50.5 26.5 L 50.5 29.5 L 53.5 29.5 Z M 56 30.5 L 57.5 30.5 L 57.5 33.5 L 54.5 33.5 L 54.5 30.5 Z M 53.5 32 L 53.5 33.5 L 50.5 33.5 L 50.5 30.5 L 53.5 30.5 Z M 13.5 4 L 13.5 5.5 L 10.5 5.5 L 10.5 2.5 L 13.5 2.5 Z M 17.5 44 L 17.5 42.5 L 14.5 42.5 L 14.5 45.5 L 17.5 45.5 Z M 17.5 48 L 17.5 49.5 L 14.5 49.5 L 14.5 46.5 L 17.5 46.5 Z M 28 54.5 L 41.5 54.5 L 41.5 57.5 L 18.5 57.5 L 18.5 54.5 Z M 44 54.5 L 45.5 54.5 L 45.5 57.5 L 42.5 57.5 L 42.5 54.5 Z M 56 2.5 L 57.5 2.5 L 57.5 5.5 L 54.5 5.5 L 54.5 2.5 Z M 53.5 4 L 53.5 5.5 L 50.5 5.5 L 50.5 2.5 L 53.5 2.5 Z M 2.5 40 L 2.5 38.5 L 5.5 38.5 L 5.5 41.5 L 2.5 41.5 Z M 5.5 20 L 5.5 18.5 L 2.5 18.5 L 2.5 21.5 L 5.5 21.5 Z M 6.5 20 L 6.5 18.5 L 9.5 18.5 L 9.5 21.5 L 6.5 21.5 Z M 8 22.5 L 9.5 22.5 L 9.5 25.5 L 6.5 25.5 L 6.5 22.5 Z M 9.5 4 L 9.5 5.5 L 6.5 5.5 L 6.5 2.5 L 9.5 2.5 Z M 17.5 16 L 17.5 14.5 L 14.5 14.5 L 14.5 17.5 L 17.5 17.5 Z M 17.5 20 L 17.5 21.5 L 14.5 21.5 L 14.5 18.5 L 17.5 18.5 Z M 44 26.5 L 45.5 26.5 L 45.5 29.5 L 42.5 29.5 L 42.5 26.5 Z M 49.5 32 L 49.5 30.5 L 46.5 30.5 L 46.5 33.5 L 49.5 33.5 Z M 52 34.5 L 53.5 34.5 L 53.5 37.5 L 50.5 37.5 L 50.5 34.5 Z M 49.5 36 L 49.5 37.5 L 46.5 37.5 L 46.5 34.5 L 49.5 34.5 Z M 57.5 40 L 57.5 38.5 L 54.5 38.5 L 54.5 41.5 L 57.5 41.5 Z M 57.5 44 L 57.5 45.5 L 54.5 45.5 L 54.5 42.5 L 57.5 42.5 Z M 2.5 12 L 2.5 10.5 L 5.5 10.5 L 5.5 13.5 L 2.5 13.5 Z M 4 14.5 L 5.5 14.5 L 5.5 17.5 L 2.5 17.5 L 2.5 14.5 Z M 13.5 48 L 13.5 46.5 L 10.5 46.5 L 10.5 49.5 L 13.5 49.5 Z M 16 50.5 L 17.5 50.5 L 17.5 53.5 L 14.5 53.5 L 14.5 50.5 Z M 13.5 52 L 13.5 53.5 L 10.5 53.5 L 10.5 50.5 L 13.5 50.5 Z M 49.5 4 L 49.5 2.5 L 46.5 2.5 L 46.5 5.5 L 49.5 5.5 Z M 52 6.5 L 53.5 6.5 L 53.5 9.5 L 50.5 9.5 L 50.5 6.5 Z M 49.5 8 L 49.5 9.5 L 46.5 9.5 L 46.5 6.5 L 49.5 6.5 Z M 57.5 12 L 57.5 10.5 L 54.5 10.5 L 54.5 13.5 L 57.5 13.5 Z M 57.5 16 L 57.5 17.5 L 54.5 17.5 L 54.5 14.5 L 57.5 14.5 Z M 5.5 8 L 5.5 6.5 L 2.5 6.5 L 2.5 9.5 L 5.5 9.5 Z M 6.5 8 L 6.5 6.5 L 9.5 6.5 L 9.5 9.5 L 6.5 9.5 Z M 13.5 20 L 13.5 18.5 L 10.5 18.5 L 10.5 21.5 L 13.5 21.5 Z M 16 22.5 L 17.5 22.5 L 17.5 25.5 L 14.5 25.5 L 14.5 22.5 Z M 13.5 24 L 13.5 25.5 L 10.5 25.5 L 10.5 22.5 L 13.5 22.5 Z M 48 38.5 L 49.5 38.5 L 49.5 41.5 L 46.5 41.5 L 46.5 38.5 Z M 56 46.5 L 57.5 46.5 L 57.5 49.5 L 54.5 49.5 L 54.5 46.5 Z M 48 10.5 L 49.5 10.5 L 49.5 13.5 L 46.5 13.5 L 46.5 10.5 Z M 56 18.5 L 57.5 18.5 L 57.5 21.5 L 54.5 21.5 L 54.5 18.5 Z M 44 42.5 L 45.5 42.5 L 45.5 45.5 L 42.5 45.5 L 42.5 42.5 Z M 52 50.5 L 53.5 50.5 L 53.5 53.5 L 50.5 53.5 L 50.5 50.5 Z M 8 50.5 L 9.5 50.5 L 9.5 53.5 L 6.5 53.5 L 6.5 50.5 Z M 44 14.5 L 45.5 14.5 L 45.5 17.5 L 42.5 17.5 L 42.5 14.5 Z M 52 22.5 L 53.5 22.5 L 53.5 25.5 L 50.5 25.5 L 50.5 22.5 Z M 4 2.5 L 5.5 2.5 L 5.5 5.5 L 2.5 5.5 L 2.5 2.5 Z M 9.5 28 L 9.5 26.5 L 6.5 26.5 L 6.5 29.5 L 9.5 29.5 Z M 10.5 28 L 10.5 26.5 L 13.5 26.5 L 13.5 29.5 L 10.5 29.5 Z M 9.5 56 L 9.5 54.5 L 6.5 54.5 L 6.5 57.5 L 9.5 57.5 Z M 10.5 56 L 10.5 54.5 L 13.5 54.5 L 13.5 57.5 L 10.5 57.5 Z M 16 38.5 L 17.5 38.5 L 17.5 41.5 L 14.5 41.5 L 14.5 38.5 Z M 13.5 40 L 13.5 41.5 L 10.5 41.5 L 10.5 38.5 L 13.5 38.5 Z M 48 54.5 L 49.5 54.5 L 49.5 57.5 L 46.5 57.5 L 46.5 54.5 Z M 8 38.5 L 9.5 38.5 L 9.5 41.5 L 6.5 41.5 L 6.5 38.5 Z M 48 26.5 L 49.5 26.5 L 49.5 29.5 L 46.5 29.5 L 46.5 26.5 Z M 56 34.5 L 57.5 34.5 L 57.5 37.5 L 54.5 37.5 L 54.5 34.5 Z M 56 6.5 L 57.5 6.5 L 57.5 9.5 L 54.5 9.5 L 54.5 6.5 Z M 44 30.5 L 45.5 30.5 L 45.5 33.5 L 42.5 33.5 L 42.5 30.5 Z M 52 38.5 L 53.5 38.5 L 53.5 41.5 L 50.5 41.5 L 50.5 38.5 Z M 16 54.5 L 17.5 54.5 L 17.5 57.5 L 14.5 57.5 L 14.5 54.5 Z M 44 2.5 L 45.5 2.5 L 45.5 5.5 L 42.5 5.5 L 42.5 2.5 Z M 52 10.5 L 53.5 10.5 L 53.5 13.5 L 50.5 13.5 L 50.5 10.5 Z M 13.5 44 L 13.5 45.5 L 10.5 45.5 L 10.5 42.5 L 13.5 42.5 Z M 13.5 44 "/>
<path fill-rule="evenodd" fill="rgb(80%, 40%, 40%)" fill-opacity="1" d="M 57.5 29.5 L 58.5 29.5 L 58.5 30.5 L 57.5 30.5 Z M 57.5 29.5 "/>
<path fill-rule="evenodd" fill="rgb(40%, 80%, 40%)" fill-opacity="1" d="M 1.5 29.5 L 2.5 29.5 L 2.5 30.5 L 1.5 30.5 Z M 1.5 29.5 "/>
</svg>
