<?xml version="1.0" encoding="UTF-8"?>
<svg xmlns="http://www.w3.org/2000/svg" xmlns:xlink="http://www.w3.org/1999/xlink" width="55mm" height="55mm" viewBox="0 0 55 55">
<rect x="-5.5" y="-5.5" width="66" height="66" fill="rgb(90%, 90%, 90%)" fill-opacity="1"/>
<path fill-rule="nonzero" fill="rgb(20%, 20%, 20%)" fill-opacity="1" d="M 15 11.5 L 21.5 11.5 L 21.5 8.5 L 16.5 8.5 L 16.5 3.5 L 13.5 3.5 L 13.5 8.5 L 3.5 8.5 L 3.5 11.5 L 8.5 11.5 L 8.5 16.5 L 13.5 16.5 L 13.5 23.5 L 8.5 23.5 L 8.5 36.5 L 11.5 36.5 L 11.5 31.5 L 18.5 31.5 L 18.5 53.5 L 1.5 53.5 L 1.5 51.5 L 16.5 51.5 L 16.5 48.5 L 11.5 48.5 L 11.5 43.5 L 8.5 43.5 L 8.5 48.5 L 1.5 48.5 L 1.5 26.5 L 3.5 26.5 L 3.5 46.5 L 6.5 46.5 L 6.5 41.5 L 13.5 41.5 L 13.5 46.5 L 16.5 46.5 L 16.5 33.5 L 13.5 33.5 L 13.5 38.5 L 6.5 38.5 L 6.5 21.5 L 11.5 21.5 L 11.5 18.5 L 6.5 18.5 L 6.5 13.5 L 3.5 13.5 L 3.5 23.5 L 1.5 23.5 L 1.5 6.5 L 11.5 6.5 L 11.5 3.5 L 1.5 3.5 L 1.5 1.5 L 18.5 1.5 L 18.5 6.5 L 23.5 6.5 L 23.5 13.5 L 18.5 13.5 L 18.5 16.5 L 23.5 16.5 L 23.5 23.5 L 18.5 23.5 L 18.5 26.5 L 31.5 26.5 L 31.5 21.5 L 41.5 21.5 L 41.5 16.5 L 46.5 16.5 L 46.5 8.5 L 41.5 8.5 L 41.5 3.5 L 28.5 3.5 L 28.5 6.5 L 33.5 6.5 L 33.5 13.5 L 28.5 13.5 L 28.5 16.5 L 36.5 16.5 L 36.5 6.5 L 38.5 6.5 L 38.5 11.5 L 43.5 11.5 L 43.5 13.5 L 38.5 13.5 L 38.5 18.5 L 28.5 18.5 L 28.5 23.5 L 26.5 23.5 L 26.5 11.5 L 31.5 11.5 L 31.5 8.5 L 26.5 8.5 L 26.5 3.5 L 21.5 3.5 L 21.5 1.5 L 53.5 1.5 L 53.5 18.5 L 51.5 18.5 L 51.5 3.5 L 43.5 3.5 L 43.5 6.5 L 48.5 6.5 L 48.5 18.5 L 43.5 18.5 L 43.5 28.5 L 38.5 28.5 L 38.5 33.5 L 33.5 33.5 L 33.5 38.5 L 31.5 38.5 L 31.5 33.5 L 28.5 33.5 L 28.5 38.5 L 23.5 38.5 L 23.5 46.5 L 26.5 46.5 L 26.5 41.5 L 36.5 41.5 L 36.5 36.5 L 41.5 36.5 L 41.5 31.5 L 46.5 31.5 L 46.5 21.5 L 53.5 21.5 L 53.5 28.5 L 51.5 28.5 L 51.5 23.5 L 48.5 23.5 L 48.5 33.5 L 43.5 33.5 L 43.5 38.5 L 38.5 38.5 L 38.5 43.5 L 28.5 43.5 L 28.5 48.5 L 23.5 48.5 L 23.5 51.5 L 31.5 51.5 L 31.5 46.5 L 38.5 46.5 L 38.5 51.5 L 41.5 51.5 L 41.5 46.5 L 48.5 46.5 L 48.5 51.5 L 51.5 51.5 L 51.5 38.5 L 48.5 38.5 L 48.5 43.5 L 41.5 43.5 L 41.5 41.5 L 46.5 41.5 L 46.5 36.5 L 51.5 36.5 L 51.5 31.5 L 53.5 31.5 L 53.5 53.5 L 46.5 53.5 L 46.5 48.5 L 43.5 48.5 L 43.5 53.5 L 36.5 53.5 L 36.5 48.5 L 33.5 48.5 L 33.5 53.5 L 21.5 53.5 L 21.5 36.5 L 26.5 36.5 L 26.5 33.5 L 21.5 33.5 L 21.5 31.5 L 36.5 31.5 L 36.5 26.5 L 41.5 26.5 L 41.5 23.5 L 33.5 23.5 L 33.5 28.5 L 11.5 28.5 L 11.5 26.5 L 16.5 26.5 L 16.5 21.5 L 21.5 21.5 L 21.5 18.5 L 16.5 18.5 L 16.5 13.5 L 11.5 13.5 L 11.5 11.5 Z M 15 11.5 "/>
<path fill-rule="nonzero" fill="rgb(80%, 40%, 40%)" fill-opacity="1" d="M 51.5 26.5 L 53.5 26.5 L 53.5 28.5 L 51.5 28.5 Z M 51.5 26.5 "/>
<path fill-rule="nonzero" fill="rgb(40%, 80%, 40%)" fill-opacity="1" d="M 1.5 26.5 L 3.5 26.5 L 3.5 28.5 L 1.5 28.5 Z M 1.5 26.5 "/>
</svg>
