<?xml version="1.0" encoding="UTF-8"?>
<svg xmlns="http://www.w3.org/2000/svg" xmlns:xlink="http://www.w3.org/1999/xlink" width="50mm" height="40mm" viewBox="0 0 50 40">
<rect x="-5" y="-4" width="60" height="48" fill="rgb(90%, 90%, 90%)" fill-opacity="1"/>
<path fill-rule="evenodd" fill="rgb(20%, 20%, 20%)" fill-opacity="1" d="M 9.144531 32 L 9.144531 22 L 2 22 L 2 18 L 12.285156 18 L 12.285156 34 L 23.429688 34 L 23.429688 22 L 19.429688 22 L 19.429688 30 L 16.285156 30 L 16.285156 18 L 30.570312 18 L 30.570312 14 L 2 14 L 2 2 L 19.429688 2 L 19.429688 6 L 5.144531 6 L 5.144531 10 L 23.429688 10 L 23.429688 2 L 48 2 L 48 14 L 40.855469 14 L 40.855469 26 L 44.855469 26 L 44.855469 18 L 48 18 L 48 30 L 37.714844 30 L 37.714844 10 L 44.855469 10 L 44.855469 6 L 26.570312 6 L 26.570312 10 L 33.714844 10 L 33.714844 34 L 48 34 L 48 38 L 30.570312 38 L 30.570312 22 L 26.570312 22 L 26.570312 38 L 2 38 L 2 26 L 5.144531 26 L 5.144531 34 L 9.144531 34 Z M 9.144531 32 "/>
<path fill-rule="evenodd" fill="rgb(80%, 40%, 40%)" fill-opacity="1" d="M 44.855469 18 L 48 18 L 48 22 L 44.855469 22 Z M 44.855469 18 "/>
<path fill-rule="evenodd" fill="rgb(40%, 80%, 40%)" fill-opacity="1" d="M 2 18 L 5.144531 18 L 5.144531 22 L 2 22 Z M 2 18 "/>
</svg>
