<?xml version="1.0" encoding="UTF-8"?>
<svg xmlns="http://www.w3.org/2000/svg" xmlns:xlink="http://www.w3.org/1999/xlink" width="30mm" height="30mm" viewBox="0 0 30 30">
<rect x="-3" y="-3" width="36" height="36" fill="rgb(90%, 90%, 90%)" fill-opacity="1"/>
<path fill-rule="nonzero" fill="rgb(20%, 20%, 20%)" fill-opacity="1" d="M 5 10.851562 L 20.851562 10.851562 L 20.851562 5.851562 L 24.148438 5.851562 L 24.148438 20.851562 L 25.851562 20.851562 L 25.851562 4.148438 L 19.148438 4.148438 L 19.148438 9.148438 L 0.851562 9.148438 L 0.851562 0.851562 L 4.148438 0.851562 L 4.148438 5.851562 L 15.851562 5.851562 L 15.851562 4.148438 L 5.851562 4.148438 L 5.851562 0.851562 L 29.148438 0.851562 L 29.148438 24.148438 L 15.851562 24.148438 L 15.851562 20.851562 L 20.851562 20.851562 L 20.851562 14.148438 L 19.148438 14.148438 L 19.148438 19.148438 L 14.148438 19.148438 L 14.148438 24.148438 L 4.148438 24.148438 L 4.148438 25.851562 L 29.148438 25.851562 L 29.148438 29.148438 L 0.851562 29.148438 L 0.851562 20.851562 L 10.851562 20.851562 L 10.851562 15.851562 L 15.851562 15.851562 L 15.851562 14.148438 L 4.148438 14.148438 L 4.148438 15.851562 L 9.148438 15.851562 L 9.148438 19.148438 L 0.851562 19.148438 L 0.851562 10.851562 Z M 5 10.851562 "/>
<path fill-rule="nonzero" fill="rgb(80%, 40%, 40%)" fill-opacity="1" d="M 1.511719 1.511719 L 3.492188 1.511719 L 3.492188 3.492188 L 1.511719 3.492188 Z M 1.511719 1.511719 "/>
<path fill-rule="nonzero" fill="rgb(40%, 80%, 40%)" fill-opacity="1" d="M 26.511719 26.511719 L 28.492188 26.511719 L 28.492188 28.492188 L 26.511719 28.492188 Z M 26.511719 26.511719 "/>
</svg>
