<?xml version="1.0" encoding="UTF-8"?>
<svg xmlns="http://www.w3.org/2000/svg" xmlns:xlink="http://www.w3.org/1999/xlink" width="160mm" height="160mm" viewBox="0 0 160 160">
<rect x="-16" y="-16" width="192" height="192" fill="rgb(90%, 90%, 90%)" fill-opacity="1"/>
<path fill-rule="nonzero" fill="rgb(20%, 20%, 20%)" fill-opacity="1" d="M 20.363281 89.757812 L 20.363281 82.800781 L 22.566406 82.800781 L 22.566406 92.808594 L 18.664062 92.808594 L 18.664062 94.507812 L 24.265625 94.507812 L 24.265625 81.101562 L 18.664062 81.101562 L 18.664062 88.90625 L 12.558594 88.90625 L 12.558594 81.101562 L 10.855469 81.101562 L 10.855469 85.003906 L 0.851562 85.003906 L 0.851562 74.996094 L 10.855469 74.996094 L 10.855469 78.898438 L 14.757812 78.898438 L 14.757812 86.703125 L 16.460938 86.703125 L 16.460938 78.898438 L 24.265625 78.898438 L 24.265625 77.199219 L 12.558594 77.199219 L 12.558594 67.191406 L 20.363281 67.191406 L 20.363281 65.492188 L 16.460938 65.492188 L 16.460938 59.386719 L 20.363281 59.386719 L 20.363281 55.484375 L 24.265625 55.484375 L 24.265625 51.582031 L 28.167969 51.582031 L 28.167969 34.273438 L 20.363281 34.273438 L 20.363281 28.167969 L 24.265625 28.167969 L 24.265625 26.46875 L 20.363281 26.46875 L 20.363281 14.757812 L 18.664062 14.757812 L 18.664062 18.664062 L 14.757812 18.664062 L 14.757812 30.371094 L 10.855469 30.371094 L 10.855469 35.972656 L 16.460938 35.972656 L 16.460938 34.273438 L 12.558594 34.273438 L 12.558594 32.070312 L 16.460938 32.070312 L 16.460938 20.363281 L 18.664062 20.363281 L 18.664062 35.972656 L 26.46875 35.972656 L 26.46875 45.980469 L 20.363281 45.980469 L 20.363281 42.078125 L 18.664062 42.078125 L 18.664062 51.582031 L 20.363281 51.582031 L 20.363281 47.679688 L 26.46875 47.679688 L 26.46875 49.882812 L 22.566406 49.882812 L 22.566406 53.785156 L 12.558594 53.785156 L 12.558594 49.882812 L 10.855469 49.882812 L 10.855469 63.289062 L 12.558594 63.289062 L 12.558594 55.484375 L 18.664062 55.484375 L 18.664062 57.6875 L 14.757812 57.6875 L 14.757812 65.492188 L 10.855469 65.492188 L 10.855469 73.296875 L 8.65625 73.296875 L 8.65625 43.777344 L 12.558594 43.777344 L 12.558594 42.078125 L 8.65625 42.078125 L 8.65625 39.875 L 14.757812 39.875 L 14.757812 45.980469 L 10.855469 45.980469 L 10.855469 47.679688 L 14.757812 47.679688 L 14.757812 51.582031 L 16.460938 51.582031 L 16.460938 39.875 L 22.566406 39.875 L 22.566406 43.777344 L 24.265625 43.777344 L 24.265625 38.175781 L 8.65625 38.175781 L 8.65625 20.363281 L 10.855469 20.363281 L 10.855469 28.167969 L 12.558594 28.167969 L 12.558594 18.664062 L 8.65625 18.664062 L 8.65625 8.65625 L 18.664062 8.65625 L 18.664062 12.558594 L 24.265625 12.558594 L 24.265625 10.855469 L 20.363281 10.855469 L 20.363281 8.65625 L 30.371094 8.65625 L 30.371094 16.460938 L 38.175781 16.460938 L 38.175781 22.566406 L 34.273438 22.566406 L 34.273438 26.46875 L 30.371094 26.46875 L 30.371094 28.167969 L 35.972656 28.167969 L 35.972656 24.265625 L 45.980469 24.265625 L 45.980469 28.167969 L 47.679688 28.167969 L 47.679688 24.265625 L 53.785156 24.265625 L 53.785156 28.167969 L 63.289062 28.167969 L 63.289062 26.46875 L 55.484375 26.46875 L 55.484375 16.460938 L 59.386719 16.460938 L 59.386719 14.757812 L 55.484375 14.757812 L 55.484375 10.855469 L 49.882812 10.855469 L 49.882812 16.460938 L 51.582031 16.460938 L 51.582031 12.558594 L 53.785156 12.558594 L 53.785156 22.566406 L 43.777344 22.566406 L 43.777344 18.664062 L 42.078125 18.664062 L 42.078125 22.566406 L 39.875 22.566406 L 39.875 10.855469 L 38.175781 10.855469 L 38.175781 14.757812 L 32.070312 14.757812 L 32.070312 8.65625 L 34.273438 8.65625 L 34.273438 12.558594 L 35.972656 12.558594 L 35.972656 8.65625 L 45.980469 8.65625 L 45.980469 14.757812 L 43.777344 14.757812 L 43.777344 10.855469 L 42.078125 10.855469 L 42.078125 16.460938 L 45.980469 16.460938 L 45.980469 20.363281 L 51.582031 20.363281 L 51.582031 18.664062 L 47.679688 18.664062 L 47.679688 8.65625 L 69.394531 8.65625 L 69.394531 14.757812 L 65.492188 14.757812 L 65.492188 16.460938 L 71.09375 16.460938 L 71.09375 8.65625 L 81.101562 8.65625 L 81.101562 12.558594 L 88.90625 12.558594 L 88.90625 20.363281 L 94.507812 20.363281 L 94.507812 18.664062 L 90.605469 18.664062 L 90.605469 12.558594 L 106.214844 12.558594 L 106.214844 10.855469 L 82.800781 10.855469 L 82.800781 8.65625 L 112.320312 8.65625 L 112.320312 16.460938 L 116.222656 16.460938 L 116.222656 20.363281 L 120.125 20.363281 L 120.125 24.265625 L 124.027344 24.265625 L 124.027344 30.371094 L 120.125 30.371094 L 120.125 39.875 L 121.824219 39.875 L 121.824219 32.070312 L 125.726562 32.070312 L 125.726562 10.855469 L 116.222656 10.855469 L 116.222656 12.558594 L 124.027344 12.558594 L 124.027344 22.566406 L 121.824219 22.566406 L 121.824219 18.664062 L 117.921875 18.664062 L 117.921875 16.460938 L 121.824219 16.460938 L 121.824219 14.757812 L 114.019531 14.757812 L 114.019531 8.65625 L 127.929688 8.65625 L 127.929688 39.875 L 139.636719 39.875 L 139.636719 42.078125 L 135.734375 42.078125 L 135.734375 49.882812 L 131.832031 49.882812 L 131.832031 51.582031 L 135.734375 51.582031 L 135.734375 57.6875 L 129.628906 57.6875 L 129.628906 55.484375 L 133.53125 55.484375 L 133.53125 53.785156 L 121.824219 53.785156 L 121.824219 45.980469 L 120.125 45.980469 L 120.125 49.882812 L 114.019531 49.882812 L 114.019531 42.078125 L 102.3125 42.078125 L 102.3125 39.875 L 106.214844 39.875 L 106.214844 35.972656 L 114.019531 35.972656 L 114.019531 26.46875 L 112.320312 26.46875 L 112.320312 34.273438 L 104.515625 34.273438 L 104.515625 38.175781 L 100.613281 38.175781 L 100.613281 42.078125 L 90.605469 42.078125 L 90.605469 39.875 L 94.507812 39.875 L 94.507812 38.175781 L 86.703125 38.175781 L 86.703125 34.273438 L 85.003906 34.273438 L 85.003906 39.875 L 88.90625 39.875 L 88.90625 43.777344 L 112.320312 43.777344 L 112.320312 53.785156 L 88.90625 53.785156 L 88.90625 55.484375 L 108.417969 55.484375 L 108.417969 57.6875 L 85.003906 57.6875 L 85.003906 59.386719 L 108.417969 59.386719 L 108.417969 61.589844 L 88.90625 61.589844 L 88.90625 63.289062 L 112.320312 63.289062 L 112.320312 65.492188 L 85.003906 65.492188 L 85.003906 67.191406 L 108.417969 67.191406 L 108.417969 69.394531 L 78.898438 69.394531 L 78.898438 65.492188 L 77.199219 65.492188 L 77.199219 71.09375 L 81.101562 71.09375 L 81.101562 73.296875 L 74.996094 73.296875 L 74.996094 61.589844 L 67.191406 61.589844 L 67.191406 59.386719 L 74.996094 59.386719 L 74.996094 55.484375 L 78.898438 55.484375 L 78.898438 53.785156 L 74.996094 53.785156 L 74.996094 47.679688 L 77.199219 47.679688 L 77.199219 51.582031 L 81.101562 51.582031 L 81.101562 61.589844 L 78.898438 61.589844 L 78.898438 57.6875 L 77.199219 57.6875 L 77.199219 63.289062 L 81.101562 63.289062 L 81.101562 67.191406 L 82.800781 67.191406 L 82.800781 63.289062 L 86.703125 63.289062 L 86.703125 61.589844 L 82.800781 61.589844 L 82.800781 55.484375 L 86.703125 55.484375 L 86.703125 53.785156 L 82.800781 53.785156 L 82.800781 49.882812 L 78.898438 49.882812 L 78.898438 42.078125 L 77.199219 42.078125 L 77.199219 45.980469 L 73.296875 45.980469 L 73.296875 57.6875 L 65.492188 57.6875 L 65.492188 63.289062 L 73.296875 63.289062 L 73.296875 69.394531 L 69.394531 69.394531 L 69.394531 71.09375 L 73.296875 71.09375 L 73.296875 74.996094 L 81.101562 74.996094 L 81.101562 85.003906 L 77.199219 85.003906 L 77.199219 86.703125 L 82.800781 86.703125 L 82.800781 71.09375 L 110.117188 71.09375 L 110.117188 67.191406 L 114.019531 67.191406 L 114.019531 61.589844 L 110.117188 61.589844 L 110.117188 55.484375 L 114.019531 55.484375 L 114.019531 51.582031 L 120.125 51.582031 L 120.125 55.484375 L 127.929688 55.484375 L 127.929688 59.386719 L 135.734375 59.386719 L 135.734375 65.492188 L 131.832031 65.492188 L 131.832031 67.191406 L 139.636719 67.191406 L 139.636719 71.09375 L 141.335938 71.09375 L 141.335938 65.492188 L 137.433594 65.492188 L 137.433594 43.777344 L 141.335938 43.777344 L 141.335938 28.167969 L 149.144531 28.167969 L 149.144531 26.46875 L 141.335938 26.46875 L 141.335938 20.363281 L 145.242188 20.363281 L 145.242188 18.664062 L 141.335938 18.664062 L 141.335938 8.65625 L 151.34375 8.65625 L 151.34375 18.664062 L 147.441406 18.664062 L 147.441406 20.363281 L 151.34375 20.363281 L 151.34375 22.566406 L 143.539062 22.566406 L 143.539062 24.265625 L 151.34375 24.265625 L 151.34375 42.078125 L 149.144531 42.078125 L 149.144531 30.371094 L 143.539062 30.371094 L 143.539062 32.070312 L 147.441406 32.070312 L 147.441406 43.777344 L 151.34375 43.777344 L 151.34375 65.492188 L 149.144531 65.492188 L 149.144531 57.6875 L 145.242188 57.6875 L 145.242188 51.582031 L 147.441406 51.582031 L 147.441406 55.484375 L 149.144531 55.484375 L 149.144531 49.882812 L 143.539062 49.882812 L 143.539062 59.386719 L 147.441406 59.386719 L 147.441406 67.191406 L 151.34375 67.191406 L 151.34375 73.296875 L 147.441406 73.296875 L 147.441406 77.199219 L 143.539062 77.199219 L 143.539062 78.898438 L 149.144531 78.898438 L 149.144531 74.996094 L 159.148438 74.996094 L 159.148438 85.003906 L 149.144531 85.003906 L 149.144531 81.101562 L 141.335938 81.101562 L 141.335938 74.996094 L 145.242188 74.996094 L 145.242188 71.09375 L 149.144531 71.09375 L 149.144531 69.394531 L 145.242188 69.394531 L 145.242188 61.589844 L 141.335938 61.589844 L 141.335938 47.679688 L 149.144531 47.679688 L 149.144531 45.980469 L 145.242188 45.980469 L 145.242188 34.273438 L 143.539062 34.273438 L 143.539062 45.980469 L 139.636719 45.980469 L 139.636719 63.289062 L 143.539062 63.289062 L 143.539062 73.296875 L 137.433594 73.296875 L 137.433594 69.394531 L 129.628906 69.394531 L 129.628906 63.289062 L 133.53125 63.289062 L 133.53125 61.589844 L 125.726562 61.589844 L 125.726562 57.6875 L 117.921875 57.6875 L 117.921875 53.785156 L 116.222656 53.785156 L 116.222656 57.6875 L 112.320312 57.6875 L 112.320312 59.386719 L 116.222656 59.386719 L 116.222656 69.394531 L 112.320312 69.394531 L 112.320312 73.296875 L 85.003906 73.296875 L 85.003906 88.90625 L 74.996094 88.90625 L 74.996094 82.800781 L 78.898438 82.800781 L 78.898438 77.199219 L 71.09375 77.199219 L 71.09375 73.296875 L 67.191406 73.296875 L 67.191406 67.191406 L 71.09375 67.191406 L 71.09375 65.492188 L 65.492188 65.492188 L 65.492188 69.394531 L 59.386719 69.394531 L 59.386719 65.492188 L 49.882812 65.492188 L 49.882812 69.394531 L 34.273438 69.394531 L 34.273438 74.996094 L 38.175781 74.996094 L 38.175781 85.003906 L 30.371094 85.003906 L 30.371094 90.605469 L 42.078125 90.605469 L 42.078125 100.613281 L 32.070312 100.613281 L 32.070312 96.710938 L 30.371094 96.710938 L 30.371094 100.613281 L 26.46875 100.613281 L 26.46875 104.515625 L 22.566406 104.515625 L 22.566406 106.214844 L 26.46875 106.214844 L 26.46875 110.117188 L 30.371094 110.117188 L 30.371094 120.125 L 24.265625 120.125 L 24.265625 116.222656 L 22.566406 116.222656 L 22.566406 120.125 L 18.664062 120.125 L 18.664062 121.824219 L 26.46875 121.824219 L 26.46875 125.726562 L 30.371094 125.726562 L 30.371094 129.628906 L 34.273438 129.628906 L 34.273438 135.734375 L 30.371094 135.734375 L 30.371094 137.433594 L 34.273438 137.433594 L 34.273438 141.335938 L 38.175781 141.335938 L 38.175781 145.242188 L 45.980469 145.242188 L 45.980469 149.144531 L 47.679688 149.144531 L 47.679688 145.242188 L 51.582031 145.242188 L 51.582031 141.335938 L 55.484375 141.335938 L 55.484375 139.636719 L 51.582031 139.636719 L 51.582031 121.824219 L 55.484375 121.824219 L 55.484375 110.117188 L 59.386719 110.117188 L 59.386719 108.417969 L 51.582031 108.417969 L 51.582031 104.515625 L 47.679688 104.515625 L 47.679688 94.507812 L 51.582031 94.507812 L 51.582031 90.605469 L 69.394531 90.605469 L 69.394531 94.507812 L 74.996094 94.507812 L 74.996094 92.808594 L 71.09375 92.808594 L 71.09375 88.90625 L 67.191406 88.90625 L 67.191406 82.800781 L 71.09375 82.800781 L 71.09375 81.101562 L 63.289062 81.101562 L 63.289062 73.296875 L 49.882812 73.296875 L 49.882812 74.996094 L 53.785156 74.996094 L 53.785156 81.101562 L 49.882812 81.101562 L 49.882812 82.800781 L 57.6875 82.800781 L 57.6875 86.703125 L 63.289062 86.703125 L 63.289062 85.003906 L 59.386719 85.003906 L 59.386719 81.101562 L 55.484375 81.101562 L 55.484375 74.996094 L 61.589844 74.996094 L 61.589844 77.199219 L 57.6875 77.199219 L 57.6875 78.898438 L 61.589844 78.898438 L 61.589844 82.800781 L 65.492188 82.800781 L 65.492188 88.90625 L 49.882812 88.90625 L 49.882812 92.808594 L 45.980469 92.808594 L 45.980469 108.417969 L 42.078125 108.417969 L 42.078125 110.117188 L 47.679688 110.117188 L 47.679688 106.214844 L 49.882812 106.214844 L 49.882812 114.019531 L 51.582031 114.019531 L 51.582031 110.117188 L 53.785156 110.117188 L 53.785156 120.125 L 51.582031 120.125 L 51.582031 116.222656 L 49.882812 116.222656 L 49.882812 127.929688 L 45.980469 127.929688 L 45.980469 131.832031 L 42.078125 131.832031 L 42.078125 141.335938 L 47.679688 141.335938 L 47.679688 135.734375 L 45.980469 135.734375 L 45.980469 139.636719 L 43.777344 139.636719 L 43.777344 133.53125 L 47.679688 133.53125 L 47.679688 129.628906 L 49.882812 129.628906 L 49.882812 143.539062 L 39.875 143.539062 L 39.875 139.636719 L 35.972656 139.636719 L 35.972656 129.628906 L 38.175781 129.628906 L 38.175781 137.433594 L 39.875 137.433594 L 39.875 129.628906 L 43.777344 129.628906 L 43.777344 127.929688 L 32.070312 127.929688 L 32.070312 124.027344 L 28.167969 124.027344 L 28.167969 121.824219 L 32.070312 121.824219 L 32.070312 106.214844 L 35.972656 106.214844 L 35.972656 104.515625 L 30.371094 104.515625 L 30.371094 108.417969 L 28.167969 108.417969 L 28.167969 102.3125 L 42.078125 102.3125 L 42.078125 104.515625 L 38.175781 104.515625 L 38.175781 108.417969 L 34.273438 108.417969 L 34.273438 110.117188 L 39.875 110.117188 L 39.875 106.214844 L 43.777344 106.214844 L 43.777344 85.003906 L 42.078125 85.003906 L 42.078125 88.90625 L 32.070312 88.90625 L 32.070312 86.703125 L 39.875 86.703125 L 39.875 78.898438 L 43.777344 78.898438 L 43.777344 73.296875 L 42.078125 73.296875 L 42.078125 77.199219 L 39.875 77.199219 L 39.875 73.296875 L 35.972656 73.296875 L 35.972656 71.09375 L 45.980469 71.09375 L 45.980469 81.101562 L 42.078125 81.101562 L 42.078125 82.800781 L 45.980469 82.800781 L 45.980469 90.605469 L 47.679688 90.605469 L 47.679688 86.703125 L 55.484375 86.703125 L 55.484375 85.003906 L 47.679688 85.003906 L 47.679688 78.898438 L 51.582031 78.898438 L 51.582031 77.199219 L 47.679688 77.199219 L 47.679688 71.09375 L 51.582031 71.09375 L 51.582031 67.191406 L 57.6875 67.191406 L 57.6875 69.394531 L 53.785156 69.394531 L 53.785156 71.09375 L 65.492188 71.09375 L 65.492188 74.996094 L 69.394531 74.996094 L 69.394531 77.199219 L 65.492188 77.199219 L 65.492188 78.898438 L 77.199219 78.898438 L 77.199219 81.101562 L 73.296875 81.101562 L 73.296875 85.003906 L 69.394531 85.003906 L 69.394531 86.703125 L 73.296875 86.703125 L 73.296875 90.605469 L 81.101562 90.605469 L 81.101562 98.410156 L 114.019531 98.410156 L 114.019531 90.605469 L 117.921875 90.605469 L 117.921875 82.800781 L 124.027344 82.800781 L 124.027344 86.703125 L 125.726562 86.703125 L 125.726562 82.800781 L 131.832031 82.800781 L 131.832031 90.605469 L 135.734375 90.605469 L 135.734375 98.410156 L 137.433594 98.410156 L 137.433594 86.703125 L 145.242188 86.703125 L 145.242188 85.003906 L 137.433594 85.003906 L 137.433594 77.199219 L 133.53125 77.199219 L 133.53125 73.296875 L 131.832031 73.296875 L 131.832031 78.898438 L 135.734375 78.898438 L 135.734375 88.90625 L 133.53125 88.90625 L 133.53125 81.101562 L 125.726562 81.101562 L 125.726562 73.296875 L 116.222656 73.296875 L 116.222656 77.199219 L 88.90625 77.199219 L 88.90625 86.703125 L 110.117188 86.703125 L 110.117188 85.003906 L 90.605469 85.003906 L 90.605469 82.800781 L 110.117188 82.800781 L 110.117188 81.101562 L 90.605469 81.101562 L 90.605469 78.898438 L 121.824219 78.898438 L 121.824219 77.199219 L 117.921875 77.199219 L 117.921875 74.996094 L 124.027344 74.996094 L 124.027344 81.101562 L 116.222656 81.101562 L 116.222656 88.90625 L 114.019531 88.90625 L 114.019531 81.101562 L 112.320312 81.101562 L 112.320312 96.710938 L 86.703125 96.710938 L 86.703125 92.808594 L 85.003906 92.808594 L 85.003906 96.710938 L 82.800781 96.710938 L 82.800781 90.605469 L 108.417969 90.605469 L 108.417969 92.808594 L 88.90625 92.808594 L 88.90625 94.507812 L 110.117188 94.507812 L 110.117188 88.90625 L 86.703125 88.90625 L 86.703125 74.996094 L 114.019531 74.996094 L 114.019531 71.09375 L 117.921875 71.09375 L 117.921875 67.191406 L 121.824219 67.191406 L 121.824219 65.492188 L 117.921875 65.492188 L 117.921875 59.386719 L 124.027344 59.386719 L 124.027344 61.589844 L 120.125 61.589844 L 120.125 63.289062 L 127.929688 63.289062 L 127.929688 69.394531 L 125.726562 69.394531 L 125.726562 65.492188 L 124.027344 65.492188 L 124.027344 69.394531 L 120.125 69.394531 L 120.125 71.09375 L 127.929688 71.09375 L 127.929688 78.898438 L 129.628906 78.898438 L 129.628906 71.09375 L 135.734375 71.09375 L 135.734375 74.996094 L 139.636719 74.996094 L 139.636719 82.800781 L 147.441406 82.800781 L 147.441406 86.703125 L 151.34375 86.703125 L 151.34375 96.710938 L 147.441406 96.710938 L 147.441406 100.613281 L 143.539062 100.613281 L 143.539062 108.417969 L 137.433594 108.417969 L 137.433594 104.515625 L 131.832031 104.515625 L 131.832031 108.417969 L 125.726562 108.417969 L 125.726562 104.515625 L 124.027344 104.515625 L 124.027344 110.117188 L 127.929688 110.117188 L 127.929688 116.222656 L 117.921875 116.222656 L 117.921875 112.320312 L 114.019531 112.320312 L 114.019531 106.214844 L 117.921875 106.214844 L 117.921875 104.515625 L 85.003906 104.515625 L 85.003906 120.125 L 78.898438 120.125 L 78.898438 112.320312 L 73.296875 112.320312 L 73.296875 117.921875 L 74.996094 117.921875 L 74.996094 114.019531 L 77.199219 114.019531 L 77.199219 125.726562 L 82.800781 125.726562 L 82.800781 124.027344 L 78.898438 124.027344 L 78.898438 121.824219 L 86.703125 121.824219 L 86.703125 117.921875 L 112.320312 117.921875 L 112.320312 135.734375 L 106.214844 135.734375 L 106.214844 124.027344 L 100.613281 124.027344 L 100.613281 131.832031 L 96.710938 131.832031 L 96.710938 135.734375 L 88.90625 135.734375 L 88.90625 143.539062 L 85.003906 143.539062 L 85.003906 145.242188 L 92.808594 145.242188 L 92.808594 149.144531 L 94.507812 149.144531 L 94.507812 143.539062 L 90.605469 143.539062 L 90.605469 137.433594 L 100.613281 137.433594 L 100.613281 141.335938 L 102.3125 141.335938 L 102.3125 135.734375 L 98.410156 135.734375 L 98.410156 133.53125 L 102.3125 133.53125 L 102.3125 125.726562 L 104.515625 125.726562 L 104.515625 137.433594 L 116.222656 137.433594 L 116.222656 145.242188 L 120.125 145.242188 L 120.125 149.144531 L 121.824219 149.144531 L 121.824219 135.734375 L 120.125 135.734375 L 120.125 143.539062 L 117.921875 143.539062 L 117.921875 135.734375 L 114.019531 135.734375 L 114.019531 129.628906 L 117.921875 129.628906 L 117.921875 127.929688 L 114.019531 127.929688 L 114.019531 121.824219 L 125.726562 121.824219 L 125.726562 120.125 L 114.019531 120.125 L 114.019531 116.222656 L 110.117188 116.222656 L 110.117188 108.417969 L 88.90625 108.417969 L 88.90625 110.117188 L 108.417969 110.117188 L 108.417969 112.320312 L 88.90625 112.320312 L 88.90625 114.019531 L 108.417969 114.019531 L 108.417969 116.222656 L 86.703125 116.222656 L 86.703125 106.214844 L 112.320312 106.214844 L 112.320312 114.019531 L 116.222656 114.019531 L 116.222656 117.921875 L 133.53125 117.921875 L 133.53125 112.320312 L 131.832031 112.320312 L 131.832031 116.222656 L 129.628906 116.222656 L 129.628906 110.117188 L 133.53125 110.117188 L 133.53125 106.214844 L 135.734375 106.214844 L 135.734375 110.117188 L 139.636719 110.117188 L 139.636719 117.921875 L 143.539062 117.921875 L 143.539062 121.824219 L 149.144531 121.824219 L 149.144531 116.222656 L 147.441406 116.222656 L 147.441406 120.125 L 145.242188 120.125 L 145.242188 112.320312 L 143.539062 112.320312 L 143.539062 116.222656 L 141.335938 116.222656 L 141.335938 110.117188 L 145.242188 110.117188 L 145.242188 102.3125 L 149.144531 102.3125 L 149.144531 98.410156 L 151.34375 98.410156 L 151.34375 112.320312 L 149.144531 112.320312 L 149.144531 104.515625 L 147.441406 104.515625 L 147.441406 114.019531 L 151.34375 114.019531 L 151.34375 135.734375 L 147.441406 135.734375 L 147.441406 137.433594 L 151.34375 137.433594 L 151.34375 139.636719 L 147.441406 139.636719 L 147.441406 141.335938 L 151.34375 141.335938 L 151.34375 151.34375 L 141.335938 151.34375 L 141.335938 141.335938 L 145.242188 141.335938 L 145.242188 139.636719 L 141.335938 139.636719 L 141.335938 125.726562 L 147.441406 125.726562 L 147.441406 131.832031 L 145.242188 131.832031 L 145.242188 127.929688 L 143.539062 127.929688 L 143.539062 137.433594 L 145.242188 137.433594 L 145.242188 133.53125 L 149.144531 133.53125 L 149.144531 124.027344 L 141.335938 124.027344 L 141.335938 120.125 L 137.433594 120.125 L 137.433594 112.320312 L 135.734375 112.320312 L 135.734375 120.125 L 127.929688 120.125 L 127.929688 151.34375 L 125.726562 151.34375 L 125.726562 131.832031 L 121.824219 131.832031 L 121.824219 125.726562 L 124.027344 125.726562 L 124.027344 129.628906 L 125.726562 129.628906 L 125.726562 124.027344 L 116.222656 124.027344 L 116.222656 125.726562 L 120.125 125.726562 L 120.125 131.832031 L 116.222656 131.832031 L 116.222656 133.53125 L 124.027344 133.53125 L 124.027344 151.34375 L 98.410156 151.34375 L 98.410156 145.242188 L 110.117188 145.242188 L 110.117188 143.539062 L 106.214844 143.539062 L 106.214844 141.335938 L 112.320312 141.335938 L 112.320312 147.441406 L 100.613281 147.441406 L 100.613281 149.144531 L 117.921875 149.144531 L 117.921875 147.441406 L 114.019531 147.441406 L 114.019531 139.636719 L 104.515625 139.636719 L 104.515625 143.539062 L 98.410156 143.539062 L 98.410156 139.636719 L 92.808594 139.636719 L 92.808594 141.335938 L 96.710938 141.335938 L 96.710938 151.34375 L 59.386719 151.34375 L 59.386719 147.441406 L 57.6875 147.441406 L 57.6875 151.34375 L 51.582031 151.34375 L 51.582031 149.144531 L 55.484375 149.144531 L 55.484375 145.242188 L 59.386719 145.242188 L 59.386719 141.335938 L 69.394531 141.335938 L 69.394531 145.242188 L 71.09375 145.242188 L 71.09375 141.335938 L 78.898438 141.335938 L 78.898438 139.636719 L 74.996094 139.636719 L 74.996094 133.53125 L 82.800781 133.53125 L 82.800781 131.832031 L 69.394531 131.832031 L 69.394531 135.734375 L 61.589844 135.734375 L 61.589844 137.433594 L 71.09375 137.433594 L 71.09375 133.53125 L 73.296875 133.53125 L 73.296875 139.636719 L 59.386719 139.636719 L 59.386719 131.832031 L 57.6875 131.832031 L 57.6875 135.734375 L 55.484375 135.734375 L 55.484375 125.726562 L 67.191406 125.726562 L 67.191406 120.125 L 63.289062 120.125 L 63.289062 116.222656 L 61.589844 116.222656 L 61.589844 121.824219 L 65.492188 121.824219 L 65.492188 124.027344 L 59.386719 124.027344 L 59.386719 114.019531 L 67.191406 114.019531 L 67.191406 104.515625 L 65.492188 104.515625 L 65.492188 112.320312 L 63.289062 112.320312 L 63.289062 104.515625 L 59.386719 104.515625 L 59.386719 100.613281 L 57.6875 100.613281 L 57.6875 104.515625 L 55.484375 104.515625 L 55.484375 100.613281 L 51.582031 100.613281 L 51.582031 98.410156 L 55.484375 98.410156 L 55.484375 94.507812 L 65.492188 94.507812 L 65.492188 98.410156 L 73.296875 98.410156 L 73.296875 102.3125 L 74.996094 102.3125 L 74.996094 98.410156 L 77.199219 98.410156 L 77.199219 106.214844 L 78.898438 106.214844 L 78.898438 102.3125 L 81.101562 102.3125 L 81.101562 108.417969 L 71.09375 108.417969 L 71.09375 106.214844 L 74.996094 106.214844 L 74.996094 104.515625 L 71.09375 104.515625 L 71.09375 100.613281 L 63.289062 100.613281 L 63.289062 96.710938 L 57.6875 96.710938 L 57.6875 98.410156 L 61.589844 98.410156 L 61.589844 102.3125 L 69.394531 102.3125 L 69.394531 116.222656 L 65.492188 116.222656 L 65.492188 117.921875 L 69.394531 117.921875 L 69.394531 121.824219 L 73.296875 121.824219 L 73.296875 127.929688 L 71.09375 127.929688 L 71.09375 124.027344 L 69.394531 124.027344 L 69.394531 127.929688 L 65.492188 127.929688 L 65.492188 131.832031 L 63.289062 131.832031 L 63.289062 127.929688 L 57.6875 127.929688 L 57.6875 129.628906 L 61.589844 129.628906 L 61.589844 133.53125 L 67.191406 133.53125 L 67.191406 129.628906 L 86.703125 129.628906 L 86.703125 125.726562 L 94.507812 125.726562 L 94.507812 124.027344 L 90.605469 124.027344 L 90.605469 121.824219 L 96.710938 121.824219 L 96.710938 127.929688 L 92.808594 127.929688 L 92.808594 131.832031 L 90.605469 131.832031 L 90.605469 127.929688 L 88.90625 127.929688 L 88.90625 131.832031 L 85.003906 131.832031 L 85.003906 139.636719 L 82.800781 139.636719 L 82.800781 135.734375 L 77.199219 135.734375 L 77.199219 137.433594 L 81.101562 137.433594 L 81.101562 147.441406 L 74.996094 147.441406 L 74.996094 145.242188 L 78.898438 145.242188 L 78.898438 143.539062 L 73.296875 143.539062 L 73.296875 147.441406 L 63.289062 147.441406 L 63.289062 145.242188 L 67.191406 145.242188 L 67.191406 143.539062 L 61.589844 143.539062 L 61.589844 149.144531 L 90.605469 149.144531 L 90.605469 147.441406 L 82.800781 147.441406 L 82.800781 141.335938 L 86.703125 141.335938 L 86.703125 133.53125 L 94.507812 133.53125 L 94.507812 129.628906 L 98.410156 129.628906 L 98.410156 121.824219 L 108.417969 121.824219 L 108.417969 133.53125 L 110.117188 133.53125 L 110.117188 120.125 L 88.90625 120.125 L 88.90625 124.027344 L 85.003906 124.027344 L 85.003906 127.929688 L 74.996094 127.929688 L 74.996094 120.125 L 71.09375 120.125 L 71.09375 110.117188 L 81.101562 110.117188 L 81.101562 117.921875 L 82.800781 117.921875 L 82.800781 102.3125 L 117.921875 102.3125 L 117.921875 98.410156 L 121.824219 98.410156 L 121.824219 96.710938 L 117.921875 96.710938 L 117.921875 94.507812 L 125.726562 94.507812 L 125.726562 92.808594 L 121.824219 92.808594 L 121.824219 90.605469 L 127.929688 90.605469 L 127.929688 98.410156 L 129.628906 98.410156 L 129.628906 94.507812 L 131.832031 94.507812 L 131.832031 100.613281 L 125.726562 100.613281 L 125.726562 96.710938 L 124.027344 96.710938 L 124.027344 100.613281 L 120.125 100.613281 L 120.125 108.417969 L 116.222656 108.417969 L 116.222656 110.117188 L 120.125 110.117188 L 120.125 114.019531 L 125.726562 114.019531 L 125.726562 112.320312 L 121.824219 112.320312 L 121.824219 102.3125 L 127.929688 102.3125 L 127.929688 106.214844 L 129.628906 106.214844 L 129.628906 102.3125 L 139.636719 102.3125 L 139.636719 106.214844 L 141.335938 106.214844 L 141.335938 90.605469 L 147.441406 90.605469 L 147.441406 92.808594 L 143.539062 92.808594 L 143.539062 98.410156 L 145.242188 98.410156 L 145.242188 94.507812 L 149.144531 94.507812 L 149.144531 88.90625 L 139.636719 88.90625 L 139.636719 100.613281 L 133.53125 100.613281 L 133.53125 92.808594 L 129.628906 92.808594 L 129.628906 85.003906 L 127.929688 85.003906 L 127.929688 88.90625 L 121.824219 88.90625 L 121.824219 85.003906 L 120.125 85.003906 L 120.125 92.808594 L 116.222656 92.808594 L 116.222656 100.613281 L 78.898438 100.613281 L 78.898438 92.808594 L 77.199219 92.808594 L 77.199219 96.710938 L 67.191406 96.710938 L 67.191406 92.808594 L 53.785156 92.808594 L 53.785156 96.710938 L 49.882812 96.710938 L 49.882812 102.3125 L 53.785156 102.3125 L 53.785156 106.214844 L 61.589844 106.214844 L 61.589844 112.320312 L 57.6875 112.320312 L 57.6875 124.027344 L 53.785156 124.027344 L 53.785156 137.433594 L 57.6875 137.433594 L 57.6875 143.539062 L 53.785156 143.539062 L 53.785156 147.441406 L 49.882812 147.441406 L 49.882812 151.34375 L 24.265625 151.34375 L 24.265625 143.539062 L 22.566406 143.539062 L 22.566406 151.34375 L 20.363281 151.34375 L 20.363281 147.441406 L 18.664062 147.441406 L 18.664062 151.34375 L 8.65625 151.34375 L 8.65625 141.335938 L 18.664062 141.335938 L 18.664062 145.242188 L 20.363281 145.242188 L 20.363281 141.335938 L 30.371094 141.335938 L 30.371094 145.242188 L 34.273438 145.242188 L 34.273438 147.441406 L 28.167969 147.441406 L 28.167969 143.539062 L 26.46875 143.539062 L 26.46875 149.144531 L 43.777344 149.144531 L 43.777344 147.441406 L 35.972656 147.441406 L 35.972656 143.539062 L 32.070312 143.539062 L 32.070312 139.636719 L 28.167969 139.636719 L 28.167969 133.53125 L 32.070312 133.53125 L 32.070312 131.832031 L 28.167969 131.832031 L 28.167969 127.929688 L 24.265625 127.929688 L 24.265625 124.027344 L 16.460938 124.027344 L 16.460938 117.921875 L 20.363281 117.921875 L 20.363281 114.019531 L 26.46875 114.019531 L 26.46875 117.921875 L 28.167969 117.921875 L 28.167969 112.320312 L 24.265625 112.320312 L 24.265625 108.417969 L 20.363281 108.417969 L 20.363281 102.3125 L 24.265625 102.3125 L 24.265625 98.410156 L 28.167969 98.410156 L 28.167969 94.507812 L 38.175781 94.507812 L 38.175781 96.710938 L 34.273438 96.710938 L 34.273438 98.410156 L 39.875 98.410156 L 39.875 92.808594 L 28.167969 92.808594 L 28.167969 73.296875 L 16.460938 73.296875 L 16.460938 71.09375 L 24.265625 71.09375 L 24.265625 67.191406 L 28.167969 67.191406 L 28.167969 65.492188 L 24.265625 65.492188 L 24.265625 59.386719 L 28.167969 59.386719 L 28.167969 55.484375 L 30.371094 55.484375 L 30.371094 61.589844 L 26.46875 61.589844 L 26.46875 63.289062 L 45.980469 63.289062 L 45.980469 65.492188 L 30.371094 65.492188 L 30.371094 69.394531 L 26.46875 69.394531 L 26.46875 71.09375 L 30.371094 71.09375 L 30.371094 78.898438 L 34.273438 78.898438 L 34.273438 81.101562 L 30.371094 81.101562 L 30.371094 82.800781 L 35.972656 82.800781 L 35.972656 77.199219 L 32.070312 77.199219 L 32.070312 67.191406 L 47.679688 67.191406 L 47.679688 63.289062 L 61.589844 63.289062 L 61.589844 67.191406 L 63.289062 67.191406 L 63.289062 55.484375 L 71.09375 55.484375 L 71.09375 43.777344 L 74.996094 43.777344 L 74.996094 39.875 L 81.101562 39.875 L 81.101562 47.679688 L 85.003906 47.679688 L 85.003906 51.582031 L 110.117188 51.582031 L 110.117188 45.980469 L 88.90625 45.980469 L 88.90625 47.679688 L 108.417969 47.679688 L 108.417969 49.882812 L 86.703125 49.882812 L 86.703125 42.078125 L 85.003906 42.078125 L 85.003906 45.980469 L 82.800781 45.980469 L 82.800781 32.070312 L 88.90625 32.070312 L 88.90625 35.972656 L 96.710938 35.972656 L 96.710938 39.875 L 98.410156 39.875 L 98.410156 35.972656 L 102.3125 35.972656 L 102.3125 32.070312 L 110.117188 32.070312 L 110.117188 22.566406 L 108.417969 22.566406 L 108.417969 30.371094 L 94.507812 30.371094 L 94.507812 26.46875 L 88.90625 26.46875 L 88.90625 28.167969 L 92.808594 28.167969 L 92.808594 32.070312 L 100.613281 32.070312 L 100.613281 34.273438 L 90.605469 34.273438 L 90.605469 30.371094 L 74.996094 30.371094 L 74.996094 24.265625 L 82.800781 24.265625 L 82.800781 18.664062 L 77.199219 18.664062 L 77.199219 20.363281 L 81.101562 20.363281 L 81.101562 22.566406 L 73.296875 22.566406 L 73.296875 26.46875 L 69.394531 26.46875 L 69.394531 28.167969 L 73.296875 28.167969 L 73.296875 34.273438 L 65.492188 34.273438 L 65.492188 39.875 L 71.09375 39.875 L 71.09375 38.175781 L 67.191406 38.175781 L 67.191406 35.972656 L 74.996094 35.972656 L 74.996094 32.070312 L 81.101562 32.070312 L 81.101562 38.175781 L 78.898438 38.175781 L 78.898438 34.273438 L 77.199219 34.273438 L 77.199219 38.175781 L 73.296875 38.175781 L 73.296875 42.078125 L 69.394531 42.078125 L 69.394531 45.980469 L 65.492188 45.980469 L 65.492188 51.582031 L 67.191406 51.582031 L 67.191406 47.679688 L 69.394531 47.679688 L 69.394531 53.785156 L 63.289062 53.785156 L 63.289062 43.777344 L 67.191406 43.777344 L 67.191406 42.078125 L 63.289062 42.078125 L 63.289062 32.070312 L 71.09375 32.070312 L 71.09375 30.371094 L 67.191406 30.371094 L 67.191406 22.566406 L 59.386719 22.566406 L 59.386719 20.363281 L 69.394531 20.363281 L 69.394531 24.265625 L 71.09375 24.265625 L 71.09375 20.363281 L 74.996094 20.363281 L 74.996094 12.558594 L 77.199219 12.558594 L 77.199219 16.460938 L 85.003906 16.460938 L 85.003906 26.46875 L 77.199219 26.46875 L 77.199219 28.167969 L 86.703125 28.167969 L 86.703125 24.265625 L 96.710938 24.265625 L 96.710938 28.167969 L 106.214844 28.167969 L 106.214844 20.363281 L 112.320312 20.363281 L 112.320312 24.265625 L 116.222656 24.265625 L 116.222656 38.175781 L 108.417969 38.175781 L 108.417969 39.875 L 116.222656 39.875 L 116.222656 47.679688 L 117.921875 47.679688 L 117.921875 43.777344 L 131.832031 43.777344 L 131.832031 45.980469 L 127.929688 45.980469 L 127.929688 49.882812 L 125.726562 49.882812 L 125.726562 45.980469 L 124.027344 45.980469 L 124.027344 51.582031 L 129.628906 51.582031 L 129.628906 47.679688 L 133.53125 47.679688 L 133.53125 42.078125 L 125.726562 42.078125 L 125.726562 34.273438 L 124.027344 34.273438 L 124.027344 42.078125 L 117.921875 42.078125 L 117.921875 28.167969 L 121.824219 28.167969 L 121.824219 26.46875 L 117.921875 26.46875 L 117.921875 22.566406 L 114.019531 22.566406 L 114.019531 18.664062 L 104.515625 18.664062 L 104.515625 22.566406 L 100.613281 22.566406 L 100.613281 24.265625 L 104.515625 24.265625 L 104.515625 26.46875 L 98.410156 26.46875 L 98.410156 16.460938 L 100.613281 16.460938 L 100.613281 20.363281 L 102.3125 20.363281 L 102.3125 16.460938 L 110.117188 16.460938 L 110.117188 10.855469 L 108.417969 10.855469 L 108.417969 14.757812 L 92.808594 14.757812 L 92.808594 16.460938 L 96.710938 16.460938 L 96.710938 22.566406 L 86.703125 22.566406 L 86.703125 14.757812 L 78.898438 14.757812 L 78.898438 10.855469 L 73.296875 10.855469 L 73.296875 18.664062 L 63.289062 18.664062 L 63.289062 12.558594 L 67.191406 12.558594 L 67.191406 10.855469 L 57.6875 10.855469 L 57.6875 12.558594 L 61.589844 12.558594 L 61.589844 18.664062 L 57.6875 18.664062 L 57.6875 24.265625 L 65.492188 24.265625 L 65.492188 30.371094 L 51.582031 30.371094 L 51.582031 26.46875 L 49.882812 26.46875 L 49.882812 30.371094 L 39.875 30.371094 L 39.875 28.167969 L 43.777344 28.167969 L 43.777344 26.46875 L 38.175781 26.46875 L 38.175781 30.371094 L 28.167969 30.371094 L 28.167969 22.566406 L 24.265625 22.566406 L 24.265625 16.460938 L 26.46875 16.460938 L 26.46875 20.363281 L 30.371094 20.363281 L 30.371094 24.265625 L 32.070312 24.265625 L 32.070312 20.363281 L 35.972656 20.363281 L 35.972656 18.664062 L 28.167969 18.664062 L 28.167969 10.855469 L 26.46875 10.855469 L 26.46875 14.757812 L 22.566406 14.757812 L 22.566406 24.265625 L 26.46875 24.265625 L 26.46875 30.371094 L 22.566406 30.371094 L 22.566406 32.070312 L 30.371094 32.070312 L 30.371094 53.785156 L 26.46875 53.785156 L 26.46875 57.6875 L 22.566406 57.6875 L 22.566406 61.589844 L 18.664062 61.589844 L 18.664062 63.289062 L 22.566406 63.289062 L 22.566406 69.394531 L 14.757812 69.394531 L 14.757812 74.996094 L 26.46875 74.996094 L 26.46875 96.710938 L 16.460938 96.710938 L 16.460938 92.808594 L 14.757812 92.808594 L 14.757812 102.3125 L 16.460938 102.3125 L 16.460938 98.410156 L 22.566406 98.410156 L 22.566406 100.613281 L 18.664062 100.613281 L 18.664062 110.117188 L 22.566406 110.117188 L 22.566406 112.320312 L 10.855469 112.320312 L 10.855469 114.019531 L 18.664062 114.019531 L 18.664062 116.222656 L 14.757812 116.222656 L 14.757812 135.734375 L 10.855469 135.734375 L 10.855469 137.433594 L 16.460938 137.433594 L 16.460938 133.53125 L 22.566406 133.53125 L 22.566406 137.433594 L 24.265625 137.433594 L 24.265625 131.832031 L 16.460938 131.832031 L 16.460938 125.726562 L 22.566406 125.726562 L 22.566406 127.929688 L 18.664062 127.929688 L 18.664062 129.628906 L 26.46875 129.628906 L 26.46875 139.636719 L 20.363281 139.636719 L 20.363281 135.734375 L 18.664062 135.734375 L 18.664062 139.636719 L 8.65625 139.636719 L 8.65625 117.921875 L 10.855469 117.921875 L 10.855469 133.53125 L 12.558594 133.53125 L 12.558594 116.222656 L 8.65625 116.222656 L 8.65625 86.703125 L 10.855469 86.703125 L 10.855469 106.214844 L 14.757812 106.214844 L 14.757812 108.417969 L 10.855469 108.417969 L 10.855469 110.117188 L 16.460938 110.117188 L 16.460938 104.515625 L 12.558594 104.515625 L 12.558594 90.605469 L 20.363281 90.605469 Z M 20.363281 89.757812 "/>
<path fill-rule="nonzero" fill="rgb(70%, 21%, 21%)" fill-opacity="1" d="M 150.84375 76.695312 L 157.449219 76.695312 L 157.449219 83.300781 L 150.84375 83.300781 Z M 150.84375 76.695312 "/>
<path fill-rule="nonzero" fill="rgb(21%, 70%, 21%)" fill-opacity="1" d="M 2.550781 76.695312 L 9.15625 76.695312 L 9.15625 83.300781 L 2.550781 83.300781 Z M 2.550781 76.695312 "/>
</svg>
