<?xml version="1.0" encoding="UTF-8"?>
<svg xmlns="http://www.w3.org/2000/svg" xmlns:xlink="http://www.w3.org/1999/xlink" width="42mm" height="42mm" viewBox="0 0 42 42">
<rect x="-4.2" y="-4.2" width="50.4" height="50.4" fill="rgb(90%, 90%, 90%)" fill-opacity="1"/>
<path fill-rule="nonzero" fill="rgb(20%, 20%, 20%)" fill-opacity="1" d="M 5.148438 30 L 5.148438 30.851562 L 11.148438 30.851562 L 11.148438 36.851562 L 12.851562 36.851562 L 12.851562 30.851562 L 35.148438 30.851562 L 35.148438 36.851562 L 36.851562 36.851562 L 36.851562 11.148438 L 23.148438 11.148438 L 23.148438 18.851562 L 24.851562 18.851562 L 24.851562 12.851562 L 35.148438 12.851562 L 35.148438 29.148438 L 6.851562 29.148438 L 6.851562 18.851562 L 12.851562 18.851562 L 12.851562 17.148438 L 6.851562 17.148438 L 6.851562 5.148438 L 5.148438 5.148438 L 5.148438 23.148438 L 0.851562 23.148438 L 0.851562 0.851562 L 11.148438 0.851562 L 11.148438 12.851562 L 17.148438 12.851562 L 17.148438 23.148438 L 11.148438 23.148438 L 11.148438 24.851562 L 30.851562 24.851562 L 30.851562 17.148438 L 29.148438 17.148438 L 29.148438 23.148438 L 18.851562 23.148438 L 18.851562 6.851562 L 36.851562 6.851562 L 36.851562 5.148438 L 17.148438 5.148438 L 17.148438 11.148438 L 12.851562 11.148438 L 12.851562 0.851562 L 41.148438 0.851562 L 41.148438 41.148438 L 30.851562 41.148438 L 30.851562 35.148438 L 17.148438 35.148438 L 17.148438 36.851562 L 29.148438 36.851562 L 29.148438 41.148438 L 6.851562 41.148438 L 6.851562 35.148438 L 5.148438 35.148438 L 5.148438 41.148438 L 0.851562 41.148438 L 0.851562 24.851562 L 5.148438 24.851562 Z M 5.148438 30 "/>
<path fill-rule="nonzero" fill="rgb(80%, 40%, 40%)" fill-opacity="1" d="M 37.710938 19.710938 L 40.289062 19.710938 L 40.289062 22.289062 L 37.710938 22.289062 Z M 37.710938 19.710938 "/>
<path fill-rule="nonzero" fill="rgb(40%, 80%, 40%)" fill-opacity="1" d="M 1.710938 19.710938 L 4.289062 19.710938 L 4.289062 22.289062 L 1.710938 22.289062 Z M 1.710938 19.710938 "/>
</svg>
