<?xml version="1.0" encoding="UTF-8"?>
<svg xmlns="http://www.w3.org/2000/svg" xmlns:xlink="http://www.w3.org/1999/xlink" width="300mm" height="100mm" viewBox="0 0 300 100">
<rect x="-30" y="-10" width="360" height="120" fill="rgb(90%, 90%, 90%)" fill-opacity="1"/>
<path fill-rule="evenodd" fill="rgb(20%, 20%, 20%)" fill-opacity="1" d="M 48 77.25 L 50.75 77.25 L 50.75 81.25 L 54.75 81.25 L 54.75 97.25 L 57.25 97.25 L 57.25 78.75 L 53.25 78.75 L 53.25 77.25 L 65.25 77.25 L 65.25 74.75 L 61.25 74.75 L 61.25 69.25 L 65.25 69.25 L 65.25 61.25 L 69.25 61.25 L 69.25 58.75 L 65.25 58.75 L 65.25 50.75 L 62.75 50.75 L 62.75 66.75 L 61.25 66.75 L 61.25 50.75 L 57.25 50.75 L 57.25 49.25 L 70.75 49.25 L 70.75 54.75 L 69.25 54.75 L 69.25 50.75 L 66.75 50.75 L 66.75 57.25 L 70.75 57.25 L 70.75 62.75 L 66.75 62.75 L 66.75 70.75 L 62.75 70.75 L 62.75 73.25 L 74.75 73.25 L 74.75 90.75 L 70.75 90.75 L 70.75 97.25 L 77.25 97.25 L 77.25 94.75 L 73.25 94.75 L 73.25 93.25 L 77.25 93.25 L 77.25 81.25 L 82.75 81.25 L 82.75 86.75 L 81.25 86.75 L 81.25 82.75 L 78.75 82.75 L 78.75 98.75 L 61.25 98.75 L 61.25 85.25 L 69.25 85.25 L 69.25 82.75 L 61.25 82.75 L 61.25 81.25 L 69.25 81.25 L 69.25 77.25 L 70.75 77.25 L 70.75 86.75 L 66.75 86.75 L 66.75 94.75 L 65.25 94.75 L 65.25 86.75 L 62.75 86.75 L 62.75 97.25 L 69.25 97.25 L 69.25 89.25 L 73.25 89.25 L 73.25 74.75 L 66.75 74.75 L 66.75 78.75 L 58.75 78.75 L 58.75 98.75 L 53.25 98.75 L 53.25 86.75 L 49.25 86.75 L 49.25 85.25 L 53.25 85.25 L 53.25 82.75 L 49.25 82.75 L 49.25 78.75 L 46.75 78.75 L 46.75 89.25 L 50.75 89.25 L 50.75 98.75 L 33.25 98.75 L 33.25 94.75 L 26.75 94.75 L 26.75 97.25 L 30.75 97.25 L 30.75 98.75 L 21.25 98.75 L 21.25 89.25 L 25.25 89.25 L 25.25 82.75 L 22.75 82.75 L 22.75 86.75 L 21.25 86.75 L 21.25 81.25 L 26.75 81.25 L 26.75 85.25 L 34.75 85.25 L 34.75 89.25 L 37.25 89.25 L 37.25 85.25 L 38.75 85.25 L 38.75 94.75 L 37.25 94.75 L 37.25 90.75 L 29.25 90.75 L 29.25 89.25 L 33.25 89.25 L 33.25 86.75 L 26.75 86.75 L 26.75 90.75 L 22.75 90.75 L 22.75 97.25 L 25.25 97.25 L 25.25 93.25 L 34.75 93.25 L 34.75 97.25 L 41.25 97.25 L 41.25 78.75 L 38.75 78.75 L 38.75 82.75 L 29.25 82.75 L 29.25 78.75 L 1.25 78.75 L 1.25 61.25 L 2.75 61.25 L 2.75 77.25 L 9.25 77.25 L 9.25 74.75 L 5.25 74.75 L 5.25 69.25 L 14.75 69.25 L 14.75 73.25 L 17.25 73.25 L 17.25 62.75 L 14.75 62.75 L 14.75 66.75 L 5.25 66.75 L 5.25 58.75 L 1.25 58.75 L 1.25 41.25 L 6.75 41.25 L 6.75 45.25 L 18.75 45.25 L 18.75 46.75 L 5.25 46.75 L 5.25 42.75 L 2.75 42.75 L 2.75 53.25 L 5.25 53.25 L 5.25 49.25 L 10.75 49.25 L 10.75 57.25 L 13.25 57.25 L 13.25 49.25 L 21.25 49.25 L 21.25 42.75 L 17.25 42.75 L 17.25 38.75 L 14.75 38.75 L 14.75 42.75 L 9.25 42.75 L 9.25 34.75 L 6.75 34.75 L 6.75 38.75 L 1.25 38.75 L 1.25 21.25 L 14.75 21.25 L 14.75 25.25 L 17.25 25.25 L 17.25 21.25 L 18.75 21.25 L 18.75 29.25 L 26.75 29.25 L 26.75 30.75 L 17.25 30.75 L 17.25 26.75 L 9.25 26.75 L 9.25 25.25 L 13.25 25.25 L 13.25 22.75 L 6.75 22.75 L 6.75 29.25 L 14.75 29.25 L 14.75 33.25 L 22.75 33.25 L 22.75 37.25 L 25.25 37.25 L 25.25 33.25 L 29.25 33.25 L 29.25 26.75 L 21.25 26.75 L 21.25 9.25 L 26.75 9.25 L 26.75 13.25 L 33.25 13.25 L 33.25 9.25 L 42.75 9.25 L 42.75 13.25 L 49.25 13.25 L 49.25 10.75 L 45.25 10.75 L 45.25 6.75 L 30.75 6.75 L 30.75 10.75 L 29.25 10.75 L 29.25 6.75 L 25.25 6.75 L 25.25 2.75 L 22.75 2.75 L 22.75 6.75 L 21.25 6.75 L 21.25 1.25 L 58.75 1.25 L 58.75 6.75 L 54.75 6.75 L 54.75 13.25 L 61.25 13.25 L 61.25 10.75 L 57.25 10.75 L 57.25 9.25 L 61.25 9.25 L 61.25 1.25 L 62.75 1.25 L 62.75 14.75 L 54.75 14.75 L 54.75 22.75 L 45.25 22.75 L 45.25 17.25 L 50.75 17.25 L 50.75 18.75 L 46.75 18.75 L 46.75 21.25 L 53.25 21.25 L 53.25 6.75 L 49.25 6.75 L 49.25 5.25 L 57.25 5.25 L 57.25 2.75 L 26.75 2.75 L 26.75 5.25 L 46.75 5.25 L 46.75 9.25 L 50.75 9.25 L 50.75 14.75 L 37.25 14.75 L 37.25 13.25 L 41.25 13.25 L 41.25 10.75 L 34.75 10.75 L 34.75 18.75 L 25.25 18.75 L 25.25 17.25 L 33.25 17.25 L 33.25 14.75 L 25.25 14.75 L 25.25 10.75 L 22.75 10.75 L 22.75 21.25 L 37.25 21.25 L 37.25 17.25 L 42.75 17.25 L 42.75 29.25 L 45.25 29.25 L 45.25 25.25 L 57.25 25.25 L 57.25 17.25 L 62.75 17.25 L 62.75 33.25 L 66.75 33.25 L 66.75 34.75 L 58.75 34.75 L 58.75 38.75 L 57.25 38.75 L 57.25 34.75 L 53.25 34.75 L 53.25 33.25 L 61.25 33.25 L 61.25 30.75 L 50.75 30.75 L 50.75 34.75 L 38.75 34.75 L 38.75 38.75 L 37.25 38.75 L 37.25 30.75 L 34.75 30.75 L 34.75 41.25 L 41.25 41.25 L 41.25 37.25 L 54.75 37.25 L 54.75 41.25 L 61.25 41.25 L 61.25 37.25 L 66.75 37.25 L 66.75 41.25 L 69.25 41.25 L 69.25 30.75 L 65.25 30.75 L 65.25 1.25 L 98.75 1.25 L 98.75 2.75 L 90.75 2.75 L 90.75 6.75 L 89.25 6.75 L 89.25 2.75 L 86.75 2.75 L 86.75 9.25 L 90.75 9.25 L 90.75 13.25 L 94.75 13.25 L 94.75 17.25 L 97.25 17.25 L 97.25 13.25 L 101.25 13.25 L 101.25 10.75 L 93.25 10.75 L 93.25 5.25 L 101.25 5.25 L 101.25 1.25 L 126.75 1.25 L 126.75 5.25 L 129.25 5.25 L 129.25 1.25 L 134.75 1.25 L 134.75 2.75 L 130.75 2.75 L 130.75 6.75 L 125.25 6.75 L 125.25 2.75 L 122.75 2.75 L 122.75 10.75 L 113.25 10.75 L 113.25 9.25 L 121.25 9.25 L 121.25 6.75 L 110.75 6.75 L 110.75 17.25 L 113.25 17.25 L 113.25 13.25 L 125.25 13.25 L 125.25 9.25 L 133.25 9.25 L 133.25 5.25 L 137.25 5.25 L 137.25 1.25 L 166.75 1.25 L 166.75 5.25 L 169.25 5.25 L 169.25 1.25 L 174.75 1.25 L 174.75 9.25 L 181.25 9.25 L 181.25 2.75 L 178.75 2.75 L 178.75 6.75 L 177.25 6.75 L 177.25 1.25 L 198.75 1.25 L 198.75 5.25 L 202.75 5.25 L 202.75 10.75 L 198.75 10.75 L 198.75 13.25 L 206.75 13.25 L 206.75 17.25 L 217.25 17.25 L 217.25 14.75 L 209.25 14.75 L 209.25 9.25 L 225.25 9.25 L 225.25 6.75 L 213.25 6.75 L 213.25 2.75 L 210.75 2.75 L 210.75 6.75 L 206.75 6.75 L 206.75 10.75 L 205.25 10.75 L 205.25 2.75 L 201.25 2.75 L 201.25 1.25 L 206.75 1.25 L 206.75 5.25 L 209.25 5.25 L 209.25 1.25 L 230.75 1.25 L 230.75 5.25 L 237.25 5.25 L 237.25 2.75 L 233.25 2.75 L 233.25 1.25 L 242.75 1.25 L 242.75 9.25 L 249.25 9.25 L 249.25 6.75 L 245.25 6.75 L 245.25 1.25 L 254.75 1.25 L 254.75 14.75 L 237.25 14.75 L 237.25 10.75 L 234.75 10.75 L 234.75 17.25 L 246.75 17.25 L 246.75 21.25 L 250.75 21.25 L 250.75 26.75 L 246.75 26.75 L 246.75 41.25 L 253.25 41.25 L 253.25 38.75 L 249.25 38.75 L 249.25 33.25 L 253.25 33.25 L 253.25 30.75 L 249.25 30.75 L 249.25 29.25 L 262.75 29.25 L 262.75 33.25 L 266.75 33.25 L 266.75 38.75 L 258.75 38.75 L 258.75 41.25 L 269.25 41.25 L 269.25 33.25 L 274.75 33.25 L 274.75 37.25 L 278.75 37.25 L 278.75 46.75 L 274.75 46.75 L 274.75 53.25 L 282.75 53.25 L 282.75 57.25 L 297.25 57.25 L 297.25 42.75 L 293.25 42.75 L 293.25 29.25 L 297.25 29.25 L 297.25 26.75 L 293.25 26.75 L 293.25 22.75 L 290.75 22.75 L 290.75 34.75 L 282.75 34.75 L 282.75 37.25 L 290.75 37.25 L 290.75 42.75 L 286.75 42.75 L 286.75 46.75 L 282.75 46.75 L 282.75 49.25 L 290.75 49.25 L 290.75 53.25 L 293.25 53.25 L 293.25 46.75 L 289.25 46.75 L 289.25 45.25 L 294.75 45.25 L 294.75 54.75 L 285.25 54.75 L 285.25 53.25 L 289.25 53.25 L 289.25 50.75 L 277.25 50.75 L 277.25 49.25 L 281.25 49.25 L 281.25 41.25 L 282.75 41.25 L 282.75 45.25 L 285.25 45.25 L 285.25 41.25 L 289.25 41.25 L 289.25 38.75 L 281.25 38.75 L 281.25 34.75 L 277.25 34.75 L 277.25 29.25 L 281.25 29.25 L 281.25 26.75 L 277.25 26.75 L 277.25 22.75 L 270.75 22.75 L 270.75 25.25 L 274.75 25.25 L 274.75 30.75 L 265.25 30.75 L 265.25 22.75 L 257.25 22.75 L 257.25 18.75 L 254.75 18.75 L 254.75 25.25 L 262.75 25.25 L 262.75 26.75 L 253.25 26.75 L 253.25 18.75 L 249.25 18.75 L 249.25 17.25 L 277.25 17.25 L 277.25 14.75 L 261.25 14.75 L 261.25 10.75 L 258.75 10.75 L 258.75 14.75 L 257.25 14.75 L 257.25 5.25 L 266.75 5.25 L 266.75 9.25 L 273.25 9.25 L 273.25 6.75 L 269.25 6.75 L 269.25 2.75 L 257.25 2.75 L 257.25 1.25 L 278.75 1.25 L 278.75 10.75 L 277.25 10.75 L 277.25 2.75 L 270.75 2.75 L 270.75 5.25 L 274.75 5.25 L 274.75 10.75 L 265.25 10.75 L 265.25 6.75 L 258.75 6.75 L 258.75 9.25 L 262.75 9.25 L 262.75 13.25 L 278.75 13.25 L 278.75 18.75 L 258.75 18.75 L 258.75 21.25 L 266.75 21.25 L 266.75 29.25 L 273.25 29.25 L 273.25 26.75 L 269.25 26.75 L 269.25 21.25 L 286.75 21.25 L 286.75 30.75 L 285.25 30.75 L 285.25 22.75 L 278.75 22.75 L 278.75 25.25 L 282.75 25.25 L 282.75 30.75 L 278.75 30.75 L 278.75 33.25 L 289.25 33.25 L 289.25 21.25 L 298.75 21.25 L 298.75 22.75 L 294.75 22.75 L 294.75 25.25 L 298.75 25.25 L 298.75 38.75 L 297.25 38.75 L 297.25 30.75 L 294.75 30.75 L 294.75 41.25 L 298.75 41.25 L 298.75 62.75 L 290.75 62.75 L 290.75 66.75 L 285.25 66.75 L 285.25 62.75 L 278.75 62.75 L 278.75 65.25 L 282.75 65.25 L 282.75 69.25 L 297.25 69.25 L 297.25 66.75 L 293.25 66.75 L 293.25 65.25 L 298.75 65.25 L 298.75 78.75 L 289.25 78.75 L 289.25 74.75 L 282.75 74.75 L 282.75 77.25 L 286.75 77.25 L 286.75 78.75 L 278.75 78.75 L 278.75 90.75 L 269.25 90.75 L 269.25 86.75 L 265.25 86.75 L 265.25 81.25 L 273.25 81.25 L 273.25 78.75 L 265.25 78.75 L 265.25 65.25 L 269.25 65.25 L 269.25 62.75 L 265.25 62.75 L 265.25 53.25 L 269.25 53.25 L 269.25 50.75 L 262.75 50.75 L 262.75 62.75 L 258.75 62.75 L 258.75 66.75 L 254.75 66.75 L 254.75 70.75 L 245.25 70.75 L 245.25 66.75 L 242.75 66.75 L 242.75 74.75 L 238.75 74.75 L 238.75 78.75 L 233.25 78.75 L 233.25 69.25 L 237.25 69.25 L 237.25 62.75 L 233.25 62.75 L 233.25 54.75 L 230.75 54.75 L 230.75 58.75 L 222.75 58.75 L 222.75 61.25 L 226.75 61.25 L 226.75 66.75 L 217.25 66.75 L 217.25 62.75 L 214.75 62.75 L 214.75 66.75 L 197.25 66.75 L 197.25 57.25 L 202.75 57.25 L 202.75 61.25 L 205.25 61.25 L 205.25 57.25 L 209.25 57.25 L 209.25 54.75 L 205.25 54.75 L 205.25 46.75 L 202.75 46.75 L 202.75 50.75 L 197.25 50.75 L 197.25 46.75 L 189.25 46.75 L 189.25 30.75 L 186.75 30.75 L 186.75 38.75 L 182.75 38.75 L 182.75 46.75 L 178.75 46.75 L 178.75 53.25 L 181.25 53.25 L 181.25 49.25 L 185.25 49.25 L 185.25 41.25 L 186.75 41.25 L 186.75 57.25 L 193.25 57.25 L 193.25 50.75 L 190.75 50.75 L 190.75 54.75 L 189.25 54.75 L 189.25 49.25 L 194.75 49.25 L 194.75 53.25 L 202.75 53.25 L 202.75 54.75 L 194.75 54.75 L 194.75 62.75 L 178.75 62.75 L 178.75 65.25 L 182.75 65.25 L 182.75 69.25 L 186.75 69.25 L 186.75 73.25 L 189.25 73.25 L 189.25 66.75 L 185.25 66.75 L 185.25 65.25 L 194.75 65.25 L 194.75 73.25 L 198.75 73.25 L 198.75 78.75 L 194.75 78.75 L 194.75 93.25 L 197.25 93.25 L 197.25 81.25 L 209.25 81.25 L 209.25 74.75 L 206.75 74.75 L 206.75 78.75 L 201.25 78.75 L 201.25 70.75 L 197.25 70.75 L 197.25 69.25 L 214.75 69.25 L 214.75 73.25 L 217.25 73.25 L 217.25 69.25 L 222.75 69.25 L 222.75 77.25 L 226.75 77.25 L 226.75 81.25 L 229.25 81.25 L 229.25 74.75 L 225.25 74.75 L 225.25 69.25 L 229.25 69.25 L 229.25 61.25 L 230.75 61.25 L 230.75 65.25 L 234.75 65.25 L 234.75 66.75 L 230.75 66.75 L 230.75 70.75 L 226.75 70.75 L 226.75 73.25 L 230.75 73.25 L 230.75 81.25 L 238.75 81.25 L 238.75 86.75 L 221.25 86.75 L 221.25 82.75 L 217.25 82.75 L 217.25 78.75 L 214.75 78.75 L 214.75 89.25 L 217.25 89.25 L 217.25 85.25 L 218.75 85.25 L 218.75 89.25 L 230.75 89.25 L 230.75 93.25 L 238.75 93.25 L 238.75 97.25 L 245.25 97.25 L 245.25 85.25 L 257.25 85.25 L 257.25 81.25 L 261.25 81.25 L 261.25 78.75 L 253.25 78.75 L 253.25 74.75 L 246.75 74.75 L 246.75 77.25 L 250.75 77.25 L 250.75 81.25 L 254.75 81.25 L 254.75 82.75 L 242.75 82.75 L 242.75 94.75 L 241.25 94.75 L 241.25 90.75 L 233.25 90.75 L 233.25 89.25 L 241.25 89.25 L 241.25 77.25 L 242.75 77.25 L 242.75 81.25 L 249.25 81.25 L 249.25 78.75 L 245.25 78.75 L 245.25 73.25 L 257.25 73.25 L 257.25 69.25 L 261.25 69.25 L 261.25 65.25 L 262.75 65.25 L 262.75 74.75 L 261.25 74.75 L 261.25 70.75 L 258.75 70.75 L 258.75 74.75 L 254.75 74.75 L 254.75 77.25 L 262.75 77.25 L 262.75 90.75 L 258.75 90.75 L 258.75 93.25 L 265.25 93.25 L 265.25 89.25 L 266.75 89.25 L 266.75 93.25 L 278.75 93.25 L 278.75 98.75 L 253.25 98.75 L 253.25 94.75 L 250.75 94.75 L 250.75 98.75 L 249.25 98.75 L 249.25 89.25 L 254.75 89.25 L 254.75 90.75 L 250.75 90.75 L 250.75 93.25 L 254.75 93.25 L 254.75 97.25 L 277.25 97.25 L 277.25 94.75 L 257.25 94.75 L 257.25 89.25 L 261.25 89.25 L 261.25 82.75 L 258.75 82.75 L 258.75 86.75 L 246.75 86.75 L 246.75 98.75 L 225.25 98.75 L 225.25 94.75 L 222.75 94.75 L 222.75 98.75 L 217.25 98.75 L 217.25 94.75 L 214.75 94.75 L 214.75 98.75 L 205.25 98.75 L 205.25 93.25 L 209.25 93.25 L 209.25 90.75 L 202.75 90.75 L 202.75 98.75 L 185.25 98.75 L 185.25 94.75 L 181.25 94.75 L 181.25 89.25 L 189.25 89.25 L 189.25 86.75 L 181.25 86.75 L 181.25 81.25 L 185.25 81.25 L 185.25 78.75 L 177.25 78.75 L 177.25 74.75 L 169.25 74.75 L 169.25 69.25 L 173.25 69.25 L 173.25 62.75 L 169.25 62.75 L 169.25 57.25 L 173.25 57.25 L 173.25 50.75 L 170.75 50.75 L 170.75 54.75 L 158.75 54.75 L 158.75 58.75 L 154.75 58.75 L 154.75 66.75 L 150.75 66.75 L 150.75 70.75 L 146.75 70.75 L 146.75 89.25 L 149.25 89.25 L 149.25 81.25 L 158.75 81.25 L 158.75 86.75 L 154.75 86.75 L 154.75 89.25 L 158.75 89.25 L 158.75 97.25 L 161.25 97.25 L 161.25 89.25 L 166.75 89.25 L 166.75 97.25 L 169.25 97.25 L 169.25 89.25 L 173.25 89.25 L 173.25 86.75 L 165.25 86.75 L 165.25 82.75 L 162.75 82.75 L 162.75 86.75 L 161.25 86.75 L 161.25 69.25 L 165.25 69.25 L 165.25 62.75 L 158.75 62.75 L 158.75 65.25 L 162.75 65.25 L 162.75 66.75 L 158.75 66.75 L 158.75 70.75 L 154.75 70.75 L 154.75 73.25 L 158.75 73.25 L 158.75 78.75 L 149.25 78.75 L 149.25 73.25 L 150.75 73.25 L 150.75 77.25 L 157.25 77.25 L 157.25 74.75 L 153.25 74.75 L 153.25 69.25 L 157.25 69.25 L 157.25 61.25 L 161.25 61.25 L 161.25 57.25 L 166.75 57.25 L 166.75 58.75 L 162.75 58.75 L 162.75 61.25 L 166.75 61.25 L 166.75 65.25 L 170.75 65.25 L 170.75 66.75 L 166.75 66.75 L 166.75 77.25 L 174.75 77.25 L 174.75 81.25 L 178.75 81.25 L 178.75 94.75 L 174.75 94.75 L 174.75 97.25 L 182.75 97.25 L 182.75 98.75 L 173.25 98.75 L 173.25 93.25 L 177.25 93.25 L 177.25 82.75 L 169.25 82.75 L 169.25 81.25 L 173.25 81.25 L 173.25 78.75 L 165.25 78.75 L 165.25 70.75 L 162.75 70.75 L 162.75 81.25 L 166.75 81.25 L 166.75 85.25 L 174.75 85.25 L 174.75 90.75 L 170.75 90.75 L 170.75 98.75 L 165.25 98.75 L 165.25 90.75 L 162.75 90.75 L 162.75 98.75 L 149.25 98.75 L 149.25 94.75 L 146.75 94.75 L 146.75 98.75 L 141.25 98.75 L 141.25 94.75 L 138.75 94.75 L 138.75 98.75 L 133.25 98.75 L 133.25 94.75 L 130.75 94.75 L 130.75 98.75 L 125.25 98.75 L 125.25 93.25 L 126.75 93.25 L 126.75 97.25 L 129.25 97.25 L 129.25 93.25 L 134.75 93.25 L 134.75 97.25 L 137.25 97.25 L 137.25 89.25 L 142.75 89.25 L 142.75 90.75 L 138.75 90.75 L 138.75 93.25 L 142.75 93.25 L 142.75 97.25 L 145.25 97.25 L 145.25 93.25 L 154.75 93.25 L 154.75 94.75 L 150.75 94.75 L 150.75 97.25 L 157.25 97.25 L 157.25 90.75 L 153.25 90.75 L 153.25 85.25 L 157.25 85.25 L 157.25 82.75 L 150.75 82.75 L 150.75 90.75 L 145.25 90.75 L 145.25 69.25 L 149.25 69.25 L 149.25 65.25 L 153.25 65.25 L 153.25 46.75 L 149.25 46.75 L 149.25 38.75 L 146.75 38.75 L 146.75 49.25 L 150.75 49.25 L 150.75 54.75 L 141.25 54.75 L 141.25 53.25 L 149.25 53.25 L 149.25 50.75 L 145.25 50.75 L 145.25 37.25 L 153.25 37.25 L 153.25 34.75 L 149.25 34.75 L 149.25 33.25 L 158.75 33.25 L 158.75 49.25 L 165.25 49.25 L 165.25 38.75 L 162.75 38.75 L 162.75 46.75 L 161.25 46.75 L 161.25 33.25 L 170.75 33.25 L 170.75 41.25 L 177.25 41.25 L 177.25 38.75 L 173.25 38.75 L 173.25 33.25 L 177.25 33.25 L 177.25 30.75 L 173.25 30.75 L 173.25 26.75 L 170.75 26.75 L 170.75 30.75 L 169.25 30.75 L 169.25 25.25 L 173.25 25.25 L 173.25 21.25 L 178.75 21.25 L 178.75 25.25 L 182.75 25.25 L 182.75 34.75 L 181.25 34.75 L 181.25 26.75 L 177.25 26.75 L 177.25 22.75 L 174.75 22.75 L 174.75 29.25 L 178.75 29.25 L 178.75 34.75 L 174.75 34.75 L 174.75 37.25 L 178.75 37.25 L 178.75 42.75 L 174.75 42.75 L 174.75 46.75 L 169.25 46.75 L 169.25 45.25 L 173.25 45.25 L 173.25 42.75 L 169.25 42.75 L 169.25 34.75 L 162.75 34.75 L 162.75 37.25 L 166.75 37.25 L 166.75 50.75 L 157.25 50.75 L 157.25 42.75 L 153.25 42.75 L 153.25 41.25 L 157.25 41.25 L 157.25 34.75 L 154.75 34.75 L 154.75 38.75 L 150.75 38.75 L 150.75 45.25 L 154.75 45.25 L 154.75 57.25 L 157.25 57.25 L 157.25 53.25 L 169.25 53.25 L 169.25 49.25 L 174.75 49.25 L 174.75 57.25 L 182.75 57.25 L 182.75 58.75 L 170.75 58.75 L 170.75 61.25 L 174.75 61.25 L 174.75 69.25 L 178.75 69.25 L 178.75 70.75 L 170.75 70.75 L 170.75 73.25 L 182.75 73.25 L 182.75 74.75 L 178.75 74.75 L 178.75 77.25 L 190.75 77.25 L 190.75 82.75 L 189.25 82.75 L 189.25 78.75 L 186.75 78.75 L 186.75 82.75 L 182.75 82.75 L 182.75 85.25 L 190.75 85.25 L 190.75 94.75 L 189.25 94.75 L 189.25 90.75 L 182.75 90.75 L 182.75 93.25 L 186.75 93.25 L 186.75 97.25 L 201.25 97.25 L 201.25 85.25 L 210.75 85.25 L 210.75 86.75 L 202.75 86.75 L 202.75 89.25 L 210.75 89.25 L 210.75 94.75 L 206.75 94.75 L 206.75 97.25 L 213.25 97.25 L 213.25 93.25 L 218.75 93.25 L 218.75 97.25 L 221.25 97.25 L 221.25 93.25 L 226.75 93.25 L 226.75 97.25 L 237.25 97.25 L 237.25 94.75 L 229.25 94.75 L 229.25 90.75 L 213.25 90.75 L 213.25 77.25 L 218.75 77.25 L 218.75 81.25 L 222.75 81.25 L 222.75 85.25 L 237.25 85.25 L 237.25 82.75 L 225.25 82.75 L 225.25 78.75 L 221.25 78.75 L 221.25 70.75 L 218.75 70.75 L 218.75 74.75 L 213.25 74.75 L 213.25 70.75 L 202.75 70.75 L 202.75 77.25 L 205.25 77.25 L 205.25 73.25 L 210.75 73.25 L 210.75 82.75 L 198.75 82.75 L 198.75 94.75 L 193.25 94.75 L 193.25 77.25 L 197.25 77.25 L 197.25 74.75 L 193.25 74.75 L 193.25 66.75 L 190.75 66.75 L 190.75 74.75 L 185.25 74.75 L 185.25 70.75 L 181.25 70.75 L 181.25 66.75 L 177.25 66.75 L 177.25 61.25 L 193.25 61.25 L 193.25 58.75 L 185.25 58.75 L 185.25 50.75 L 182.75 50.75 L 182.75 54.75 L 177.25 54.75 L 177.25 45.25 L 181.25 45.25 L 181.25 37.25 L 185.25 37.25 L 185.25 29.25 L 194.75 29.25 L 194.75 37.25 L 197.25 37.25 L 197.25 21.25 L 198.75 21.25 L 198.75 25.25 L 202.75 25.25 L 202.75 29.25 L 206.75 29.25 L 206.75 34.75 L 202.75 34.75 L 202.75 37.25 L 206.75 37.25 L 206.75 41.25 L 213.25 41.25 L 213.25 34.75 L 210.75 34.75 L 210.75 38.75 L 209.25 38.75 L 209.25 33.25 L 214.75 33.25 L 214.75 46.75 L 210.75 46.75 L 210.75 49.25 L 214.75 49.25 L 214.75 53.25 L 225.25 53.25 L 225.25 49.25 L 229.25 49.25 L 229.25 42.75 L 226.75 42.75 L 226.75 46.75 L 221.25 46.75 L 221.25 42.75 L 218.75 42.75 L 218.75 49.25 L 222.75 49.25 L 222.75 50.75 L 217.25 50.75 L 217.25 41.25 L 222.75 41.25 L 222.75 45.25 L 225.25 45.25 L 225.25 41.25 L 234.75 41.25 L 234.75 50.75 L 233.25 50.75 L 233.25 42.75 L 230.75 42.75 L 230.75 50.75 L 226.75 50.75 L 226.75 54.75 L 218.75 54.75 L 218.75 58.75 L 213.25 58.75 L 213.25 57.25 L 217.25 57.25 L 217.25 54.75 L 213.25 54.75 L 213.25 50.75 L 209.25 50.75 L 209.25 45.25 L 213.25 45.25 L 213.25 42.75 L 193.25 42.75 L 193.25 41.25 L 205.25 41.25 L 205.25 38.75 L 201.25 38.75 L 201.25 33.25 L 205.25 33.25 L 205.25 30.75 L 201.25 30.75 L 201.25 26.75 L 198.75 26.75 L 198.75 38.75 L 193.25 38.75 L 193.25 30.75 L 190.75 30.75 L 190.75 45.25 L 198.75 45.25 L 198.75 49.25 L 201.25 49.25 L 201.25 45.25 L 206.75 45.25 L 206.75 53.25 L 210.75 53.25 L 210.75 62.75 L 209.25 62.75 L 209.25 58.75 L 206.75 58.75 L 206.75 62.75 L 201.25 62.75 L 201.25 58.75 L 198.75 58.75 L 198.75 65.25 L 213.25 65.25 L 213.25 61.25 L 218.75 61.25 L 218.75 65.25 L 225.25 65.25 L 225.25 62.75 L 221.25 62.75 L 221.25 57.25 L 229.25 57.25 L 229.25 53.25 L 238.75 53.25 L 238.75 57.25 L 241.25 57.25 L 241.25 53.25 L 246.75 53.25 L 246.75 61.25 L 249.25 61.25 L 249.25 57.25 L 258.75 57.25 L 258.75 58.75 L 254.75 58.75 L 254.75 62.75 L 253.25 62.75 L 253.25 58.75 L 250.75 58.75 L 250.75 66.75 L 249.25 66.75 L 249.25 62.75 L 241.25 62.75 L 241.25 61.25 L 245.25 61.25 L 245.25 54.75 L 242.75 54.75 L 242.75 58.75 L 237.25 58.75 L 237.25 54.75 L 234.75 54.75 L 234.75 61.25 L 238.75 61.25 L 238.75 70.75 L 234.75 70.75 L 234.75 77.25 L 237.25 77.25 L 237.25 73.25 L 241.25 73.25 L 241.25 65.25 L 246.75 65.25 L 246.75 69.25 L 253.25 69.25 L 253.25 65.25 L 257.25 65.25 L 257.25 61.25 L 261.25 61.25 L 261.25 45.25 L 270.75 45.25 L 270.75 46.75 L 262.75 46.75 L 262.75 49.25 L 270.75 49.25 L 270.75 57.25 L 278.75 57.25 L 278.75 58.75 L 274.75 58.75 L 274.75 73.25 L 277.25 73.25 L 277.25 69.25 L 278.75 69.25 L 278.75 74.75 L 269.25 74.75 L 269.25 69.25 L 270.75 69.25 L 270.75 73.25 L 273.25 73.25 L 273.25 58.75 L 269.25 58.75 L 269.25 54.75 L 266.75 54.75 L 266.75 61.25 L 270.75 61.25 L 270.75 66.75 L 266.75 66.75 L 266.75 77.25 L 274.75 77.25 L 274.75 86.75 L 273.25 86.75 L 273.25 82.75 L 266.75 82.75 L 266.75 85.25 L 270.75 85.25 L 270.75 89.25 L 277.25 89.25 L 277.25 77.25 L 281.25 77.25 L 281.25 73.25 L 294.75 73.25 L 294.75 74.75 L 290.75 74.75 L 290.75 77.25 L 297.25 77.25 L 297.25 70.75 L 281.25 70.75 L 281.25 66.75 L 277.25 66.75 L 277.25 61.25 L 286.75 61.25 L 286.75 65.25 L 289.25 65.25 L 289.25 61.25 L 297.25 61.25 L 297.25 58.75 L 281.25 58.75 L 281.25 54.75 L 273.25 54.75 L 273.25 41.25 L 274.75 41.25 L 274.75 45.25 L 277.25 45.25 L 277.25 38.75 L 273.25 38.75 L 273.25 34.75 L 270.75 34.75 L 270.75 42.75 L 257.25 42.75 L 257.25 33.25 L 258.75 33.25 L 258.75 37.25 L 265.25 37.25 L 265.25 34.75 L 261.25 34.75 L 261.25 30.75 L 254.75 30.75 L 254.75 34.75 L 250.75 34.75 L 250.75 37.25 L 254.75 37.25 L 254.75 42.75 L 245.25 42.75 L 245.25 38.75 L 241.25 38.75 L 241.25 34.75 L 237.25 34.75 L 237.25 30.75 L 226.75 30.75 L 226.75 34.75 L 225.25 34.75 L 225.25 17.25 L 229.25 17.25 L 229.25 14.75 L 222.75 14.75 L 222.75 22.75 L 209.25 22.75 L 209.25 21.25 L 221.25 21.25 L 221.25 13.25 L 229.25 13.25 L 229.25 9.25 L 230.75 9.25 L 230.75 25.25 L 241.25 25.25 L 241.25 22.75 L 233.25 22.75 L 233.25 21.25 L 242.75 21.25 L 242.75 30.75 L 241.25 30.75 L 241.25 26.75 L 229.25 26.75 L 229.25 18.75 L 226.75 18.75 L 226.75 29.25 L 238.75 29.25 L 238.75 33.25 L 242.75 33.25 L 242.75 37.25 L 245.25 37.25 L 245.25 25.25 L 249.25 25.25 L 249.25 22.75 L 245.25 22.75 L 245.25 18.75 L 233.25 18.75 L 233.25 9.25 L 238.75 9.25 L 238.75 13.25 L 253.25 13.25 L 253.25 2.75 L 246.75 2.75 L 246.75 5.25 L 250.75 5.25 L 250.75 10.75 L 241.25 10.75 L 241.25 2.75 L 238.75 2.75 L 238.75 6.75 L 229.25 6.75 L 229.25 2.75 L 214.75 2.75 L 214.75 5.25 L 226.75 5.25 L 226.75 10.75 L 210.75 10.75 L 210.75 13.25 L 218.75 13.25 L 218.75 18.75 L 205.25 18.75 L 205.25 14.75 L 193.25 14.75 L 193.25 6.75 L 186.75 6.75 L 186.75 9.25 L 190.75 9.25 L 190.75 14.75 L 186.75 14.75 L 186.75 17.25 L 190.75 17.25 L 190.75 22.75 L 189.25 22.75 L 189.25 18.75 L 185.25 18.75 L 185.25 13.25 L 189.25 13.25 L 189.25 10.75 L 185.25 10.75 L 185.25 5.25 L 194.75 5.25 L 194.75 13.25 L 197.25 13.25 L 197.25 9.25 L 201.25 9.25 L 201.25 6.75 L 197.25 6.75 L 197.25 2.75 L 182.75 2.75 L 182.75 10.75 L 174.75 10.75 L 174.75 14.75 L 169.25 14.75 L 169.25 10.75 L 162.75 10.75 L 162.75 17.25 L 165.25 17.25 L 165.25 13.25 L 166.75 13.25 L 166.75 18.75 L 158.75 18.75 L 158.75 25.25 L 161.25 25.25 L 161.25 21.25 L 162.75 21.25 L 162.75 26.75 L 149.25 26.75 L 149.25 9.25 L 153.25 9.25 L 153.25 5.25 L 162.75 5.25 L 162.75 6.75 L 158.75 6.75 L 158.75 14.75 L 154.75 14.75 L 154.75 22.75 L 153.25 22.75 L 153.25 13.25 L 157.25 13.25 L 157.25 6.75 L 154.75 6.75 L 154.75 10.75 L 150.75 10.75 L 150.75 25.25 L 157.25 25.25 L 157.25 17.25 L 161.25 17.25 L 161.25 9.25 L 170.75 9.25 L 170.75 13.25 L 173.25 13.25 L 173.25 2.75 L 170.75 2.75 L 170.75 6.75 L 165.25 6.75 L 165.25 2.75 L 150.75 2.75 L 150.75 6.75 L 146.75 6.75 L 146.75 26.75 L 122.75 26.75 L 122.75 30.75 L 118.75 30.75 L 118.75 34.75 L 117.25 34.75 L 117.25 29.25 L 121.25 29.25 L 121.25 25.25 L 129.25 25.25 L 129.25 21.25 L 133.25 21.25 L 133.25 14.75 L 130.75 14.75 L 130.75 18.75 L 126.75 18.75 L 126.75 22.75 L 121.25 22.75 L 121.25 18.75 L 118.75 18.75 L 118.75 26.75 L 113.25 26.75 L 113.25 22.75 L 102.75 22.75 L 102.75 29.25 L 105.25 29.25 L 105.25 25.25 L 110.75 25.25 L 110.75 29.25 L 114.75 29.25 L 114.75 37.25 L 121.25 37.25 L 121.25 33.25 L 125.25 33.25 L 125.25 29.25 L 134.75 29.25 L 134.75 38.75 L 130.75 38.75 L 130.75 46.75 L 129.25 46.75 L 129.25 42.75 L 126.75 42.75 L 126.75 57.25 L 130.75 57.25 L 130.75 61.25 L 133.25 61.25 L 133.25 57.25 L 134.75 57.25 L 134.75 65.25 L 137.25 65.25 L 137.25 61.25 L 142.75 61.25 L 142.75 62.75 L 138.75 62.75 L 138.75 66.75 L 133.25 66.75 L 133.25 62.75 L 125.25 62.75 L 125.25 61.25 L 129.25 61.25 L 129.25 58.75 L 122.75 58.75 L 122.75 69.25 L 125.25 69.25 L 125.25 65.25 L 130.75 65.25 L 130.75 73.25 L 133.25 73.25 L 133.25 69.25 L 138.75 69.25 L 138.75 78.75 L 130.75 78.75 L 130.75 86.75 L 125.25 86.75 L 125.25 82.75 L 122.75 82.75 L 122.75 86.75 L 118.75 86.75 L 118.75 97.25 L 121.25 97.25 L 121.25 89.25 L 133.25 89.25 L 133.25 81.25 L 138.75 81.25 L 138.75 85.25 L 141.25 85.25 L 141.25 65.25 L 145.25 65.25 L 145.25 61.25 L 149.25 61.25 L 149.25 58.75 L 137.25 58.75 L 137.25 54.75 L 129.25 54.75 L 129.25 49.25 L 133.25 49.25 L 133.25 41.25 L 138.75 41.25 L 138.75 49.25 L 141.25 49.25 L 141.25 38.75 L 137.25 38.75 L 137.25 29.25 L 142.75 29.25 L 142.75 33.25 L 145.25 33.25 L 145.25 29.25 L 165.25 29.25 L 165.25 21.25 L 169.25 21.25 L 169.25 17.25 L 177.25 17.25 L 177.25 13.25 L 182.75 13.25 L 182.75 21.25 L 186.75 21.25 L 186.75 25.25 L 193.25 25.25 L 193.25 17.25 L 202.75 17.25 L 202.75 21.25 L 206.75 21.25 L 206.75 25.25 L 210.75 25.25 L 210.75 29.25 L 213.25 29.25 L 213.25 25.25 L 222.75 25.25 L 222.75 34.75 L 218.75 34.75 L 218.75 37.25 L 229.25 37.25 L 229.25 33.25 L 234.75 33.25 L 234.75 37.25 L 238.75 37.25 L 238.75 41.25 L 242.75 41.25 L 242.75 46.75 L 238.75 46.75 L 238.75 49.25 L 245.25 49.25 L 245.25 45.25 L 258.75 45.25 L 258.75 54.75 L 249.25 54.75 L 249.25 46.75 L 246.75 46.75 L 246.75 50.75 L 237.25 50.75 L 237.25 45.25 L 241.25 45.25 L 241.25 42.75 L 237.25 42.75 L 237.25 38.75 L 233.25 38.75 L 233.25 34.75 L 230.75 34.75 L 230.75 38.75 L 217.25 38.75 L 217.25 33.25 L 221.25 33.25 L 221.25 26.75 L 214.75 26.75 L 214.75 29.25 L 218.75 29.25 L 218.75 30.75 L 209.25 30.75 L 209.25 26.75 L 205.25 26.75 L 205.25 22.75 L 201.25 22.75 L 201.25 18.75 L 194.75 18.75 L 194.75 26.75 L 185.25 26.75 L 185.25 22.75 L 181.25 22.75 L 181.25 14.75 L 178.75 14.75 L 178.75 18.75 L 170.75 18.75 L 170.75 22.75 L 166.75 22.75 L 166.75 30.75 L 146.75 30.75 L 146.75 34.75 L 141.25 34.75 L 141.25 30.75 L 138.75 30.75 L 138.75 37.25 L 142.75 37.25 L 142.75 50.75 L 137.25 50.75 L 137.25 42.75 L 134.75 42.75 L 134.75 50.75 L 130.75 50.75 L 130.75 53.25 L 138.75 53.25 L 138.75 57.25 L 150.75 57.25 L 150.75 62.75 L 146.75 62.75 L 146.75 66.75 L 142.75 66.75 L 142.75 86.75 L 137.25 86.75 L 137.25 82.75 L 134.75 82.75 L 134.75 90.75 L 122.75 90.75 L 122.75 98.75 L 117.25 98.75 L 117.25 90.75 L 114.75 90.75 L 114.75 98.75 L 109.25 98.75 L 109.25 93.25 L 110.75 93.25 L 110.75 97.25 L 113.25 97.25 L 113.25 89.25 L 117.25 89.25 L 117.25 85.25 L 121.25 85.25 L 121.25 81.25 L 126.75 81.25 L 126.75 85.25 L 129.25 85.25 L 129.25 77.25 L 137.25 77.25 L 137.25 70.75 L 134.75 70.75 L 134.75 74.75 L 129.25 74.75 L 129.25 66.75 L 126.75 66.75 L 126.75 70.75 L 122.75 70.75 L 122.75 77.25 L 125.25 77.25 L 125.25 73.25 L 126.75 73.25 L 126.75 78.75 L 121.25 78.75 L 121.25 57.25 L 125.25 57.25 L 125.25 41.25 L 129.25 41.25 L 129.25 37.25 L 133.25 37.25 L 133.25 30.75 L 126.75 30.75 L 126.75 33.25 L 130.75 33.25 L 130.75 34.75 L 122.75 34.75 L 122.75 37.25 L 126.75 37.25 L 126.75 38.75 L 113.25 38.75 L 113.25 30.75 L 109.25 30.75 L 109.25 26.75 L 106.75 26.75 L 106.75 30.75 L 101.25 30.75 L 101.25 21.25 L 114.75 21.25 L 114.75 25.25 L 117.25 25.25 L 117.25 17.25 L 122.75 17.25 L 122.75 21.25 L 125.25 21.25 L 125.25 17.25 L 129.25 17.25 L 129.25 13.25 L 134.75 13.25 L 134.75 22.75 L 130.75 22.75 L 130.75 25.25 L 145.25 25.25 L 145.25 5.25 L 149.25 5.25 L 149.25 2.75 L 138.75 2.75 L 138.75 6.75 L 134.75 6.75 L 134.75 9.25 L 138.75 9.25 L 138.75 13.25 L 141.25 13.25 L 141.25 5.25 L 142.75 5.25 L 142.75 22.75 L 137.25 22.75 L 137.25 17.25 L 138.75 17.25 L 138.75 21.25 L 141.25 21.25 L 141.25 14.75 L 137.25 14.75 L 137.25 10.75 L 126.75 10.75 L 126.75 14.75 L 114.75 14.75 L 114.75 18.75 L 109.25 18.75 L 109.25 5.25 L 121.25 5.25 L 121.25 2.75 L 102.75 2.75 L 102.75 6.75 L 94.75 6.75 L 94.75 9.25 L 102.75 9.25 L 102.75 14.75 L 98.75 14.75 L 98.75 17.25 L 105.25 17.25 L 105.25 5.25 L 106.75 5.25 L 106.75 18.75 L 94.75 18.75 L 94.75 25.25 L 97.25 25.25 L 97.25 21.25 L 98.75 21.25 L 98.75 26.75 L 93.25 26.75 L 93.25 14.75 L 89.25 14.75 L 89.25 10.75 L 86.75 10.75 L 86.75 17.25 L 90.75 17.25 L 90.75 18.75 L 85.25 18.75 L 85.25 2.75 L 78.75 2.75 L 78.75 5.25 L 82.75 5.25 L 82.75 6.75 L 77.25 6.75 L 77.25 2.75 L 70.75 2.75 L 70.75 5.25 L 74.75 5.25 L 74.75 13.25 L 77.25 13.25 L 77.25 9.25 L 82.75 9.25 L 82.75 21.25 L 90.75 21.25 L 90.75 29.25 L 98.75 29.25 L 98.75 33.25 L 102.75 33.25 L 102.75 37.25 L 105.25 37.25 L 105.25 33.25 L 110.75 33.25 L 110.75 42.75 L 94.75 42.75 L 94.75 45.25 L 98.75 45.25 L 98.75 46.75 L 89.25 46.75 L 89.25 45.25 L 93.25 45.25 L 93.25 37.25 L 98.75 37.25 L 98.75 38.75 L 94.75 38.75 L 94.75 41.25 L 109.25 41.25 L 109.25 34.75 L 106.75 34.75 L 106.75 38.75 L 101.25 38.75 L 101.25 34.75 L 90.75 34.75 L 90.75 42.75 L 86.75 42.75 L 86.75 50.75 L 82.75 50.75 L 82.75 53.25 L 89.25 53.25 L 89.25 49.25 L 101.25 49.25 L 101.25 45.25 L 113.25 45.25 L 113.25 41.25 L 122.75 41.25 L 122.75 54.75 L 117.25 54.75 L 117.25 53.25 L 121.25 53.25 L 121.25 50.75 L 114.75 50.75 L 114.75 54.75 L 98.75 54.75 L 98.75 57.25 L 118.75 57.25 L 118.75 74.75 L 114.75 74.75 L 114.75 77.25 L 118.75 77.25 L 118.75 82.75 L 117.25 82.75 L 117.25 78.75 L 113.25 78.75 L 113.25 74.75 L 101.25 74.75 L 101.25 70.75 L 98.75 70.75 L 98.75 74.75 L 97.25 74.75 L 97.25 69.25 L 106.75 69.25 L 106.75 70.75 L 102.75 70.75 L 102.75 73.25 L 117.25 73.25 L 117.25 70.75 L 109.25 70.75 L 109.25 65.25 L 113.25 65.25 L 113.25 62.75 L 106.75 62.75 L 106.75 66.75 L 94.75 66.75 L 94.75 70.75 L 90.75 70.75 L 90.75 73.25 L 94.75 73.25 L 94.75 81.25 L 97.25 81.25 L 97.25 77.25 L 110.75 77.25 L 110.75 81.25 L 114.75 81.25 L 114.75 86.75 L 110.75 86.75 L 110.75 90.75 L 102.75 90.75 L 102.75 93.25 L 106.75 93.25 L 106.75 98.75 L 93.25 98.75 L 93.25 97.25 L 97.25 97.25 L 97.25 94.75 L 90.75 94.75 L 90.75 98.75 L 81.25 98.75 L 81.25 89.25 L 85.25 89.25 L 85.25 78.75 L 77.25 78.75 L 77.25 70.75 L 69.25 70.75 L 69.25 65.25 L 73.25 65.25 L 73.25 49.25 L 77.25 49.25 L 77.25 46.75 L 54.75 46.75 L 54.75 53.25 L 58.75 53.25 L 58.75 66.75 L 53.25 66.75 L 53.25 62.75 L 49.25 62.75 L 49.25 58.75 L 46.75 58.75 L 46.75 65.25 L 50.75 65.25 L 50.75 69.25 L 58.75 69.25 L 58.75 74.75 L 41.25 74.75 L 41.25 70.75 L 37.25 70.75 L 37.25 65.25 L 41.25 65.25 L 41.25 62.75 L 34.75 62.75 L 34.75 66.75 L 29.25 66.75 L 29.25 62.75 L 21.25 62.75 L 21.25 57.25 L 25.25 57.25 L 25.25 53.25 L 30.75 53.25 L 30.75 57.25 L 41.25 57.25 L 41.25 45.25 L 50.75 45.25 L 50.75 54.75 L 42.75 54.75 L 42.75 58.75 L 29.25 58.75 L 29.25 54.75 L 26.75 54.75 L 26.75 58.75 L 22.75 58.75 L 22.75 61.25 L 30.75 61.25 L 30.75 65.25 L 33.25 65.25 L 33.25 61.25 L 42.75 61.25 L 42.75 66.75 L 38.75 66.75 L 38.75 69.25 L 42.75 69.25 L 42.75 73.25 L 57.25 73.25 L 57.25 70.75 L 49.25 70.75 L 49.25 66.75 L 46.75 66.75 L 46.75 70.75 L 45.25 70.75 L 45.25 57.25 L 50.75 57.25 L 50.75 61.25 L 54.75 61.25 L 54.75 65.25 L 57.25 65.25 L 57.25 54.75 L 54.75 54.75 L 54.75 58.75 L 53.25 58.75 L 53.25 45.25 L 78.75 45.25 L 78.75 50.75 L 74.75 50.75 L 74.75 66.75 L 70.75 66.75 L 70.75 69.25 L 78.75 69.25 L 78.75 77.25 L 86.75 77.25 L 86.75 90.75 L 82.75 90.75 L 82.75 97.25 L 89.25 97.25 L 89.25 94.75 L 85.25 94.75 L 85.25 93.25 L 98.75 93.25 L 98.75 97.25 L 105.25 97.25 L 105.25 94.75 L 101.25 94.75 L 101.25 89.25 L 109.25 89.25 L 109.25 85.25 L 113.25 85.25 L 113.25 82.75 L 109.25 82.75 L 109.25 78.75 L 98.75 78.75 L 98.75 82.75 L 93.25 82.75 L 93.25 74.75 L 90.75 74.75 L 90.75 89.25 L 97.25 89.25 L 97.25 86.75 L 93.25 86.75 L 93.25 85.25 L 101.25 85.25 L 101.25 81.25 L 106.75 81.25 L 106.75 86.75 L 105.25 86.75 L 105.25 82.75 L 102.75 82.75 L 102.75 86.75 L 98.75 86.75 L 98.75 90.75 L 89.25 90.75 L 89.25 69.25 L 93.25 69.25 L 93.25 65.25 L 105.25 65.25 L 105.25 61.25 L 114.75 61.25 L 114.75 66.75 L 110.75 66.75 L 110.75 69.25 L 117.25 69.25 L 117.25 58.75 L 97.25 58.75 L 97.25 53.25 L 113.25 53.25 L 113.25 49.25 L 121.25 49.25 L 121.25 42.75 L 114.75 42.75 L 114.75 45.25 L 118.75 45.25 L 118.75 46.75 L 102.75 46.75 L 102.75 49.25 L 110.75 49.25 L 110.75 50.75 L 90.75 50.75 L 90.75 54.75 L 82.75 54.75 L 82.75 61.25 L 85.25 61.25 L 85.25 57.25 L 93.25 57.25 L 93.25 53.25 L 94.75 53.25 L 94.75 61.25 L 102.75 61.25 L 102.75 62.75 L 90.75 62.75 L 90.75 66.75 L 86.75 66.75 L 86.75 74.75 L 81.25 74.75 L 81.25 66.75 L 77.25 66.75 L 77.25 53.25 L 78.75 53.25 L 78.75 65.25 L 82.75 65.25 L 82.75 73.25 L 85.25 73.25 L 85.25 65.25 L 89.25 65.25 L 89.25 61.25 L 93.25 61.25 L 93.25 58.75 L 86.75 58.75 L 86.75 62.75 L 81.25 62.75 L 81.25 49.25 L 85.25 49.25 L 85.25 41.25 L 89.25 41.25 L 89.25 33.25 L 97.25 33.25 L 97.25 30.75 L 89.25 30.75 L 89.25 22.75 L 81.25 22.75 L 81.25 10.75 L 78.75 10.75 L 78.75 14.75 L 73.25 14.75 L 73.25 6.75 L 69.25 6.75 L 69.25 2.75 L 66.75 2.75 L 66.75 29.25 L 70.75 29.25 L 70.75 41.25 L 81.25 41.25 L 81.25 37.25 L 85.25 37.25 L 85.25 26.75 L 77.25 26.75 L 77.25 18.75 L 74.75 18.75 L 74.75 33.25 L 81.25 33.25 L 81.25 30.75 L 77.25 30.75 L 77.25 29.25 L 82.75 29.25 L 82.75 34.75 L 78.75 34.75 L 78.75 38.75 L 73.25 38.75 L 73.25 37.25 L 77.25 37.25 L 77.25 34.75 L 73.25 34.75 L 73.25 26.75 L 69.25 26.75 L 69.25 9.25 L 70.75 9.25 L 70.75 25.25 L 73.25 25.25 L 73.25 17.25 L 78.75 17.25 L 78.75 25.25 L 86.75 25.25 L 86.75 38.75 L 82.75 38.75 L 82.75 46.75 L 81.25 46.75 L 81.25 42.75 L 65.25 42.75 L 65.25 38.75 L 62.75 38.75 L 62.75 42.75 L 53.25 42.75 L 53.25 38.75 L 42.75 38.75 L 42.75 41.25 L 50.75 41.25 L 50.75 42.75 L 33.25 42.75 L 33.25 29.25 L 38.75 29.25 L 38.75 33.25 L 49.25 33.25 L 49.25 29.25 L 61.25 29.25 L 61.25 18.75 L 58.75 18.75 L 58.75 26.75 L 46.75 26.75 L 46.75 30.75 L 41.25 30.75 L 41.25 18.75 L 38.75 18.75 L 38.75 22.75 L 22.75 22.75 L 22.75 25.25 L 38.75 25.25 L 38.75 26.75 L 30.75 26.75 L 30.75 34.75 L 26.75 34.75 L 26.75 38.75 L 21.25 38.75 L 21.25 34.75 L 13.25 34.75 L 13.25 30.75 L 5.25 30.75 L 5.25 22.75 L 2.75 22.75 L 2.75 37.25 L 5.25 37.25 L 5.25 33.25 L 10.75 33.25 L 10.75 41.25 L 13.25 41.25 L 13.25 37.25 L 18.75 37.25 L 18.75 41.25 L 22.75 41.25 L 22.75 49.25 L 34.75 49.25 L 34.75 53.25 L 37.25 53.25 L 37.25 46.75 L 25.25 46.75 L 25.25 41.25 L 29.25 41.25 L 29.25 37.25 L 30.75 37.25 L 30.75 42.75 L 26.75 42.75 L 26.75 45.25 L 38.75 45.25 L 38.75 54.75 L 33.25 54.75 L 33.25 50.75 L 14.75 50.75 L 14.75 58.75 L 9.25 58.75 L 9.25 50.75 L 6.75 50.75 L 6.75 54.75 L 2.75 54.75 L 2.75 57.25 L 6.75 57.25 L 6.75 65.25 L 13.25 65.25 L 13.25 62.75 L 9.25 62.75 L 9.25 61.25 L 17.25 61.25 L 17.25 53.25 L 22.75 53.25 L 22.75 54.75 L 18.75 54.75 L 18.75 74.75 L 13.25 74.75 L 13.25 70.75 L 6.75 70.75 L 6.75 73.25 L 10.75 73.25 L 10.75 77.25 L 30.75 77.25 L 30.75 81.25 L 37.25 81.25 L 37.25 78.75 L 33.25 78.75 L 33.25 70.75 L 30.75 70.75 L 30.75 74.75 L 25.25 74.75 L 25.25 66.75 L 22.75 66.75 L 22.75 74.75 L 21.25 74.75 L 21.25 65.25 L 26.75 65.25 L 26.75 73.25 L 29.25 73.25 L 29.25 69.25 L 34.75 69.25 L 34.75 73.25 L 38.75 73.25 L 38.75 74.75 L 34.75 74.75 L 34.75 77.25 L 42.75 77.25 L 42.75 97.25 L 49.25 97.25 L 49.25 90.75 L 46.75 90.75 L 46.75 94.75 L 45.25 94.75 L 45.25 77.25 Z M 48 77.25 "/>
<path fill-rule="evenodd" fill="rgb(80%, 40%, 40%)" fill-opacity="1" d="M 250.75 46.75 L 257.25 46.75 L 257.25 53.25 L 250.75 53.25 Z M 250.75 46.75 "/>
<path fill-rule="evenodd" fill="rgb(40%, 80%, 40%)" fill-opacity="1" d="M 42.75 46.75 L 49.25 46.75 L 49.25 53.25 L 42.75 53.25 Z M 42.75 46.75 "/>
</svg>
