<?xml version="1.0" encoding="UTF-8"?>
<svg xmlns="http://www.w3.org/2000/svg" xmlns:xlink="http://www.w3.org/1999/xlink" width="50mm" height="40mm" viewBox="0 0 50 40">
<rect x="-5" y="-4" width="60" height="48" fill="rgb(90%, 90%, 90%)" fill-opacity="1"/>
<path fill-rule="evenodd" fill="rgb(20%, 20%, 20%)" fill-opacity="1" d="M 16 31 L 42 31 L 42 27 L 24 27 L 24 21 L 12 21 L 12 9 L 8 9 L 8 21 L 6 21 L 6 7 L 14 7 L 14 19 L 26 19 L 26 25 L 36 25 L 36 21 L 30 21 L 30 15 L 18 15 L 18 7 L 44 7 L 44 9 L 38 9 L 38 13 L 44 13 L 44 21 L 42 21 L 42 15 L 36 15 L 36 9 L 20 9 L 20 13 L 32 13 L 32 19 L 38 19 L 38 25 L 44 25 L 44 33 L 6 33 L 6 25 L 20 25 L 20 27 L 8 27 L 8 31 Z M 16 31 "/>
<path fill-rule="evenodd" fill="rgb(80%, 40%, 40%)" fill-opacity="1" d="M 42 19 L 44 19 L 44 21 L 42 21 Z M 42 19 "/>
<path fill-rule="evenodd" fill="rgb(40%, 80%, 40%)" fill-opacity="1" d="M 6 19 L 8 19 L 8 21 L 6 21 Z M 6 19 "/>
</svg>
