<?xml version="1.0" encoding="UTF-8"?>
<svg xmlns="http://www.w3.org/2000/svg" xmlns:xlink="http://www.w3.org/1999/xlink" width="60mm" height="60mm" viewBox="0 0 60 60">
<rect x="-6" y="-6" width="72" height="72" fill="rgb(53.333333%, 0%, 0%)" fill-opacity="1"/>
<path fill-rule="evenodd" fill="rgb(100%, 26.666667%, 13.333333%)" fill-opacity="1" d="M 4.617188 5.464844 L 31.457031 5.464844 L 31.457031 12.996094 L 26.84375 12.996094 L 26.84375 19.3125 L 31.457031 19.3125 L 31.457031 23.925781 L 37.773438 23.925781 L 37.773438 19.3125 L 42.386719 19.3125 L 42.386719 17.613281 L 37.773438 17.613281 L 37.773438 10.082031 L 42.386719 10.082031 L 42.386719 5.464844 L 56.234375 5.464844 L 56.234375 3.765625 L 36.074219 3.765625 L 36.074219 5.464844 L 40.6875 5.464844 L 40.6875 8.378906 L 36.074219 8.378906 L 36.074219 22.226562 L 33.15625 22.226562 L 33.15625 17.613281 L 28.542969 17.613281 L 28.542969 14.695312 L 33.15625 14.695312 L 33.15625 3.765625 L 0.851562 3.765625 L 0.851562 0.851562 L 59.148438 0.851562 L 59.148438 12.996094 L 49.917969 12.996094 L 49.917969 19.3125 L 54.535156 19.3125 L 54.535156 23.925781 L 56.234375 23.925781 L 56.234375 17.613281 L 51.621094 17.613281 L 51.621094 14.695312 L 59.148438 14.695312 L 59.148438 26.84375 L 42.386719 26.84375 L 42.386719 23.925781 L 51.621094 23.925781 L 51.621094 22.226562 L 47.003906 22.226562 L 47.003906 10.082031 L 56.234375 10.082031 L 56.234375 8.378906 L 45.304688 8.378906 L 45.304688 12.996094 L 40.6875 12.996094 L 40.6875 14.695312 L 45.304688 14.695312 L 45.304688 22.226562 L 40.6875 22.226562 L 40.6875 26.84375 L 19.3125 26.84375 L 19.3125 17.613281 L 14.695312 17.613281 L 14.695312 12.996094 L 12.996094 12.996094 L 12.996094 19.3125 L 17.613281 19.3125 L 17.613281 28.542969 L 26.84375 28.542969 L 26.84375 37.773438 L 36.074219 37.773438 L 36.074219 40.6875 L 19.3125 40.6875 L 19.3125 37.773438 L 23.925781 37.773438 L 23.925781 31.457031 L 22.226562 31.457031 L 22.226562 36.074219 L 12.996094 36.074219 L 12.996094 37.773438 L 17.613281 37.773438 L 17.613281 45.304688 L 12.996094 45.304688 L 12.996094 47.003906 L 19.3125 47.003906 L 19.3125 42.386719 L 40.6875 42.386719 L 40.6875 47.003906 L 49.917969 47.003906 L 49.917969 51.621094 L 51.621094 51.621094 L 51.621094 40.6875 L 49.917969 40.6875 L 49.917969 45.304688 L 42.386719 45.304688 L 42.386719 40.6875 L 37.773438 40.6875 L 37.773438 28.542969 L 49.917969 28.542969 L 49.917969 33.15625 L 51.621094 33.15625 L 51.621094 28.542969 L 59.148438 28.542969 L 59.148438 31.457031 L 54.535156 31.457031 L 54.535156 36.074219 L 47.003906 36.074219 L 47.003906 31.457031 L 40.6875 31.457031 L 40.6875 37.773438 L 42.386719 37.773438 L 42.386719 33.15625 L 45.304688 33.15625 L 45.304688 42.386719 L 47.003906 42.386719 L 47.003906 37.773438 L 54.535156 37.773438 L 54.535156 54.535156 L 47.003906 54.535156 L 47.003906 49.917969 L 37.773438 49.917969 L 37.773438 45.304688 L 22.226562 45.304688 L 22.226562 49.917969 L 10.082031 49.917969 L 10.082031 42.386719 L 14.695312 42.386719 L 14.695312 40.6875 L 10.082031 40.6875 L 10.082031 36.074219 L 8.378906 36.074219 L 8.378906 45.304688 L 3.765625 45.304688 L 3.765625 56.234375 L 33.15625 56.234375 L 33.15625 54.535156 L 28.542969 54.535156 L 28.542969 49.917969 L 26.84375 49.917969 L 26.84375 54.535156 L 5.464844 54.535156 L 5.464844 47.003906 L 8.378906 47.003906 L 8.378906 51.621094 L 23.925781 51.621094 L 23.925781 47.003906 L 36.074219 47.003906 L 36.074219 49.917969 L 31.457031 49.917969 L 31.457031 51.621094 L 45.304688 51.621094 L 45.304688 56.234375 L 56.234375 56.234375 L 56.234375 33.15625 L 59.148438 33.15625 L 59.148438 59.148438 L 37.773438 59.148438 L 37.773438 56.234375 L 42.386719 56.234375 L 42.386719 54.535156 L 36.074219 54.535156 L 36.074219 59.148438 L 0.851562 59.148438 L 0.851562 33.15625 L 3.765625 33.15625 L 3.765625 42.386719 L 5.464844 42.386719 L 5.464844 33.15625 L 19.3125 33.15625 L 19.3125 31.457031 L 10.082031 31.457031 L 10.082031 23.925781 L 12.996094 23.925781 L 12.996094 28.542969 L 14.695312 28.542969 L 14.695312 22.226562 L 10.082031 22.226562 L 10.082031 12.996094 L 5.464844 12.996094 L 5.464844 10.082031 L 22.226562 10.082031 L 22.226562 12.996094 L 17.613281 12.996094 L 17.613281 14.695312 L 22.226562 14.695312 L 22.226562 23.925781 L 28.542969 23.925781 L 28.542969 22.226562 L 23.925781 22.226562 L 23.925781 10.082031 L 28.542969 10.082031 L 28.542969 8.378906 L 3.765625 8.378906 L 3.765625 14.695312 L 8.378906 14.695312 L 8.378906 31.457031 L 0.851562 31.457031 L 0.851562 28.542969 L 5.464844 28.542969 L 5.464844 17.613281 L 3.765625 17.613281 L 3.765625 26.84375 L 0.851562 26.84375 L 0.851562 5.464844 Z M 4.617188 5.464844 "/>
<path fill-rule="evenodd" fill="rgb(100%, 100%, 100%)" fill-opacity="1" d="M 56.816406 29.125 L 58.566406 29.125 L 58.566406 30.875 L 56.816406 30.875 Z M 56.816406 29.125 "/>
<path fill-rule="evenodd" fill="rgb(0%, 0%, 0%)" fill-opacity="1" d="M 1.433594 29.125 L 3.183594 29.125 L 3.183594 30.875 L 1.433594 30.875 Z M 1.433594 29.125 "/>
</svg>
