<?xml version="1.0" encoding="UTF-8"?>
<svg xmlns="http://www.w3.org/2000/svg" xmlns:xlink="http://www.w3.org/1999/xlink" width="55mm" height="35mm" viewBox="0 0 55 35">
<rect x="-5.5" y="-3.5" width="66" height="42" fill="rgb(90%, 90%, 90%)" fill-opacity="1"/>
<path fill-rule="nonzero" fill="rgb(20%, 20%, 20%)" fill-opacity="1" d="M 40 0.851562 L 54.148438 0.851562 L 54.148438 14.148438 L 49.148438 14.148438 L 49.148438 19.148438 L 35.851562 19.148438 L 35.851562 14.148438 L 34.148438 14.148438 L 34.148438 19.148438 L 30.851562 19.148438 L 30.851562 14.148438 L 24.148438 14.148438 L 24.148438 15.851562 L 29.148438 15.851562 L 29.148438 20.851562 L 44.148438 20.851562 L 44.148438 30.851562 L 45.851562 30.851562 L 45.851562 20.851562 L 50.851562 20.851562 L 50.851562 15.851562 L 54.148438 15.851562 L 54.148438 24.148438 L 49.148438 24.148438 L 49.148438 30.851562 L 50.851562 30.851562 L 50.851562 25.851562 L 54.148438 25.851562 L 54.148438 34.148438 L 40.851562 34.148438 L 40.851562 24.148438 L 25.851562 24.148438 L 25.851562 19.148438 L 19.148438 19.148438 L 19.148438 20.851562 L 24.148438 20.851562 L 24.148438 30.851562 L 25.851562 30.851562 L 25.851562 25.851562 L 39.148438 25.851562 L 39.148438 34.148438 L 30.851562 34.148438 L 30.851562 30.851562 L 35.851562 30.851562 L 35.851562 29.148438 L 29.148438 29.148438 L 29.148438 34.148438 L 5.851562 34.148438 L 5.851562 25.851562 L 10.851562 25.851562 L 10.851562 24.148438 L 4.148438 24.148438 L 4.148438 34.148438 L 0.851562 34.148438 L 0.851562 20.851562 L 14.148438 20.851562 L 14.148438 25.851562 L 19.148438 25.851562 L 19.148438 29.148438 L 9.148438 29.148438 L 9.148438 30.851562 L 20.851562 30.851562 L 20.851562 24.148438 L 15.851562 24.148438 L 15.851562 15.851562 L 20.851562 15.851562 L 20.851562 5.851562 L 29.148438 5.851562 L 29.148438 9.148438 L 24.148438 9.148438 L 24.148438 10.851562 L 44.148438 10.851562 L 44.148438 14.148438 L 39.148438 14.148438 L 39.148438 15.851562 L 45.851562 15.851562 L 45.851562 9.148438 L 30.851562 9.148438 L 30.851562 4.148438 L 14.148438 4.148438 L 14.148438 5.851562 L 19.148438 5.851562 L 19.148438 14.148438 L 14.148438 14.148438 L 14.148438 19.148438 L 5.851562 19.148438 L 5.851562 4.148438 L 4.148438 4.148438 L 4.148438 19.148438 L 0.851562 19.148438 L 0.851562 0.851562 L 9.148438 0.851562 L 9.148438 15.851562 L 10.851562 15.851562 L 10.851562 10.851562 L 15.851562 10.851562 L 15.851562 9.148438 L 10.851562 9.148438 L 10.851562 0.851562 L 34.148438 0.851562 L 34.148438 5.851562 L 49.148438 5.851562 L 49.148438 10.851562 L 50.851562 10.851562 L 50.851562 4.148438 L 35.851562 4.148438 L 35.851562 0.851562 Z M 40 0.851562 "/>
<path fill-rule="nonzero" fill="rgb(80%, 40%, 40%)" fill-opacity="1" d="M 51.699219 16.699219 L 53.300781 16.699219 L 53.300781 18.300781 L 51.699219 18.300781 Z M 51.699219 16.699219 "/>
<path fill-rule="nonzero" fill="rgb(40%, 80%, 40%)" fill-opacity="1" d="M 1.699219 16.699219 L 3.300781 16.699219 L 3.300781 18.300781 L 1.699219 18.300781 Z M 1.699219 16.699219 "/>
</svg>
