<?xml version="1.0" encoding="UTF-8"?>
<svg xmlns="http://www.w3.org/2000/svg" xmlns:xlink="http://www.w3.org/1999/xlink" width="125mm" height="255mm" viewBox="0 0 125 255">
<rect x="-12.5" y="-25.5" width="150" height="306" fill="rgb(90%, 90%, 90%)" fill-opacity="1"/>
<path fill-rule="evenodd" fill="rgb(20%, 20%, 20%)" fill-opacity="1" d="M 1.25 205 L 1.25 186.25 L 11.25 186.25 L 11.25 168.75 L 3.75 168.75 L 3.75 176.25 L 6.25 176.25 L 6.25 171.25 L 8.75 171.25 L 8.75 183.75 L 1.25 183.75 L 1.25 181.25 L 6.25 181.25 L 6.25 178.75 L 1.25 178.75 L 1.25 161.25 L 6.25 161.25 L 6.25 158.75 L 1.25 158.75 L 1.25 116.25 L 8.75 116.25 L 8.75 126.25 L 11.25 126.25 L 11.25 121.25 L 18.75 121.25 L 18.75 131.25 L 23.75 131.25 L 23.75 148.75 L 16.25 148.75 L 16.25 143.75 L 13.75 143.75 L 13.75 151.25 L 23.75 151.25 L 23.75 158.75 L 18.75 158.75 L 18.75 166.25 L 26.25 166.25 L 26.25 163.75 L 21.25 163.75 L 21.25 161.25 L 26.25 161.25 L 26.25 141.25 L 33.75 141.25 L 33.75 143.75 L 28.75 143.75 L 28.75 156.25 L 33.75 156.25 L 33.75 163.75 L 31.25 163.75 L 31.25 158.75 L 28.75 158.75 L 28.75 173.75 L 18.75 173.75 L 18.75 176.25 L 23.75 176.25 L 23.75 181.25 L 26.25 181.25 L 26.25 176.25 L 28.75 176.25 L 28.75 188.75 L 18.75 188.75 L 18.75 193.75 L 13.75 193.75 L 13.75 196.25 L 28.75 196.25 L 28.75 201.25 L 31.25 201.25 L 31.25 193.75 L 21.25 193.75 L 21.25 191.25 L 36.25 191.25 L 36.25 188.75 L 31.25 188.75 L 31.25 181.25 L 33.75 181.25 L 33.75 186.25 L 38.75 186.25 L 38.75 193.75 L 33.75 193.75 L 33.75 203.75 L 28.75 203.75 L 28.75 208.75 L 21.25 208.75 L 21.25 203.75 L 16.25 203.75 L 16.25 201.25 L 23.75 201.25 L 23.75 206.25 L 26.25 206.25 L 26.25 198.75 L 11.25 198.75 L 11.25 191.25 L 16.25 191.25 L 16.25 181.25 L 18.75 181.25 L 18.75 186.25 L 26.25 186.25 L 26.25 183.75 L 21.25 183.75 L 21.25 178.75 L 16.25 178.75 L 16.25 171.25 L 26.25 171.25 L 26.25 168.75 L 16.25 168.75 L 16.25 163.75 L 11.25 163.75 L 11.25 156.25 L 13.75 156.25 L 13.75 161.25 L 16.25 161.25 L 16.25 156.25 L 21.25 156.25 L 21.25 153.75 L 6.25 153.75 L 6.25 131.25 L 13.75 131.25 L 13.75 136.25 L 18.75 136.25 L 18.75 138.75 L 11.25 138.75 L 11.25 133.75 L 8.75 133.75 L 8.75 151.25 L 11.25 151.25 L 11.25 141.25 L 18.75 141.25 L 18.75 146.25 L 21.25 146.25 L 21.25 133.75 L 16.25 133.75 L 16.25 123.75 L 13.75 123.75 L 13.75 128.75 L 6.25 128.75 L 6.25 118.75 L 3.75 118.75 L 3.75 156.25 L 8.75 156.25 L 8.75 163.75 L 3.75 163.75 L 3.75 166.25 L 13.75 166.25 L 13.75 188.75 L 3.75 188.75 L 3.75 191.25 L 8.75 191.25 L 8.75 201.25 L 13.75 201.25 L 13.75 206.25 L 18.75 206.25 L 18.75 226.25 L 23.75 226.25 L 23.75 241.25 L 26.25 241.25 L 26.25 236.25 L 33.75 236.25 L 33.75 238.75 L 28.75 238.75 L 28.75 243.75 L 21.25 243.75 L 21.25 238.75 L 16.25 238.75 L 16.25 236.25 L 21.25 236.25 L 21.25 228.75 L 18.75 228.75 L 18.75 233.75 L 11.25 233.75 L 11.25 228.75 L 6.25 228.75 L 6.25 218.75 L 3.75 218.75 L 3.75 231.25 L 8.75 231.25 L 8.75 236.25 L 13.75 236.25 L 13.75 241.25 L 18.75 241.25 L 18.75 253.75 L 6.25 253.75 L 6.25 241.25 L 11.25 241.25 L 11.25 238.75 L 6.25 238.75 L 6.25 233.75 L 3.75 233.75 L 3.75 243.75 L 1.25 243.75 L 1.25 216.25 L 8.75 216.25 L 8.75 226.25 L 13.75 226.25 L 13.75 231.25 L 16.25 231.25 L 16.25 208.75 L 11.25 208.75 L 11.25 203.75 L 6.25 203.75 L 6.25 193.75 L 3.75 193.75 L 3.75 206.25 L 8.75 206.25 L 8.75 211.25 L 13.75 211.25 L 13.75 223.75 L 11.25 223.75 L 11.25 213.75 L 1.25 213.75 L 1.25 211.25 L 6.25 211.25 L 6.25 208.75 L 1.25 208.75 Z M 6.25 90 L 6.25 83.75 L 3.75 83.75 L 3.75 88.75 L 1.25 88.75 L 1.25 76.25 L 6.25 76.25 L 6.25 68.75 L 3.75 68.75 L 3.75 73.75 L 1.25 73.75 L 1.25 61.25 L 11.25 61.25 L 11.25 58.75 L 6.25 58.75 L 6.25 51.25 L 16.25 51.25 L 16.25 48.75 L 6.25 48.75 L 6.25 43.75 L 3.75 43.75 L 3.75 58.75 L 1.25 58.75 L 1.25 11.25 L 8.75 11.25 L 8.75 36.25 L 18.75 36.25 L 18.75 41.25 L 21.25 41.25 L 21.25 21.25 L 26.25 21.25 L 26.25 3.75 L 18.75 3.75 L 18.75 13.75 L 13.75 13.75 L 13.75 16.25 L 21.25 16.25 L 21.25 6.25 L 23.75 6.25 L 23.75 18.75 L 18.75 18.75 L 18.75 33.75 L 11.25 33.75 L 11.25 21.25 L 13.75 21.25 L 13.75 31.25 L 16.25 31.25 L 16.25 18.75 L 11.25 18.75 L 11.25 8.75 L 6.25 8.75 L 6.25 3.75 L 3.75 3.75 L 3.75 8.75 L 1.25 8.75 L 1.25 1.25 L 13.75 1.25 L 13.75 3.75 L 8.75 3.75 L 8.75 6.25 L 13.75 6.25 L 13.75 11.25 L 16.25 11.25 L 16.25 1.25 L 38.75 1.25 L 38.75 6.25 L 46.25 6.25 L 46.25 3.75 L 41.25 3.75 L 41.25 1.25 L 48.75 1.25 L 48.75 23.75 L 41.25 23.75 L 41.25 21.25 L 46.25 21.25 L 46.25 8.75 L 36.25 8.75 L 36.25 3.75 L 28.75 3.75 L 28.75 23.75 L 23.75 23.75 L 23.75 43.75 L 11.25 43.75 L 11.25 41.25 L 16.25 41.25 L 16.25 38.75 L 6.25 38.75 L 6.25 13.75 L 3.75 13.75 L 3.75 41.25 L 8.75 41.25 L 8.75 46.25 L 18.75 46.25 L 18.75 53.75 L 8.75 53.75 L 8.75 56.25 L 13.75 56.25 L 13.75 83.75 L 11.25 83.75 L 11.25 63.75 L 3.75 63.75 L 3.75 66.25 L 8.75 66.25 L 8.75 78.75 L 3.75 78.75 L 3.75 81.25 L 8.75 81.25 L 8.75 93.75 L 3.75 93.75 L 3.75 96.25 L 13.75 96.25 L 13.75 98.75 L 8.75 98.75 L 8.75 108.75 L 6.25 108.75 L 6.25 103.75 L 3.75 103.75 L 3.75 111.25 L 23.75 111.25 L 23.75 113.75 L 13.75 113.75 L 13.75 116.25 L 26.25 116.25 L 26.25 108.75 L 11.25 108.75 L 11.25 101.25 L 16.25 101.25 L 16.25 96.25 L 23.75 96.25 L 23.75 101.25 L 26.25 101.25 L 26.25 91.25 L 31.25 91.25 L 31.25 88.75 L 26.25 88.75 L 26.25 83.75 L 23.75 83.75 L 23.75 93.75 L 11.25 93.75 L 11.25 86.25 L 16.25 86.25 L 16.25 76.25 L 26.25 76.25 L 26.25 68.75 L 23.75 68.75 L 23.75 73.75 L 16.25 73.75 L 16.25 61.25 L 33.75 61.25 L 33.75 81.25 L 38.75 81.25 L 38.75 86.25 L 48.75 86.25 L 48.75 96.25 L 53.75 96.25 L 53.75 103.75 L 36.25 103.75 L 36.25 101.25 L 41.25 101.25 L 41.25 98.75 L 33.75 98.75 L 33.75 106.25 L 38.75 106.25 L 38.75 121.25 L 43.75 121.25 L 43.75 133.75 L 36.25 133.75 L 36.25 128.75 L 33.75 128.75 L 33.75 133.75 L 28.75 133.75 L 28.75 136.25 L 38.75 136.25 L 38.75 148.75 L 33.75 148.75 L 33.75 151.25 L 41.25 151.25 L 41.25 146.25 L 48.75 146.25 L 48.75 151.25 L 53.75 151.25 L 53.75 163.75 L 46.25 163.75 L 46.25 158.75 L 38.75 158.75 L 38.75 168.75 L 33.75 168.75 L 33.75 176.25 L 38.75 176.25 L 38.75 181.25 L 53.75 181.25 L 53.75 188.75 L 43.75 188.75 L 43.75 191.25 L 48.75 191.25 L 48.75 198.75 L 38.75 198.75 L 38.75 208.75 L 33.75 208.75 L 33.75 218.75 L 26.25 218.75 L 26.25 213.75 L 23.75 213.75 L 23.75 221.25 L 28.75 221.25 L 28.75 231.25 L 38.75 231.25 L 38.75 241.25 L 43.75 241.25 L 43.75 253.75 L 31.25 253.75 L 31.25 241.25 L 36.25 241.25 L 36.25 233.75 L 26.25 233.75 L 26.25 223.75 L 21.25 223.75 L 21.25 211.25 L 28.75 211.25 L 28.75 216.25 L 31.25 216.25 L 31.25 206.25 L 36.25 206.25 L 36.25 196.25 L 46.25 196.25 L 46.25 193.75 L 41.25 193.75 L 41.25 186.25 L 51.25 186.25 L 51.25 183.75 L 36.25 183.75 L 36.25 178.75 L 31.25 178.75 L 31.25 166.25 L 36.25 166.25 L 36.25 156.25 L 48.75 156.25 L 48.75 161.25 L 51.25 161.25 L 51.25 153.75 L 46.25 153.75 L 46.25 148.75 L 43.75 148.75 L 43.75 153.75 L 31.25 153.75 L 31.25 146.25 L 36.25 146.25 L 36.25 138.75 L 26.25 138.75 L 26.25 131.25 L 31.25 131.25 L 31.25 126.25 L 38.75 126.25 L 38.75 131.25 L 41.25 131.25 L 41.25 123.75 L 36.25 123.75 L 36.25 108.75 L 31.25 108.75 L 31.25 96.25 L 43.75 96.25 L 43.75 101.25 L 51.25 101.25 L 51.25 98.75 L 46.25 98.75 L 46.25 88.75 L 36.25 88.75 L 36.25 83.75 L 31.25 83.75 L 31.25 63.75 L 18.75 63.75 L 18.75 71.25 L 21.25 71.25 L 21.25 66.25 L 28.75 66.25 L 28.75 78.75 L 18.75 78.75 L 18.75 88.75 L 13.75 88.75 L 13.75 91.25 L 21.25 91.25 L 21.25 81.25 L 28.75 81.25 L 28.75 86.25 L 33.75 86.25 L 33.75 91.25 L 43.75 91.25 L 43.75 93.75 L 28.75 93.75 L 28.75 103.75 L 21.25 103.75 L 21.25 98.75 L 18.75 98.75 L 18.75 103.75 L 13.75 103.75 L 13.75 106.25 L 28.75 106.25 L 28.75 118.75 L 23.75 118.75 L 23.75 121.25 L 31.25 121.25 L 31.25 111.25 L 33.75 111.25 L 33.75 123.75 L 28.75 123.75 L 28.75 128.75 L 21.25 128.75 L 21.25 126.25 L 26.25 126.25 L 26.25 123.75 L 21.25 123.75 L 21.25 118.75 L 11.25 118.75 L 11.25 113.75 L 1.25 113.75 L 1.25 101.25 L 6.25 101.25 L 6.25 98.75 L 1.25 98.75 L 1.25 91.25 L 6.25 91.25 Z M 56.25 20 L 56.25 16.25 L 58.75 16.25 L 58.75 21.25 L 63.75 21.25 L 63.75 28.75 L 43.75 28.75 L 43.75 31.25 L 48.75 31.25 L 48.75 36.25 L 51.25 36.25 L 51.25 31.25 L 58.75 31.25 L 58.75 38.75 L 56.25 38.75 L 56.25 33.75 L 53.75 33.75 L 53.75 38.75 L 48.75 38.75 L 48.75 53.75 L 41.25 53.75 L 41.25 38.75 L 36.25 38.75 L 36.25 33.75 L 31.25 33.75 L 31.25 28.75 L 28.75 28.75 L 28.75 48.75 L 23.75 48.75 L 23.75 51.25 L 28.75 51.25 L 28.75 56.25 L 31.25 56.25 L 31.25 36.25 L 33.75 36.25 L 33.75 41.25 L 38.75 41.25 L 38.75 61.25 L 41.25 61.25 L 41.25 56.25 L 48.75 56.25 L 48.75 68.75 L 43.75 68.75 L 43.75 81.25 L 53.75 81.25 L 53.75 86.25 L 56.25 86.25 L 56.25 81.25 L 66.25 81.25 L 66.25 68.75 L 58.75 68.75 L 58.75 76.25 L 61.25 76.25 L 61.25 71.25 L 63.75 71.25 L 63.75 78.75 L 51.25 78.75 L 51.25 73.75 L 48.75 73.75 L 48.75 78.75 L 46.25 78.75 L 46.25 71.25 L 51.25 71.25 L 51.25 66.25 L 53.75 66.25 L 53.75 76.25 L 56.25 76.25 L 56.25 66.25 L 73.75 66.25 L 73.75 71.25 L 81.25 71.25 L 81.25 68.75 L 76.25 68.75 L 76.25 66.25 L 83.75 66.25 L 83.75 78.75 L 73.75 78.75 L 73.75 88.75 L 68.75 88.75 L 68.75 93.75 L 58.75 93.75 L 58.75 116.25 L 61.25 116.25 L 61.25 101.25 L 71.25 101.25 L 71.25 98.75 L 61.25 98.75 L 61.25 96.25 L 76.25 96.25 L 76.25 93.75 L 71.25 93.75 L 71.25 91.25 L 76.25 91.25 L 76.25 81.25 L 83.75 81.25 L 83.75 86.25 L 91.25 86.25 L 91.25 83.75 L 86.25 83.75 L 86.25 81.25 L 93.75 81.25 L 93.75 88.75 L 81.25 88.75 L 81.25 83.75 L 78.75 83.75 L 78.75 106.25 L 81.25 106.25 L 81.25 101.25 L 83.75 101.25 L 83.75 113.75 L 78.75 113.75 L 78.75 121.25 L 88.75 121.25 L 88.75 126.25 L 91.25 126.25 L 91.25 113.75 L 88.75 113.75 L 88.75 118.75 L 81.25 118.75 L 81.25 116.25 L 86.25 116.25 L 86.25 111.25 L 93.75 111.25 L 93.75 133.75 L 88.75 133.75 L 88.75 136.25 L 96.25 136.25 L 96.25 126.25 L 98.75 126.25 L 98.75 138.75 L 86.25 138.75 L 86.25 131.25 L 91.25 131.25 L 91.25 128.75 L 81.25 128.75 L 81.25 126.25 L 86.25 126.25 L 86.25 123.75 L 76.25 123.75 L 76.25 111.25 L 81.25 111.25 L 81.25 108.75 L 76.25 108.75 L 76.25 98.75 L 73.75 98.75 L 73.75 103.75 L 63.75 103.75 L 63.75 106.25 L 73.75 106.25 L 73.75 113.75 L 68.75 113.75 L 68.75 116.25 L 73.75 116.25 L 73.75 126.25 L 78.75 126.25 L 78.75 131.25 L 83.75 131.25 L 83.75 141.25 L 88.75 141.25 L 88.75 151.25 L 96.25 151.25 L 96.25 148.75 L 91.25 148.75 L 91.25 141.25 L 108.75 141.25 L 108.75 153.75 L 103.75 153.75 L 103.75 156.25 L 108.75 156.25 L 108.75 161.25 L 118.75 161.25 L 118.75 163.75 L 103.75 163.75 L 103.75 173.75 L 91.25 173.75 L 91.25 163.75 L 88.75 163.75 L 88.75 168.75 L 71.25 168.75 L 71.25 161.25 L 73.75 161.25 L 73.75 166.25 L 76.25 166.25 L 76.25 151.25 L 78.75 151.25 L 78.75 161.25 L 81.25 161.25 L 81.25 148.75 L 71.25 148.75 L 71.25 146.25 L 76.25 146.25 L 76.25 138.75 L 73.75 138.75 L 73.75 143.75 L 68.75 143.75 L 68.75 151.25 L 73.75 151.25 L 73.75 158.75 L 68.75 158.75 L 68.75 173.75 L 63.75 173.75 L 63.75 176.25 L 71.25 176.25 L 71.25 171.25 L 78.75 171.25 L 78.75 176.25 L 81.25 176.25 L 81.25 171.25 L 88.75 171.25 L 88.75 176.25 L 98.75 176.25 L 98.75 188.75 L 93.75 188.75 L 93.75 191.25 L 108.75 191.25 L 108.75 198.75 L 103.75 198.75 L 103.75 203.75 L 96.25 203.75 L 96.25 198.75 L 93.75 198.75 L 93.75 208.75 L 91.25 208.75 L 91.25 203.75 L 88.75 203.75 L 88.75 208.75 L 83.75 208.75 L 83.75 218.75 L 78.75 218.75 L 78.75 221.25 L 83.75 221.25 L 83.75 226.25 L 88.75 226.25 L 88.75 231.25 L 91.25 231.25 L 91.25 226.25 L 96.25 226.25 L 96.25 221.25 L 98.75 221.25 L 98.75 241.25 L 103.75 241.25 L 103.75 243.75 L 96.25 243.75 L 96.25 238.75 L 91.25 238.75 L 91.25 236.25 L 96.25 236.25 L 96.25 228.75 L 93.75 228.75 L 93.75 233.75 L 86.25 233.75 L 86.25 228.75 L 83.75 228.75 L 83.75 236.25 L 88.75 236.25 L 88.75 241.25 L 93.75 241.25 L 93.75 253.75 L 81.25 253.75 L 81.25 241.25 L 86.25 241.25 L 86.25 238.75 L 81.25 238.75 L 81.25 223.75 L 76.25 223.75 L 76.25 216.25 L 81.25 216.25 L 81.25 206.25 L 86.25 206.25 L 86.25 201.25 L 91.25 201.25 L 91.25 196.25 L 98.75 196.25 L 98.75 201.25 L 101.25 201.25 L 101.25 196.25 L 106.25 196.25 L 106.25 193.75 L 91.25 193.75 L 91.25 186.25 L 96.25 186.25 L 96.25 178.75 L 86.25 178.75 L 86.25 173.75 L 83.75 173.75 L 83.75 178.75 L 76.25 178.75 L 76.25 173.75 L 73.75 173.75 L 73.75 178.75 L 61.25 178.75 L 61.25 171.25 L 66.25 171.25 L 66.25 156.25 L 71.25 156.25 L 71.25 153.75 L 66.25 153.75 L 66.25 141.25 L 71.25 141.25 L 71.25 136.25 L 78.75 136.25 L 78.75 146.25 L 83.75 146.25 L 83.75 163.75 L 78.75 163.75 L 78.75 166.25 L 86.25 166.25 L 86.25 161.25 L 93.75 161.25 L 93.75 171.25 L 101.25 171.25 L 101.25 161.25 L 106.25 161.25 L 106.25 158.75 L 101.25 158.75 L 101.25 151.25 L 106.25 151.25 L 106.25 143.75 L 93.75 143.75 L 93.75 146.25 L 103.75 146.25 L 103.75 148.75 L 98.75 148.75 L 98.75 153.75 L 88.75 153.75 L 88.75 156.25 L 98.75 156.25 L 98.75 168.75 L 96.25 168.75 L 96.25 158.75 L 86.25 158.75 L 86.25 143.75 L 81.25 143.75 L 81.25 133.75 L 76.25 133.75 L 76.25 128.75 L 71.25 128.75 L 71.25 118.75 L 66.25 118.75 L 66.25 111.25 L 71.25 111.25 L 71.25 108.75 L 63.75 108.75 L 63.75 121.25 L 68.75 121.25 L 68.75 128.75 L 56.25 128.75 L 56.25 123.75 L 51.25 123.75 L 51.25 118.75 L 48.75 118.75 L 48.75 126.25 L 53.75 126.25 L 53.75 128.75 L 48.75 128.75 L 48.75 133.75 L 46.25 133.75 L 46.25 118.75 L 41.25 118.75 L 41.25 111.25 L 46.25 111.25 L 46.25 108.75 L 41.25 108.75 L 41.25 106.25 L 53.75 106.25 L 53.75 113.75 L 51.25 113.75 L 51.25 108.75 L 48.75 108.75 L 48.75 113.75 L 43.75 113.75 L 43.75 116.25 L 53.75 116.25 L 53.75 121.25 L 58.75 121.25 L 58.75 126.25 L 66.25 126.25 L 66.25 123.75 L 61.25 123.75 L 61.25 118.75 L 56.25 118.75 L 56.25 93.75 L 51.25 93.75 L 51.25 91.25 L 61.25 91.25 L 61.25 86.25 L 63.75 86.25 L 63.75 91.25 L 66.25 91.25 L 66.25 86.25 L 71.25 86.25 L 71.25 76.25 L 81.25 76.25 L 81.25 73.75 L 71.25 73.75 L 71.25 68.75 L 68.75 68.75 L 68.75 83.75 L 58.75 83.75 L 58.75 88.75 L 51.25 88.75 L 51.25 83.75 L 41.25 83.75 L 41.25 78.75 L 36.25 78.75 L 36.25 66.25 L 38.75 66.25 L 38.75 76.25 L 41.25 76.25 L 41.25 66.25 L 46.25 66.25 L 46.25 58.75 L 43.75 58.75 L 43.75 63.75 L 36.25 63.75 L 36.25 43.75 L 33.75 43.75 L 33.75 58.75 L 16.25 58.75 L 16.25 56.25 L 26.25 56.25 L 26.25 53.75 L 21.25 53.75 L 21.25 46.25 L 26.25 46.25 L 26.25 26.25 L 31.25 26.25 L 31.25 21.25 L 36.25 21.25 L 36.25 16.25 L 41.25 16.25 L 41.25 13.75 L 33.75 13.75 L 33.75 18.75 L 31.25 18.75 L 31.25 6.25 L 33.75 6.25 L 33.75 11.25 L 43.75 11.25 L 43.75 18.75 L 38.75 18.75 L 38.75 28.75 L 36.25 28.75 L 36.25 23.75 L 33.75 23.75 L 33.75 31.25 L 38.75 31.25 L 38.75 36.25 L 43.75 36.25 L 43.75 51.25 L 46.25 51.25 L 46.25 33.75 L 41.25 33.75 L 41.25 26.25 L 61.25 26.25 L 61.25 23.75 L 51.25 23.75 L 51.25 1.25 L 93.75 1.25 L 93.75 18.75 L 83.75 18.75 L 83.75 21.25 L 96.25 21.25 L 96.25 1.25 L 103.75 1.25 L 103.75 21.25 L 108.75 21.25 L 108.75 26.25 L 111.25 26.25 L 111.25 21.25 L 121.25 21.25 L 121.25 18.75 L 106.25 18.75 L 106.25 6.25 L 113.75 6.25 L 113.75 11.25 L 121.25 11.25 L 121.25 8.75 L 116.25 8.75 L 116.25 3.75 L 106.25 3.75 L 106.25 1.25 L 123.75 1.25 L 123.75 3.75 L 118.75 3.75 L 118.75 6.25 L 123.75 6.25 L 123.75 13.75 L 111.25 13.75 L 111.25 8.75 L 108.75 8.75 L 108.75 16.25 L 123.75 16.25 L 123.75 23.75 L 113.75 23.75 L 113.75 33.75 L 108.75 33.75 L 108.75 38.75 L 101.25 38.75 L 101.25 28.75 L 91.25 28.75 L 91.25 26.25 L 103.75 26.25 L 103.75 36.25 L 106.25 36.25 L 106.25 31.25 L 111.25 31.25 L 111.25 28.75 L 106.25 28.75 L 106.25 23.75 L 101.25 23.75 L 101.25 3.75 L 98.75 3.75 L 98.75 23.75 L 81.25 23.75 L 81.25 16.25 L 91.25 16.25 L 91.25 3.75 L 78.75 3.75 L 78.75 6.25 L 88.75 6.25 L 88.75 13.75 L 66.25 13.75 L 66.25 8.75 L 58.75 8.75 L 58.75 11.25 L 63.75 11.25 L 63.75 16.25 L 68.75 16.25 L 68.75 26.25 L 71.25 26.25 L 71.25 16.25 L 78.75 16.25 L 78.75 33.75 L 63.75 33.75 L 63.75 41.25 L 73.75 41.25 L 73.75 63.75 L 51.25 63.75 L 51.25 41.25 L 61.25 41.25 L 61.25 31.25 L 76.25 31.25 L 76.25 18.75 L 73.75 18.75 L 73.75 28.75 L 66.25 28.75 L 66.25 18.75 L 61.25 18.75 L 61.25 13.75 L 56.25 13.75 L 56.25 6.25 L 68.75 6.25 L 68.75 11.25 L 86.25 11.25 L 86.25 8.75 L 76.25 8.75 L 76.25 3.75 L 73.75 3.75 L 73.75 8.75 L 71.25 8.75 L 71.25 3.75 L 53.75 3.75 L 53.75 21.25 L 56.25 21.25 Z M 75 36.25 L 81.25 36.25 L 81.25 26.25 L 88.75 26.25 L 88.75 31.25 L 98.75 31.25 L 98.75 41.25 L 108.75 41.25 L 108.75 48.75 L 91.25 48.75 L 91.25 38.75 L 88.75 38.75 L 88.75 53.75 L 83.75 53.75 L 83.75 56.25 L 91.25 56.25 L 91.25 51.25 L 113.75 51.25 L 113.75 66.25 L 116.25 66.25 L 116.25 51.25 L 121.25 51.25 L 121.25 48.75 L 111.25 48.75 L 111.25 41.25 L 116.25 41.25 L 116.25 38.75 L 111.25 38.75 L 111.25 36.25 L 116.25 36.25 L 116.25 31.25 L 121.25 31.25 L 121.25 28.75 L 116.25 28.75 L 116.25 26.25 L 123.75 26.25 L 123.75 43.75 L 121.25 43.75 L 121.25 33.75 L 118.75 33.75 L 118.75 43.75 L 113.75 43.75 L 113.75 46.25 L 123.75 46.25 L 123.75 73.75 L 118.75 73.75 L 118.75 78.75 L 108.75 78.75 L 108.75 83.75 L 103.75 83.75 L 103.75 91.25 L 118.75 91.25 L 118.75 101.25 L 121.25 101.25 L 121.25 83.75 L 118.75 83.75 L 118.75 88.75 L 106.25 88.75 L 106.25 86.25 L 111.25 86.25 L 111.25 81.25 L 113.75 81.25 L 113.75 86.25 L 116.25 86.25 L 116.25 81.25 L 121.25 81.25 L 121.25 76.25 L 123.75 76.25 L 123.75 108.75 L 113.75 108.75 L 113.75 116.25 L 121.25 116.25 L 121.25 113.75 L 116.25 113.75 L 116.25 111.25 L 123.75 111.25 L 123.75 128.75 L 116.25 128.75 L 116.25 123.75 L 108.75 123.75 L 108.75 126.25 L 113.75 126.25 L 113.75 128.75 L 106.25 128.75 L 106.25 98.75 L 98.75 98.75 L 98.75 101.25 L 103.75 101.25 L 103.75 108.75 L 101.25 108.75 L 101.25 103.75 L 96.25 103.75 L 96.25 96.25 L 113.75 96.25 L 113.75 103.75 L 111.25 103.75 L 111.25 98.75 L 108.75 98.75 L 108.75 121.25 L 118.75 121.25 L 118.75 126.25 L 121.25 126.25 L 121.25 118.75 L 111.25 118.75 L 111.25 106.25 L 121.25 106.25 L 121.25 103.75 L 116.25 103.75 L 116.25 93.75 L 101.25 93.75 L 101.25 81.25 L 106.25 81.25 L 106.25 63.75 L 103.75 63.75 L 103.75 68.75 L 101.25 68.75 L 101.25 58.75 L 96.25 58.75 L 96.25 56.25 L 108.75 56.25 L 108.75 58.75 L 103.75 58.75 L 103.75 61.25 L 108.75 61.25 L 108.75 71.25 L 113.75 71.25 L 113.75 73.75 L 108.75 73.75 L 108.75 76.25 L 116.25 76.25 L 116.25 71.25 L 121.25 71.25 L 121.25 53.75 L 118.75 53.75 L 118.75 68.75 L 111.25 68.75 L 111.25 53.75 L 93.75 53.75 L 93.75 58.75 L 81.25 58.75 L 81.25 41.25 L 83.75 41.25 L 83.75 51.25 L 86.25 51.25 L 86.25 36.25 L 93.75 36.25 L 93.75 46.25 L 106.25 46.25 L 106.25 43.75 L 96.25 43.75 L 96.25 33.75 L 86.25 33.75 L 86.25 28.75 L 83.75 28.75 L 83.75 38.75 L 78.75 38.75 L 78.75 61.25 L 88.75 61.25 L 88.75 76.25 L 91.25 76.25 L 91.25 61.25 L 98.75 61.25 L 98.75 71.25 L 103.75 71.25 L 103.75 78.75 L 98.75 78.75 L 98.75 93.75 L 83.75 93.75 L 83.75 96.25 L 93.75 96.25 L 93.75 103.75 L 88.75 103.75 L 88.75 106.25 L 98.75 106.25 L 98.75 111.25 L 103.75 111.25 L 103.75 118.75 L 98.75 118.75 L 98.75 121.25 L 103.75 121.25 L 103.75 136.25 L 106.25 136.25 L 106.25 131.25 L 113.75 131.25 L 113.75 136.25 L 116.25 136.25 L 116.25 131.25 L 123.75 131.25 L 123.75 153.75 L 116.25 153.75 L 116.25 146.25 L 118.75 146.25 L 118.75 151.25 L 121.25 151.25 L 121.25 143.75 L 113.75 143.75 L 113.75 156.25 L 123.75 156.25 L 123.75 173.75 L 116.25 173.75 L 116.25 171.25 L 121.25 171.25 L 121.25 168.75 L 113.75 168.75 L 113.75 176.25 L 123.75 176.25 L 123.75 198.75 L 121.25 198.75 L 121.25 193.75 L 118.75 193.75 L 118.75 201.25 L 123.75 201.25 L 123.75 233.75 L 118.75 233.75 L 118.75 236.25 L 123.75 236.25 L 123.75 243.75 L 121.25 243.75 L 121.25 238.75 L 116.25 238.75 L 116.25 233.75 L 106.25 233.75 L 106.25 231.25 L 121.25 231.25 L 121.25 223.75 L 118.75 223.75 L 118.75 228.75 L 106.25 228.75 L 106.25 213.75 L 101.25 213.75 L 101.25 211.25 L 113.75 211.25 L 113.75 213.75 L 108.75 213.75 L 108.75 216.25 L 116.25 216.25 L 116.25 208.75 L 98.75 208.75 L 98.75 213.75 L 88.75 213.75 L 88.75 221.25 L 91.25 221.25 L 91.25 216.25 L 103.75 216.25 L 103.75 236.25 L 113.75 236.25 L 113.75 241.25 L 118.75 241.25 L 118.75 253.75 L 106.25 253.75 L 106.25 241.25 L 111.25 241.25 L 111.25 238.75 L 101.25 238.75 L 101.25 218.75 L 93.75 218.75 L 93.75 223.75 L 86.25 223.75 L 86.25 211.25 L 96.25 211.25 L 96.25 206.25 L 118.75 206.25 L 118.75 218.75 L 108.75 218.75 L 108.75 226.25 L 116.25 226.25 L 116.25 223.75 L 111.25 223.75 L 111.25 221.25 L 121.25 221.25 L 121.25 203.75 L 116.25 203.75 L 116.25 191.25 L 121.25 191.25 L 121.25 178.75 L 111.25 178.75 L 111.25 168.75 L 108.75 168.75 L 108.75 178.75 L 103.75 178.75 L 103.75 186.25 L 111.25 186.25 L 111.25 183.75 L 106.25 183.75 L 106.25 181.25 L 118.75 181.25 L 118.75 188.75 L 116.25 188.75 L 116.25 183.75 L 113.75 183.75 L 113.75 203.75 L 106.25 203.75 L 106.25 201.25 L 111.25 201.25 L 111.25 188.75 L 101.25 188.75 L 101.25 176.25 L 106.25 176.25 L 106.25 166.25 L 121.25 166.25 L 121.25 158.75 L 111.25 158.75 L 111.25 141.25 L 121.25 141.25 L 121.25 133.75 L 118.75 133.75 L 118.75 138.75 L 111.25 138.75 L 111.25 133.75 L 108.75 133.75 L 108.75 138.75 L 101.25 138.75 L 101.25 123.75 L 96.25 123.75 L 96.25 116.25 L 101.25 116.25 L 101.25 113.75 L 96.25 113.75 L 96.25 108.75 L 86.25 108.75 L 86.25 101.25 L 91.25 101.25 L 91.25 98.75 L 81.25 98.75 L 81.25 91.25 L 96.25 91.25 L 96.25 76.25 L 101.25 76.25 L 101.25 73.75 L 96.25 73.75 L 96.25 63.75 L 93.75 63.75 L 93.75 78.75 L 86.25 78.75 L 86.25 63.75 L 76.25 63.75 L 76.25 38.75 L 66.25 38.75 L 66.25 36.25 Z M 86.25 190 L 86.25 188.75 L 81.25 188.75 L 81.25 183.75 L 78.75 183.75 L 78.75 193.75 L 73.75 193.75 L 73.75 196.25 L 78.75 196.25 L 78.75 213.75 L 76.25 213.75 L 76.25 203.75 L 73.75 203.75 L 73.75 218.75 L 71.25 218.75 L 71.25 213.75 L 61.25 213.75 L 61.25 196.25 L 66.25 196.25 L 66.25 193.75 L 58.75 193.75 L 58.75 198.75 L 53.75 198.75 L 53.75 201.25 L 58.75 201.25 L 58.75 213.75 L 53.75 213.75 L 53.75 223.75 L 51.25 223.75 L 51.25 213.75 L 48.75 213.75 L 48.75 218.75 L 41.25 218.75 L 41.25 213.75 L 38.75 213.75 L 38.75 221.25 L 48.75 221.25 L 48.75 233.75 L 43.75 233.75 L 43.75 236.25 L 56.25 236.25 L 56.25 233.75 L 51.25 233.75 L 51.25 226.25 L 56.25 226.25 L 56.25 216.25 L 68.75 216.25 L 68.75 221.25 L 73.75 221.25 L 73.75 226.25 L 78.75 226.25 L 78.75 243.75 L 71.25 243.75 L 71.25 238.75 L 63.75 238.75 L 63.75 241.25 L 68.75 241.25 L 68.75 253.75 L 56.25 253.75 L 56.25 241.25 L 61.25 241.25 L 61.25 236.25 L 73.75 236.25 L 73.75 241.25 L 76.25 241.25 L 76.25 228.75 L 71.25 228.75 L 71.25 223.75 L 66.25 223.75 L 66.25 218.75 L 58.75 218.75 L 58.75 228.75 L 53.75 228.75 L 53.75 231.25 L 66.25 231.25 L 66.25 228.75 L 61.25 228.75 L 61.25 221.25 L 63.75 221.25 L 63.75 226.25 L 68.75 226.25 L 68.75 231.25 L 73.75 231.25 L 73.75 233.75 L 58.75 233.75 L 58.75 238.75 L 48.75 238.75 L 48.75 241.25 L 53.75 241.25 L 53.75 243.75 L 46.25 243.75 L 46.25 238.75 L 41.25 238.75 L 41.25 231.25 L 46.25 231.25 L 46.25 223.75 L 38.75 223.75 L 38.75 226.25 L 43.75 226.25 L 43.75 228.75 L 31.25 228.75 L 31.25 221.25 L 33.75 221.25 L 33.75 226.25 L 36.25 226.25 L 36.25 211.25 L 43.75 211.25 L 43.75 216.25 L 46.25 216.25 L 46.25 211.25 L 56.25 211.25 L 56.25 203.75 L 53.75 203.75 L 53.75 208.75 L 46.25 208.75 L 46.25 203.75 L 43.75 203.75 L 43.75 208.75 L 41.25 208.75 L 41.25 201.25 L 48.75 201.25 L 48.75 206.25 L 51.25 206.25 L 51.25 196.25 L 56.25 196.25 L 56.25 193.75 L 51.25 193.75 L 51.25 191.25 L 68.75 191.25 L 68.75 198.75 L 63.75 198.75 L 63.75 211.25 L 71.25 211.25 L 71.25 203.75 L 68.75 203.75 L 68.75 208.75 L 66.25 208.75 L 66.25 201.25 L 76.25 201.25 L 76.25 198.75 L 71.25 198.75 L 71.25 191.25 L 76.25 191.25 L 76.25 183.75 L 73.75 183.75 L 73.75 188.75 L 61.25 188.75 L 61.25 183.75 L 58.75 183.75 L 58.75 188.75 L 56.25 188.75 L 56.25 178.75 L 46.25 178.75 L 46.25 168.75 L 43.75 168.75 L 43.75 178.75 L 41.25 178.75 L 41.25 173.75 L 36.25 173.75 L 36.25 171.25 L 41.25 171.25 L 41.25 161.25 L 43.75 161.25 L 43.75 166.25 L 61.25 166.25 L 61.25 163.75 L 56.25 163.75 L 56.25 156.25 L 61.25 156.25 L 61.25 136.25 L 66.25 136.25 L 66.25 133.75 L 53.75 133.75 L 53.75 146.25 L 56.25 146.25 L 56.25 136.25 L 58.75 136.25 L 58.75 153.75 L 56.25 153.75 L 56.25 148.75 L 51.25 148.75 L 51.25 143.75 L 46.25 143.75 L 46.25 138.75 L 43.75 138.75 L 43.75 143.75 L 41.25 143.75 L 41.25 136.25 L 48.75 136.25 L 48.75 141.25 L 51.25 141.25 L 51.25 131.25 L 73.75 131.25 L 73.75 133.75 L 68.75 133.75 L 68.75 138.75 L 63.75 138.75 L 63.75 158.75 L 58.75 158.75 L 58.75 161.25 L 63.75 161.25 L 63.75 168.75 L 58.75 168.75 L 58.75 173.75 L 51.25 173.75 L 51.25 171.25 L 56.25 171.25 L 56.25 168.75 L 48.75 168.75 L 48.75 176.25 L 58.75 176.25 L 58.75 181.25 L 68.75 181.25 L 68.75 183.75 L 63.75 183.75 L 63.75 186.25 L 71.25 186.25 L 71.25 181.25 L 83.75 181.25 L 83.75 186.25 L 86.25 186.25 L 86.25 181.25 L 93.75 181.25 L 93.75 183.75 L 88.75 183.75 L 88.75 193.75 L 83.75 193.75 L 83.75 196.25 L 88.75 196.25 L 88.75 198.75 L 83.75 198.75 L 83.75 203.75 L 81.25 203.75 L 81.25 191.25 L 86.25 191.25 Z M 86.25 190 "/>
<path fill-rule="evenodd" fill="rgb(80%, 40%, 40%)" fill-opacity="1" d="M 53.75 43.75 L 71.25 43.75 L 71.25 61.25 L 53.75 61.25 Z M 53.75 43.75 "/>
<path fill-rule="evenodd" fill="rgb(80%, 74.285714%, 40%)" fill-opacity="1" d="M 58.75 243.75 L 66.25 243.75 L 66.25 251.25 L 58.75 251.25 Z M 58.75 243.75 "/>
<path fill-rule="evenodd" fill="rgb(51.428571%, 80%, 40%)" fill-opacity="1" d="M 33.75 243.75 L 41.25 243.75 L 41.25 251.25 L 33.75 251.25 Z M 33.75 243.75 "/>
<path fill-rule="evenodd" fill="rgb(40%, 80%, 62.857143%)" fill-opacity="1" d="M 8.75 243.75 L 16.25 243.75 L 16.25 251.25 L 8.75 251.25 Z M 8.75 243.75 "/>
<path fill-rule="evenodd" fill="rgb(40%, 62.857143%, 80%)" fill-opacity="1" d="M 83.75 243.75 L 91.25 243.75 L 91.25 251.25 L 83.75 251.25 Z M 83.75 243.75 "/>
<path fill-rule="evenodd" fill="rgb(51.428571%, 40%, 80%)" fill-opacity="1" d="M 108.75 243.75 L 116.25 243.75 L 116.25 251.25 L 108.75 251.25 Z M 108.75 243.75 "/>
</svg>
