<?xml version="1.0" encoding="UTF-8"?>
<svg xmlns="http://www.w3.org/2000/svg" xmlns:xlink="http://www.w3.org/1999/xlink" width="84mm" height="60mm" viewBox="0 0 84 60">
<rect x="-8.4" y="-6" width="100.8" height="72" fill="rgb(90%, 90%, 90%)" fill-opacity="1"/>
<path fill-rule="evenodd" fill="rgb(20%, 20%, 20%)" fill-opacity="1" d="M 16.851562 40 L 16.851562 39.148438 L 11.148438 39.148438 L 11.148438 43.148438 L 7.148438 43.148438 L 7.148438 44.851562 L 11.148438 44.851562 L 11.148438 56.851562 L 16.851562 56.851562 L 16.851562 55.148438 L 12.851562 55.148438 L 12.851562 48.851562 L 20.851562 48.851562 L 20.851562 44.851562 L 24.851562 44.851562 L 24.851562 40.851562 L 28.851562 40.851562 L 28.851562 39.148438 L 20.851562 39.148438 L 20.851562 28.851562 L 23.148438 28.851562 L 23.148438 32.851562 L 24.851562 32.851562 L 24.851562 28.851562 L 28.851562 28.851562 L 28.851562 27.148438 L 20.851562 27.148438 L 20.851562 19.148438 L 16.851562 19.148438 L 16.851562 16.851562 L 28.851562 16.851562 L 28.851562 4.851562 L 32.851562 4.851562 L 32.851562 3.148438 L 19.148438 3.148438 L 19.148438 4.851562 L 27.148438 4.851562 L 27.148438 15.148438 L 15.148438 15.148438 L 15.148438 20.851562 L 19.148438 20.851562 L 19.148438 35.148438 L 4.851562 35.148438 L 4.851562 31.148438 L 0.851562 31.148438 L 0.851562 12.851562 L 3.148438 12.851562 L 3.148438 16.851562 L 4.851562 16.851562 L 4.851562 12.851562 L 8.851562 12.851562 L 8.851562 11.148438 L 0.851562 11.148438 L 0.851562 0.851562 L 11.148438 0.851562 L 11.148438 15.148438 L 7.148438 15.148438 L 7.148438 19.148438 L 3.148438 19.148438 L 3.148438 28.851562 L 4.851562 28.851562 L 4.851562 24.851562 L 15.148438 24.851562 L 15.148438 32.851562 L 16.851562 32.851562 L 16.851562 23.148438 L 12.851562 23.148438 L 12.851562 19.148438 L 11.148438 19.148438 L 11.148438 23.148438 L 4.851562 23.148438 L 4.851562 20.851562 L 8.851562 20.851562 L 8.851562 16.851562 L 12.851562 16.851562 L 12.851562 12.851562 L 24.851562 12.851562 L 24.851562 7.148438 L 16.851562 7.148438 L 16.851562 3.148438 L 15.148438 3.148438 L 15.148438 8.851562 L 23.148438 8.851562 L 23.148438 11.148438 L 12.851562 11.148438 L 12.851562 0.851562 L 35.148438 0.851562 L 35.148438 7.148438 L 31.148438 7.148438 L 31.148438 19.148438 L 23.148438 19.148438 L 23.148438 24.851562 L 31.148438 24.851562 L 31.148438 31.148438 L 27.148438 31.148438 L 27.148438 35.148438 L 23.148438 35.148438 L 23.148438 36.851562 L 31.148438 36.851562 L 31.148438 43.148438 L 27.148438 43.148438 L 27.148438 47.148438 L 23.148438 47.148438 L 23.148438 51.148438 L 15.148438 51.148438 L 15.148438 52.851562 L 19.148438 52.851562 L 19.148438 56.851562 L 20.851562 56.851562 L 20.851562 52.851562 L 32.851562 52.851562 L 32.851562 51.148438 L 24.851562 51.148438 L 24.851562 48.851562 L 28.851562 48.851562 L 28.851562 44.851562 L 47.148438 44.851562 L 47.148438 55.148438 L 39.148438 55.148438 L 39.148438 56.851562 L 60.851562 56.851562 L 60.851562 55.148438 L 56.851562 55.148438 L 56.851562 47.148438 L 51.148438 47.148438 L 51.148438 48.851562 L 55.148438 48.851562 L 55.148438 55.148438 L 48.851562 55.148438 L 48.851562 52.851562 L 52.851562 52.851562 L 52.851562 51.148438 L 48.851562 51.148438 L 48.851562 43.148438 L 32.851562 43.148438 L 32.851562 35.148438 L 28.851562 35.148438 L 28.851562 32.851562 L 32.851562 32.851562 L 32.851562 23.148438 L 24.851562 23.148438 L 24.851562 20.851562 L 40.851562 20.851562 L 40.851562 16.851562 L 44.851562 16.851562 L 44.851562 15.148438 L 39.148438 15.148438 L 39.148438 19.148438 L 32.851562 19.148438 L 32.851562 8.851562 L 35.148438 8.851562 L 35.148438 16.851562 L 36.851562 16.851562 L 36.851562 0.851562 L 63.148438 0.851562 L 63.148438 7.148438 L 59.148438 7.148438 L 59.148438 8.851562 L 63.148438 8.851562 L 63.148438 12.851562 L 71.148438 12.851562 L 71.148438 19.148438 L 67.148438 19.148438 L 67.148438 23.148438 L 63.148438 23.148438 L 63.148438 27.148438 L 55.148438 27.148438 L 55.148438 32.851562 L 60.851562 32.851562 L 60.851562 31.148438 L 56.851562 31.148438 L 56.851562 28.851562 L 68.851562 28.851562 L 68.851562 27.148438 L 64.851562 27.148438 L 64.851562 24.851562 L 79.148438 24.851562 L 79.148438 32.851562 L 80.851562 32.851562 L 80.851562 11.148438 L 75.148438 11.148438 L 75.148438 12.851562 L 79.148438 12.851562 L 79.148438 23.148438 L 68.851562 23.148438 L 68.851562 20.851562 L 72.851562 20.851562 L 72.851562 16.851562 L 75.148438 16.851562 L 75.148438 20.851562 L 76.851562 20.851562 L 76.851562 15.148438 L 72.851562 15.148438 L 72.851562 7.148438 L 68.851562 7.148438 L 68.851562 3.148438 L 67.148438 3.148438 L 67.148438 8.851562 L 71.148438 8.851562 L 71.148438 11.148438 L 64.851562 11.148438 L 64.851562 0.851562 L 71.148438 0.851562 L 71.148438 4.851562 L 72.851562 4.851562 L 72.851562 0.851562 L 83.148438 0.851562 L 83.148438 39.148438 L 79.148438 39.148438 L 79.148438 40.851562 L 83.148438 40.851562 L 83.148438 43.148438 L 76.851562 43.148438 L 76.851562 39.148438 L 68.851562 39.148438 L 68.851562 36.851562 L 80.851562 36.851562 L 80.851562 35.148438 L 64.851562 35.148438 L 64.851562 32.851562 L 68.851562 32.851562 L 68.851562 31.148438 L 63.148438 31.148438 L 63.148438 35.148438 L 52.851562 35.148438 L 52.851562 20.851562 L 56.851562 20.851562 L 56.851562 15.148438 L 52.851562 15.148438 L 52.851562 11.148438 L 51.148438 11.148438 L 51.148438 16.851562 L 55.148438 16.851562 L 55.148438 19.148438 L 48.851562 19.148438 L 48.851562 4.851562 L 55.148438 4.851562 L 55.148438 7.148438 L 51.148438 7.148438 L 51.148438 8.851562 L 55.148438 8.851562 L 55.148438 12.851562 L 59.148438 12.851562 L 59.148438 16.851562 L 63.148438 16.851562 L 63.148438 19.148438 L 59.148438 19.148438 L 59.148438 23.148438 L 55.148438 23.148438 L 55.148438 24.851562 L 60.851562 24.851562 L 60.851562 20.851562 L 64.851562 20.851562 L 64.851562 16.851562 L 68.851562 16.851562 L 68.851562 15.148438 L 60.851562 15.148438 L 60.851562 11.148438 L 56.851562 11.148438 L 56.851562 4.851562 L 60.851562 4.851562 L 60.851562 3.148438 L 39.148438 3.148438 L 39.148438 4.851562 L 47.148438 4.851562 L 47.148438 19.148438 L 43.148438 19.148438 L 43.148438 20.851562 L 51.148438 20.851562 L 51.148438 36.851562 L 67.148438 36.851562 L 67.148438 43.148438 L 63.148438 43.148438 L 63.148438 48.851562 L 64.851562 48.851562 L 64.851562 44.851562 L 68.851562 44.851562 L 68.851562 40.851562 L 75.148438 40.851562 L 75.148438 44.851562 L 83.148438 44.851562 L 83.148438 59.148438 L 72.851562 59.148438 L 72.851562 48.851562 L 80.851562 48.851562 L 80.851562 47.148438 L 72.851562 47.148438 L 72.851562 43.148438 L 71.148438 43.148438 L 71.148438 47.148438 L 67.148438 47.148438 L 67.148438 51.148438 L 60.851562 51.148438 L 60.851562 40.851562 L 64.851562 40.851562 L 64.851562 39.148438 L 35.148438 39.148438 L 35.148438 40.851562 L 59.148438 40.851562 L 59.148438 43.148438 L 51.148438 43.148438 L 51.148438 44.851562 L 59.148438 44.851562 L 59.148438 52.851562 L 68.851562 52.851562 L 68.851562 48.851562 L 71.148438 48.851562 L 71.148438 59.148438 L 64.851562 59.148438 L 64.851562 56.851562 L 68.851562 56.851562 L 68.851562 55.148438 L 63.148438 55.148438 L 63.148438 59.148438 L 24.851562 59.148438 L 24.851562 56.851562 L 36.851562 56.851562 L 36.851562 47.148438 L 31.148438 47.148438 L 31.148438 48.851562 L 35.148438 48.851562 L 35.148438 55.148438 L 23.148438 55.148438 L 23.148438 59.148438 L 0.851562 59.148438 L 0.851562 48.851562 L 8.851562 48.851562 L 8.851562 47.148438 L 4.851562 47.148438 L 4.851562 40.851562 L 8.851562 40.851562 L 8.851562 39.148438 L 3.148438 39.148438 L 3.148438 47.148438 L 0.851562 47.148438 L 0.851562 32.851562 L 3.148438 32.851562 L 3.148438 36.851562 L 19.148438 36.851562 L 19.148438 40.851562 L 23.148438 40.851562 L 23.148438 43.148438 L 15.148438 43.148438 L 15.148438 44.851562 L 19.148438 44.851562 L 19.148438 47.148438 L 12.851562 47.148438 L 12.851562 40.851562 L 16.851562 40.851562 Z M 16.851562 40 "/>
<path fill-rule="evenodd" fill="rgb(80%, 40%, 40%)" fill-opacity="1" d="M 3.148438 3.148438 L 8.847656 3.148438 L 8.847656 8.847656 L 3.148438 8.847656 Z M 3.148438 3.148438 "/>
<path fill-rule="evenodd" fill="rgb(40%, 80%, 40%)" fill-opacity="1" d="M 75.148438 51.148438 L 80.847656 51.148438 L 80.847656 56.847656 L 75.148438 56.847656 Z M 75.148438 51.148438 "/>
</svg>
