<?xml version="1.0" encoding="UTF-8"?>
<svg xmlns="http://www.w3.org/2000/svg" xmlns:xlink="http://www.w3.org/1999/xlink" width="100mm" height="100mm" viewBox="0 0 100 100">
<rect x="-10" y="-10" width="120" height="120" fill="rgb(90%, 90%, 90%)" fill-opacity="1"/>
<path fill-rule="evenodd" fill="rgb(20%, 20%, 20%)" fill-opacity="1" d="M 10.375 28.570312 L 10.375 15.136719 L 15.136719 15.136719 L 15.136719 10.375 L 24.660156 10.375 L 24.660156 8.671875 L 10.375 8.671875 L 10.375 3.910156 L 8.671875 3.910156 L 8.671875 10.375 L 13.4375 10.375 L 13.4375 13.4375 L 3.910156 13.4375 L 3.910156 24.660156 L 5.613281 24.660156 L 5.613281 15.136719 L 8.671875 15.136719 L 8.671875 32.484375 L 3.910156 32.484375 L 3.910156 46.769531 L 0.851562 46.769531 L 0.851562 29.421875 L 5.613281 29.421875 L 5.613281 27.722656 L 0.851562 27.722656 L 0.851562 0.851562 L 3.910156 0.851562 L 3.910156 10.375 L 5.613281 10.375 L 5.613281 0.851562 L 42.007812 0.851562 L 42.007812 5.613281 L 43.707031 5.613281 L 43.707031 0.851562 L 65.816406 0.851562 L 65.816406 8.671875 L 61.054688 8.671875 L 61.054688 15.136719 L 75.339844 15.136719 L 75.339844 19.898438 L 80.101562 19.898438 L 80.101562 27.722656 L 70.578125 27.722656 L 70.578125 32.484375 L 62.753906 32.484375 L 62.753906 22.960938 L 56.292969 22.960938 L 56.292969 24.660156 L 61.054688 24.660156 L 61.054688 32.484375 L 56.292969 32.484375 L 56.292969 34.183594 L 61.054688 34.183594 L 61.054688 42.007812 L 51.53125 42.007812 L 51.53125 48.46875 L 53.230469 48.46875 L 53.230469 43.707031 L 62.753906 43.707031 L 62.753906 34.183594 L 72.277344 34.183594 L 72.277344 29.421875 L 81.800781 29.421875 L 81.800781 24.660156 L 86.5625 24.660156 L 86.5625 19.898438 L 96.089844 19.898438 L 96.089844 13.4375 L 91.328125 13.4375 L 91.328125 3.910156 L 89.625 3.910156 L 89.625 8.671875 L 80.101562 8.671875 L 80.101562 15.136719 L 86.5625 15.136719 L 86.5625 13.4375 L 81.800781 13.4375 L 81.800781 10.375 L 89.625 10.375 L 89.625 15.136719 L 94.386719 15.136719 L 94.386719 18.199219 L 84.863281 18.199219 L 84.863281 22.960938 L 81.800781 22.960938 L 81.800781 18.199219 L 77.039062 18.199219 L 77.039062 13.4375 L 62.753906 13.4375 L 62.753906 10.375 L 67.515625 10.375 L 67.515625 5.613281 L 72.277344 5.613281 L 72.277344 3.910156 L 67.515625 3.910156 L 67.515625 0.851562 L 84.863281 0.851562 L 84.863281 3.910156 L 75.339844 3.910156 L 75.339844 8.671875 L 70.578125 8.671875 L 70.578125 10.375 L 77.039062 10.375 L 77.039062 5.613281 L 86.5625 5.613281 L 86.5625 0.851562 L 99.148438 0.851562 L 99.148438 8.671875 L 96.089844 8.671875 L 96.089844 3.910156 L 94.386719 3.910156 L 94.386719 10.375 L 99.148438 10.375 L 99.148438 27.722656 L 94.386719 27.722656 L 94.386719 29.421875 L 99.148438 29.421875 L 99.148438 42.007812 L 91.328125 42.007812 L 91.328125 37.246094 L 84.863281 37.246094 L 84.863281 38.945312 L 89.625 38.945312 L 89.625 43.707031 L 99.148438 43.707031 L 99.148438 46.769531 L 77.039062 46.769531 L 77.039062 42.007812 L 70.578125 42.007812 L 70.578125 43.707031 L 75.339844 43.707031 L 75.339844 46.769531 L 70.578125 46.769531 L 70.578125 51.53125 L 61.054688 51.53125 L 61.054688 57.992188 L 62.753906 57.992188 L 62.753906 53.230469 L 65.816406 53.230469 L 65.816406 61.054688 L 53.230469 61.054688 L 53.230469 56.292969 L 46.769531 56.292969 L 46.769531 57.992188 L 51.53125 57.992188 L 51.53125 62.753906 L 56.292969 62.753906 L 56.292969 67.515625 L 57.992188 67.515625 L 57.992188 62.753906 L 65.816406 62.753906 L 65.816406 67.515625 L 67.515625 67.515625 L 67.515625 53.230469 L 72.277344 53.230469 L 72.277344 48.46875 L 99.148438 48.46875 L 99.148438 51.53125 L 75.339844 51.53125 L 75.339844 56.292969 L 70.578125 56.292969 L 70.578125 70.578125 L 62.753906 70.578125 L 62.753906 65.816406 L 61.054688 65.816406 L 61.054688 70.578125 L 53.230469 70.578125 L 53.230469 65.816406 L 48.46875 65.816406 L 48.46875 61.054688 L 43.707031 61.054688 L 43.707031 56.292969 L 32.484375 56.292969 L 32.484375 57.992188 L 37.246094 57.992188 L 37.246094 62.753906 L 38.945312 62.753906 L 38.945312 57.992188 L 42.007812 57.992188 L 42.007812 62.753906 L 46.769531 62.753906 L 46.769531 72.277344 L 48.46875 72.277344 L 48.46875 67.515625 L 51.53125 67.515625 L 51.53125 80.101562 L 46.769531 80.101562 L 46.769531 86.5625 L 48.46875 86.5625 L 48.46875 81.800781 L 57.992188 81.800781 L 57.992188 75.339844 L 56.292969 75.339844 L 56.292969 80.101562 L 53.230469 80.101562 L 53.230469 72.277344 L 65.816406 72.277344 L 65.816406 77.039062 L 70.578125 77.039062 L 70.578125 84.863281 L 65.816406 84.863281 L 65.816406 89.625 L 61.054688 89.625 L 61.054688 96.089844 L 72.277344 96.089844 L 72.277344 94.386719 L 62.753906 94.386719 L 62.753906 91.328125 L 67.515625 91.328125 L 67.515625 86.5625 L 81.800781 86.5625 L 81.800781 84.863281 L 77.039062 84.863281 L 77.039062 80.101562 L 75.339844 80.101562 L 75.339844 84.863281 L 72.277344 84.863281 L 72.277344 75.339844 L 67.515625 75.339844 L 67.515625 72.277344 L 72.277344 72.277344 L 72.277344 57.992188 L 80.101562 57.992188 L 80.101562 62.753906 L 84.863281 62.753906 L 84.863281 70.578125 L 80.101562 70.578125 L 80.101562 72.277344 L 84.863281 72.277344 L 84.863281 77.039062 L 96.089844 77.039062 L 96.089844 75.339844 L 91.328125 75.339844 L 91.328125 57.992188 L 96.089844 57.992188 L 96.089844 56.292969 L 84.863281 56.292969 L 84.863281 57.992188 L 89.625 57.992188 L 89.625 75.339844 L 86.5625 75.339844 L 86.5625 61.054688 L 81.800781 61.054688 L 81.800781 56.292969 L 77.039062 56.292969 L 77.039062 53.230469 L 99.148438 53.230469 L 99.148438 70.578125 L 96.089844 70.578125 L 96.089844 61.054688 L 94.386719 61.054688 L 94.386719 72.277344 L 99.148438 72.277344 L 99.148438 99.148438 L 91.328125 99.148438 L 91.328125 94.386719 L 84.863281 94.386719 L 84.863281 96.089844 L 89.625 96.089844 L 89.625 99.148438 L 77.039062 99.148438 L 77.039062 91.328125 L 80.101562 91.328125 L 80.101562 96.089844 L 81.800781 96.089844 L 81.800781 91.328125 L 86.5625 91.328125 L 86.5625 81.800781 L 94.386719 81.800781 L 94.386719 89.625 L 91.328125 89.625 L 91.328125 84.863281 L 89.625 84.863281 L 89.625 91.328125 L 94.386719 91.328125 L 94.386719 96.089844 L 96.089844 96.089844 L 96.089844 80.101562 L 81.800781 80.101562 L 81.800781 75.339844 L 77.039062 75.339844 L 77.039062 67.515625 L 81.800781 67.515625 L 81.800781 65.816406 L 77.039062 65.816406 L 77.039062 61.054688 L 75.339844 61.054688 L 75.339844 77.039062 L 80.101562 77.039062 L 80.101562 81.800781 L 84.863281 81.800781 L 84.863281 89.625 L 70.578125 89.625 L 70.578125 91.328125 L 75.339844 91.328125 L 75.339844 99.148438 L 48.46875 99.148438 L 48.46875 94.386719 L 46.769531 94.386719 L 46.769531 99.148438 L 43.707031 99.148438 L 43.707031 91.328125 L 53.230469 91.328125 L 53.230469 86.5625 L 56.292969 86.5625 L 56.292969 94.386719 L 51.53125 94.386719 L 51.53125 96.089844 L 57.992188 96.089844 L 57.992188 86.5625 L 62.753906 86.5625 L 62.753906 81.800781 L 67.515625 81.800781 L 67.515625 80.101562 L 62.753906 80.101562 L 62.753906 75.339844 L 61.054688 75.339844 L 61.054688 84.863281 L 51.53125 84.863281 L 51.53125 89.625 L 43.707031 89.625 L 43.707031 77.039062 L 48.46875 77.039062 L 48.46875 75.339844 L 43.707031 75.339844 L 43.707031 65.816406 L 29.421875 65.816406 L 29.421875 62.753906 L 34.183594 62.753906 L 34.183594 61.054688 L 29.421875 61.054688 L 29.421875 24.660156 L 46.769531 24.660156 L 46.769531 32.484375 L 42.007812 32.484375 L 42.007812 34.183594 L 48.46875 34.183594 L 48.46875 22.960938 L 34.183594 22.960938 L 34.183594 8.671875 L 32.484375 8.671875 L 32.484375 22.960938 L 27.722656 22.960938 L 27.722656 32.484375 L 24.660156 32.484375 L 24.660156 27.722656 L 19.898438 27.722656 L 19.898438 22.960938 L 18.199219 22.960938 L 18.199219 27.722656 L 15.136719 27.722656 L 15.136719 19.898438 L 19.898438 19.898438 L 19.898438 15.136719 L 27.722656 15.136719 L 27.722656 18.199219 L 22.960938 18.199219 L 22.960938 24.660156 L 24.660156 24.660156 L 24.660156 19.898438 L 29.421875 19.898438 L 29.421875 5.613281 L 37.246094 5.613281 L 37.246094 10.375 L 46.769531 10.375 L 46.769531 15.136719 L 48.46875 15.136719 L 48.46875 5.613281 L 56.292969 5.613281 L 56.292969 18.199219 L 53.230469 18.199219 L 53.230469 8.671875 L 51.53125 8.671875 L 51.53125 18.199219 L 38.945312 18.199219 L 38.945312 15.136719 L 43.707031 15.136719 L 43.707031 13.4375 L 37.246094 13.4375 L 37.246094 19.898438 L 51.53125 19.898438 L 51.53125 37.246094 L 46.769531 37.246094 L 46.769531 46.769531 L 43.707031 46.769531 L 43.707031 37.246094 L 38.945312 37.246094 L 38.945312 29.421875 L 43.707031 29.421875 L 43.707031 27.722656 L 32.484375 27.722656 L 32.484375 53.230469 L 56.292969 53.230469 L 56.292969 57.992188 L 57.992188 57.992188 L 57.992188 48.46875 L 67.515625 48.46875 L 67.515625 38.945312 L 77.039062 38.945312 L 77.039062 34.183594 L 80.101562 34.183594 L 80.101562 43.707031 L 86.5625 43.707031 L 86.5625 42.007812 L 81.800781 42.007812 L 81.800781 34.183594 L 86.5625 34.183594 L 86.5625 29.421875 L 89.625 29.421875 L 89.625 34.183594 L 94.386719 34.183594 L 94.386719 38.945312 L 96.089844 38.945312 L 96.089844 32.484375 L 91.328125 32.484375 L 91.328125 24.660156 L 96.089844 24.660156 L 96.089844 22.960938 L 89.625 22.960938 L 89.625 27.722656 L 84.863281 27.722656 L 84.863281 32.484375 L 75.339844 32.484375 L 75.339844 37.246094 L 65.816406 37.246094 L 65.816406 46.769531 L 56.292969 46.769531 L 56.292969 51.53125 L 34.183594 51.53125 L 34.183594 43.707031 L 38.945312 43.707031 L 38.945312 42.007812 L 34.183594 42.007812 L 34.183594 29.421875 L 37.246094 29.421875 L 37.246094 38.945312 L 42.007812 38.945312 L 42.007812 46.769531 L 37.246094 46.769531 L 37.246094 48.46875 L 48.46875 48.46875 L 48.46875 38.945312 L 57.992188 38.945312 L 57.992188 37.246094 L 53.230469 37.246094 L 53.230469 29.421875 L 57.992188 29.421875 L 57.992188 27.722656 L 53.230469 27.722656 L 53.230469 19.898438 L 70.578125 19.898438 L 70.578125 22.960938 L 65.816406 22.960938 L 65.816406 29.421875 L 67.515625 29.421875 L 67.515625 24.660156 L 77.039062 24.660156 L 77.039062 22.960938 L 72.277344 22.960938 L 72.277344 18.199219 L 57.992188 18.199219 L 57.992188 5.613281 L 62.753906 5.613281 L 62.753906 3.910156 L 46.769531 3.910156 L 46.769531 8.671875 L 38.945312 8.671875 L 38.945312 3.910156 L 13.4375 3.910156 L 13.4375 5.613281 L 27.722656 5.613281 L 27.722656 13.4375 L 18.199219 13.4375 L 18.199219 18.199219 L 13.4375 18.199219 L 13.4375 37.246094 L 8.671875 37.246094 L 8.671875 43.707031 L 10.375 43.707031 L 10.375 38.945312 L 15.136719 38.945312 L 15.136719 29.421875 L 22.960938 29.421875 L 22.960938 34.183594 L 27.722656 34.183594 L 27.722656 67.515625 L 42.007812 67.515625 L 42.007812 75.339844 L 38.945312 75.339844 L 38.945312 70.578125 L 37.246094 70.578125 L 37.246094 77.039062 L 42.007812 77.039062 L 42.007812 84.863281 L 37.246094 84.863281 L 37.246094 86.5625 L 42.007812 86.5625 L 42.007812 99.148438 L 29.421875 99.148438 L 29.421875 96.089844 L 38.945312 96.089844 L 38.945312 94.386719 L 27.722656 94.386719 L 27.722656 99.148438 L 10.375 99.148438 L 10.375 94.386719 L 3.910156 94.386719 L 3.910156 96.089844 L 8.671875 96.089844 L 8.671875 99.148438 L 0.851562 99.148438 L 0.851562 86.5625 L 3.910156 86.5625 L 3.910156 91.328125 L 13.4375 91.328125 L 13.4375 96.089844 L 19.898438 96.089844 L 19.898438 94.386719 L 15.136719 94.386719 L 15.136719 77.039062 L 18.199219 77.039062 L 18.199219 86.5625 L 19.898438 86.5625 L 19.898438 81.800781 L 27.722656 81.800781 L 27.722656 86.5625 L 29.421875 86.5625 L 29.421875 80.101562 L 19.898438 80.101562 L 19.898438 75.339844 L 13.4375 75.339844 L 13.4375 89.625 L 5.613281 89.625 L 5.613281 84.863281 L 0.851562 84.863281 L 0.851562 67.515625 L 3.910156 67.515625 L 3.910156 77.039062 L 5.613281 77.039062 L 5.613281 67.515625 L 19.898438 67.515625 L 19.898438 65.816406 L 10.375 65.816406 L 10.375 61.054688 L 8.671875 61.054688 L 8.671875 65.816406 L 0.851562 65.816406 L 0.851562 53.230469 L 5.613281 53.230469 L 5.613281 51.53125 L 0.851562 51.53125 L 0.851562 48.46875 L 8.671875 48.46875 L 8.671875 56.292969 L 3.910156 56.292969 L 3.910156 62.753906 L 5.613281 62.753906 L 5.613281 57.992188 L 13.4375 57.992188 L 13.4375 62.753906 L 22.960938 62.753906 L 22.960938 70.578125 L 8.671875 70.578125 L 8.671875 80.101562 L 3.910156 80.101562 L 3.910156 81.800781 L 8.671875 81.800781 L 8.671875 86.5625 L 10.375 86.5625 L 10.375 72.277344 L 22.960938 72.277344 L 22.960938 77.039062 L 32.484375 77.039062 L 32.484375 89.625 L 24.660156 89.625 L 24.660156 84.863281 L 22.960938 84.863281 L 22.960938 89.625 L 18.199219 89.625 L 18.199219 91.328125 L 22.960938 91.328125 L 22.960938 96.089844 L 24.660156 96.089844 L 24.660156 91.328125 L 38.945312 91.328125 L 38.945312 89.625 L 34.183594 89.625 L 34.183594 81.800781 L 38.945312 81.800781 L 38.945312 80.101562 L 34.183594 80.101562 L 34.183594 70.578125 L 27.722656 70.578125 L 27.722656 72.277344 L 32.484375 72.277344 L 32.484375 75.339844 L 24.660156 75.339844 L 24.660156 37.246094 L 19.898438 37.246094 L 19.898438 32.484375 L 18.199219 32.484375 L 18.199219 42.007812 L 13.4375 42.007812 L 13.4375 43.707031 L 19.898438 43.707031 L 19.898438 38.945312 L 22.960938 38.945312 L 22.960938 56.292969 L 18.199219 56.292969 L 18.199219 57.992188 L 22.960938 57.992188 L 22.960938 61.054688 L 15.136719 61.054688 L 15.136719 56.292969 L 10.375 56.292969 L 10.375 48.46875 L 18.199219 48.46875 L 18.199219 51.53125 L 13.4375 51.53125 L 13.4375 53.230469 L 19.898438 53.230469 L 19.898438 46.769531 L 5.613281 46.769531 L 5.613281 34.183594 L 10.375 34.183594 Z M 10.375 28.570312 "/>
<path fill-rule="evenodd" fill="rgb(80%, 40%, 40%)" fill-opacity="1" d="M 96.699219 49.082031 L 98.535156 49.082031 L 98.535156 50.917969 L 96.699219 50.917969 Z M 96.699219 49.082031 "/>
<path fill-rule="evenodd" fill="rgb(40%, 80%, 40%)" fill-opacity="1" d="M 1.460938 49.082031 L 3.296875 49.082031 L 3.296875 50.917969 L 1.460938 50.917969 Z M 1.460938 49.082031 "/>
</svg>
