<?xml version="1.0" encoding="UTF-8"?>
<svg xmlns="http://www.w3.org/2000/svg" xmlns:xlink="http://www.w3.org/1999/xlink" width="55mm" height="55mm" viewBox="0 0 55 55">
<rect x="-5.5" y="-5.5" width="66" height="66" fill="rgb(20%, 20%, 20%)" fill-opacity="1"/>
<path fill-rule="evenodd" fill="rgb(45%, 21%, 60%)" fill-opacity="1" d="M 11 25 L 11 21 L 19 21 L 19 24 L 14 24 L 14 26 L 21 26 L 21 11 L 29 11 L 29 16 L 36 16 L 36 14 L 31 14 L 31 9 L 19 9 L 19 19 L 9 19 L 9 29 L 1 29 L 1 26 L 6 26 L 6 16 L 16 16 L 16 9 L 9 9 L 9 11 L 14 11 L 14 14 L 6 14 L 6 6 L 34 6 L 34 11 L 39 11 L 39 16 L 41 16 L 41 11 L 46 11 L 46 9 L 36 9 L 36 6 L 49 6 L 49 24 L 39 24 L 39 26 L 44 26 L 44 29 L 39 29 L 39 34 L 36 34 L 36 21 L 46 21 L 46 14 L 44 14 L 44 19 L 26 19 L 26 14 L 24 14 L 24 21 L 34 21 L 34 44 L 24 44 L 24 46 L 41 46 L 41 44 L 36 44 L 36 36 L 41 36 L 41 31 L 46 31 L 46 26 L 54 26 L 54 29 L 49 29 L 49 34 L 44 34 L 44 39 L 39 39 L 39 41 L 44 41 L 44 46 L 46 46 L 46 36 L 49 36 L 49 49 L 21 49 L 21 41 L 31 41 L 31 24 L 24 24 L 24 29 L 14 29 L 14 31 L 19 31 L 19 36 L 21 36 L 21 31 L 26 31 L 26 26 L 29 26 L 29 39 L 26 39 L 26 34 L 24 34 L 24 39 L 19 39 L 19 49 L 6 49 L 6 31 L 9 31 L 9 36 L 14 36 L 14 44 L 11 44 L 11 39 L 9 39 L 9 46 L 16 46 L 16 34 L 11 34 Z M 11 25 "/>
<path fill-rule="evenodd" fill="rgb(80%, 40%, 40%)" fill-opacity="1" d="M 51.601562 26.601562 L 53.402344 26.601562 L 53.402344 28.402344 L 51.601562 28.402344 Z M 51.601562 26.601562 "/>
<path fill-rule="evenodd" fill="rgb(40%, 80%, 40%)" fill-opacity="1" d="M 1.601562 26.601562 L 3.402344 26.601562 L 3.402344 28.402344 L 1.601562 28.402344 Z M 1.601562 26.601562 "/>
</svg>
