<?xml version="1.0" encoding="UTF-8"?>
<svg xmlns="http://www.w3.org/2000/svg" xmlns:xlink="http://www.w3.org/1999/xlink" width="50mm" height="50mm" viewBox="0 0 50 50">
<rect x="-5" y="-5" width="60" height="60" fill="rgb(90%, 90%, 90%)" fill-opacity="1"/>
<path fill-rule="nonzero" fill="rgb(20%, 20%, 20%)" fill-opacity="1" d="M 14.535156 23.078125 L 14.535156 31.621094 L 18.378906 31.621094 L 18.378906 35.464844 L 23.925781 35.464844 L 23.925781 33.765625 L 20.082031 33.765625 L 20.082031 29.917969 L 16.234375 29.917969 L 16.234375 23.925781 L 22.226562 23.925781 L 22.226562 26.074219 L 18.378906 26.074219 L 18.378906 27.773438 L 22.226562 27.773438 L 22.226562 31.621094 L 33.765625 31.621094 L 33.765625 35.464844 L 35.464844 35.464844 L 35.464844 31.621094 L 39.3125 31.621094 L 39.3125 29.917969 L 27.773438 29.917969 L 27.773438 27.773438 L 41.457031 27.773438 L 41.457031 37.613281 L 39.3125 37.613281 L 39.3125 33.765625 L 37.613281 33.765625 L 37.613281 37.613281 L 27.773438 37.613281 L 27.773438 35.464844 L 31.621094 35.464844 L 31.621094 33.765625 L 26.074219 33.765625 L 26.074219 37.613281 L 16.234375 37.613281 L 16.234375 33.765625 L 12.386719 33.765625 L 12.386719 29.917969 L 8.542969 29.917969 L 8.542969 26.074219 L 6.84375 26.074219 L 6.84375 31.621094 L 10.6875 31.621094 L 10.6875 35.464844 L 14.535156 35.464844 L 14.535156 37.613281 L 10.6875 37.613281 L 10.6875 41.457031 L 6.84375 41.457031 L 6.84375 43.15625 L 12.386719 43.15625 L 12.386719 39.3125 L 33.765625 39.3125 L 33.765625 41.457031 L 26.074219 41.457031 L 26.074219 43.15625 L 35.464844 43.15625 L 35.464844 39.3125 L 43.15625 39.3125 L 43.15625 26.074219 L 39.3125 26.074219 L 39.3125 14.535156 L 35.464844 14.535156 L 35.464844 12.386719 L 41.457031 12.386719 L 41.457031 20.082031 L 43.15625 20.082031 L 43.15625 10.6875 L 26.074219 10.6875 L 26.074219 14.535156 L 16.234375 14.535156 L 16.234375 8.542969 L 20.082031 8.542969 L 20.082031 4.695312 L 23.925781 4.695312 L 23.925781 0.851562 L 26.074219 0.851562 L 26.074219 6.84375 L 22.226562 6.84375 L 22.226562 10.6875 L 18.378906 10.6875 L 18.378906 12.386719 L 23.925781 12.386719 L 23.925781 8.542969 L 43.15625 8.542969 L 43.15625 6.84375 L 27.773438 6.84375 L 27.773438 4.695312 L 45.304688 4.695312 L 45.304688 22.226562 L 41.457031 22.226562 L 41.457031 23.925781 L 45.304688 23.925781 L 45.304688 41.457031 L 37.613281 41.457031 L 37.613281 43.15625 L 45.304688 43.15625 L 45.304688 45.304688 L 23.925781 45.304688 L 23.925781 41.457031 L 14.535156 41.457031 L 14.535156 43.15625 L 22.226562 43.15625 L 22.226562 45.304688 L 4.695312 45.304688 L 4.695312 39.3125 L 8.542969 39.3125 L 8.542969 33.765625 L 6.84375 33.765625 L 6.84375 37.613281 L 4.695312 37.613281 L 4.695312 20.082031 L 6.84375 20.082031 L 6.84375 23.925781 L 10.6875 23.925781 L 10.6875 27.773438 L 12.386719 27.773438 L 12.386719 22.226562 L 8.542969 22.226562 L 8.542969 18.378906 L 4.695312 18.378906 L 4.695312 4.695312 L 10.6875 4.695312 L 10.6875 8.542969 L 12.386719 8.542969 L 12.386719 4.695312 L 18.378906 4.695312 L 18.378906 6.84375 L 14.535156 6.84375 L 14.535156 10.6875 L 8.542969 10.6875 L 8.542969 6.84375 L 6.84375 6.84375 L 6.84375 12.386719 L 14.535156 12.386719 L 14.535156 16.234375 L 18.378906 16.234375 L 18.378906 20.082031 L 20.082031 20.082031 L 20.082031 16.234375 L 27.773438 16.234375 L 27.773438 12.386719 L 33.765625 12.386719 L 33.765625 16.234375 L 37.613281 16.234375 L 37.613281 26.074219 L 31.621094 26.074219 L 31.621094 22.226562 L 29.917969 22.226562 L 29.917969 26.074219 L 26.074219 26.074219 L 26.074219 29.917969 L 23.925781 29.917969 L 23.925781 23.925781 L 27.773438 23.925781 L 27.773438 20.082031 L 33.765625 20.082031 L 33.765625 23.925781 L 35.464844 23.925781 L 35.464844 18.378906 L 31.621094 18.378906 L 31.621094 14.535156 L 29.917969 14.535156 L 29.917969 18.378906 L 22.226562 18.378906 L 22.226562 20.082031 L 26.074219 20.082031 L 26.074219 22.226562 L 16.234375 22.226562 L 16.234375 18.378906 L 12.386719 18.378906 L 12.386719 14.535156 L 6.84375 14.535156 L 6.84375 16.234375 L 10.6875 16.234375 L 10.6875 20.082031 L 14.535156 20.082031 Z M 14.535156 23.078125 "/>
<path fill-rule="nonzero" fill="rgb(70%, 21%, 21%)" fill-opacity="1" d="M 25.625 29.472656 L 24.371094 29.472656 L 24.371094 28.21875 L 25.625 28.21875 Z M 25.625 29.472656 "/>
<path fill-rule="nonzero" fill="rgb(21%, 70%, 21%)" fill-opacity="1" d="M 25.625 2.550781 L 24.371094 2.550781 L 24.371094 1.296875 L 25.625 1.296875 Z M 25.625 2.550781 "/>
</svg>
