<?xml version="1.0" encoding="UTF-8"?>
<svg xmlns="http://www.w3.org/2000/svg" xmlns:xlink="http://www.w3.org/1999/xlink" width="50mm" height="50mm" viewBox="0 0 50 50">
<rect x="-5" y="-5" width="60" height="60" fill="rgb(90%, 90%, 90%)" fill-opacity="1"/>
<path fill-rule="nonzero" fill="rgb(20%, 20%, 20%)" fill-opacity="1" d="M 15.382812 39.3125 L 16.234375 39.3125 L 16.234375 37.613281 L 12.386719 37.613281 L 12.386719 33.765625 L 10.6875 33.765625 L 10.6875 37.613281 L 4.695312 37.613281 L 4.695312 27.773438 L 18.378906 27.773438 L 18.378906 31.621094 L 29.917969 31.621094 L 29.917969 33.765625 L 26.074219 33.765625 L 26.074219 35.464844 L 33.765625 35.464844 L 33.765625 39.3125 L 37.613281 39.3125 L 37.613281 45.304688 L 26.074219 45.304688 L 26.074219 49.148438 L 23.925781 49.148438 L 23.925781 43.15625 L 35.464844 43.15625 L 35.464844 41.457031 L 31.621094 41.457031 L 31.621094 37.613281 L 23.925781 37.613281 L 23.925781 33.765625 L 16.234375 33.765625 L 16.234375 29.917969 L 6.84375 29.917969 L 6.84375 35.464844 L 8.542969 35.464844 L 8.542969 31.621094 L 14.535156 31.621094 L 14.535156 35.464844 L 18.378906 35.464844 L 18.378906 41.457031 L 14.535156 41.457031 L 14.535156 43.15625 L 20.082031 43.15625 L 20.082031 35.464844 L 22.226562 35.464844 L 22.226562 39.3125 L 29.917969 39.3125 L 29.917969 41.457031 L 22.226562 41.457031 L 22.226562 45.304688 L 8.542969 45.304688 L 8.542969 41.457031 L 6.84375 41.457031 L 6.84375 45.304688 L 4.695312 45.304688 L 4.695312 39.3125 L 10.6875 39.3125 L 10.6875 43.15625 L 12.386719 43.15625 L 12.386719 39.3125 Z M 15.382812 39.3125 "/>
<path fill-rule="nonzero" fill="rgb(20%, 20%, 20%)" fill-opacity="1" d="M 23.925781 11.539062 L 23.925781 0.851562 L 26.074219 0.851562 L 26.074219 14.535156 L 22.226562 14.535156 L 22.226562 16.234375 L 27.773438 16.234375 L 27.773438 4.695312 L 37.613281 4.695312 L 37.613281 6.84375 L 29.917969 6.84375 L 29.917969 12.386719 L 31.621094 12.386719 L 31.621094 8.542969 L 37.613281 8.542969 L 37.613281 12.386719 L 39.3125 12.386719 L 39.3125 4.695312 L 45.304688 4.695312 L 45.304688 18.378906 L 41.457031 18.378906 L 41.457031 22.226562 L 35.464844 22.226562 L 35.464844 18.378906 L 33.765625 18.378906 L 33.765625 26.074219 L 29.917969 26.074219 L 29.917969 29.917969 L 20.082031 29.917969 L 20.082031 20.082031 L 29.917969 20.082031 L 29.917969 23.925781 L 31.621094 23.925781 L 31.621094 16.234375 L 37.613281 16.234375 L 37.613281 20.082031 L 39.3125 20.082031 L 39.3125 16.234375 L 43.15625 16.234375 L 43.15625 6.84375 L 41.457031 6.84375 L 41.457031 14.535156 L 35.464844 14.535156 L 35.464844 10.6875 L 33.765625 10.6875 L 33.765625 14.535156 L 29.917969 14.535156 L 29.917969 18.378906 L 16.234375 18.378906 L 16.234375 14.535156 L 12.386719 14.535156 L 12.386719 10.6875 L 4.695312 10.6875 L 4.695312 4.695312 L 22.226562 4.695312 L 22.226562 10.6875 L 16.234375 10.6875 L 16.234375 8.542969 L 20.082031 8.542969 L 20.082031 6.84375 L 6.84375 6.84375 L 6.84375 8.542969 L 14.535156 8.542969 L 14.535156 12.386719 L 18.378906 12.386719 L 18.378906 16.234375 L 20.082031 16.234375 L 20.082031 12.386719 L 23.925781 12.386719 Z M 23.925781 11.539062 "/>
<path fill-rule="nonzero" fill="rgb(20%, 20%, 20%)" fill-opacity="1" d="M 39.3125 42.308594 L 39.3125 39.3125 L 41.457031 39.3125 L 41.457031 43.15625 L 43.15625 43.15625 L 43.15625 33.765625 L 41.457031 33.765625 L 41.457031 37.613281 L 35.464844 37.613281 L 35.464844 33.765625 L 31.621094 33.765625 L 31.621094 27.773438 L 35.464844 27.773438 L 35.464844 23.925781 L 37.613281 23.925781 L 37.613281 27.773438 L 39.3125 27.773438 L 39.3125 23.925781 L 43.15625 23.925781 L 43.15625 20.082031 L 45.304688 20.082031 L 45.304688 23.925781 L 49.148438 23.925781 L 49.148438 26.074219 L 41.457031 26.074219 L 41.457031 29.917969 L 33.765625 29.917969 L 33.765625 31.621094 L 37.613281 31.621094 L 37.613281 35.464844 L 39.3125 35.464844 L 39.3125 31.621094 L 43.15625 31.621094 L 43.15625 27.773438 L 45.304688 27.773438 L 45.304688 45.304688 L 39.3125 45.304688 Z M 39.3125 42.308594 "/>
<path fill-rule="nonzero" fill="rgb(20%, 20%, 20%)" fill-opacity="1" d="M 7.691406 12.386719 L 10.6875 12.386719 L 10.6875 14.535156 L 6.84375 14.535156 L 6.84375 20.082031 L 8.542969 20.082031 L 8.542969 16.234375 L 14.535156 16.234375 L 14.535156 20.082031 L 18.378906 20.082031 L 18.378906 26.074219 L 0.851562 26.074219 L 0.851562 23.925781 L 16.234375 23.925781 L 16.234375 22.226562 L 12.386719 22.226562 L 12.386719 18.378906 L 10.6875 18.378906 L 10.6875 22.226562 L 4.695312 22.226562 L 4.695312 12.386719 Z M 7.691406 12.386719 "/>
<path fill-rule="nonzero" fill="rgb(80%, 40%, 40%)" fill-opacity="1" d="M 22.226562 22.226562 L 27.773438 22.226562 L 27.773438 27.773438 L 22.226562 27.773438 Z M 22.226562 22.226562 "/>
<path fill-rule="nonzero" fill="rgb(80%, 80%, 40%)" fill-opacity="1" d="M 24.355469 1.277344 L 25.644531 1.277344 L 25.644531 2.566406 L 24.355469 2.566406 Z M 24.355469 1.277344 "/>
<path fill-rule="nonzero" fill="rgb(40%, 80%, 40%)" fill-opacity="1" d="M 47.433594 24.355469 L 48.722656 24.355469 L 48.722656 25.644531 L 47.433594 25.644531 Z M 47.433594 24.355469 "/>
<path fill-rule="nonzero" fill="rgb(40%, 80%, 80%)" fill-opacity="1" d="M 24.355469 47.433594 L 25.644531 47.433594 L 25.644531 48.722656 L 24.355469 48.722656 Z M 24.355469 47.433594 "/>
<path fill-rule="nonzero" fill="rgb(40%, 40%, 80%)" fill-opacity="1" d="M 1.277344 24.355469 L 2.566406 24.355469 L 2.566406 25.644531 L 1.277344 25.644531 Z M 1.277344 24.355469 "/>
</svg>
