<?xml version="1.0" encoding="UTF-8"?>
<svg xmlns="http://www.w3.org/2000/svg" xmlns:xlink="http://www.w3.org/1999/xlink" width="50mm" height="40mm" viewBox="0 0 50 40">
<rect x="-5" y="-4" width="60" height="48" fill="rgb(90%, 90%, 90%)" fill-opacity="1"/>
<path fill-rule="evenodd" fill="rgb(20%, 20%, 20%)" fill-opacity="1" d="M 8 12 L 8 4 L 4 4 L 4 10 L 2 10 L 2 2 L 10 2 L 10 14 L 14 14 L 14 2 L 40 2 L 40 10 L 28 10 L 28 14 L 34 14 L 34 20 L 38 20 L 38 14 L 40 14 L 40 22 L 32 22 L 32 16 L 26 16 L 26 8 L 38 8 L 38 4 L 16 4 L 16 14 L 20 14 L 20 8 L 22 8 L 22 26 L 26 26 L 26 20 L 28 20 L 28 26 L 40 26 L 40 28 L 2 28 L 2 26 L 20 26 L 20 22 L 2 22 L 2 14 L 4 14 L 4 20 L 20 20 L 20 16 L 8 16 Z M 8 12 "/>
<path fill-rule="evenodd" fill="rgb(80%, 40%, 40%)" fill-opacity="1" d="M 38 14 L 40 14 L 40 16 L 38 16 Z M 38 14 "/>
<path fill-rule="evenodd" fill="rgb(40%, 80%, 40%)" fill-opacity="1" d="M 2 14 L 4 14 L 4 16 L 2 16 Z M 2 14 "/>
</svg>
