<?xml version="1.0" encoding="UTF-8"?>
<svg xmlns="http://www.w3.org/2000/svg" xmlns:xlink="http://www.w3.org/1999/xlink" width="50mm" height="50mm" viewBox="0 0 50 50">
<rect x="-5" y="-5" width="60" height="60" fill="rgb(90%, 90%, 90%)" fill-opacity="1"/>
<path fill-rule="nonzero" fill="rgb(20%, 20%, 20%)" fill-opacity="1" d="M 4.695312 15.382812 L 4.695312 12.386719 L 12.386719 12.386719 L 12.386719 6.84375 L 6.84375 6.84375 L 6.84375 8.542969 L 10.6875 8.542969 L 10.6875 10.6875 L 4.695312 10.6875 L 4.695312 4.695312 L 18.378906 4.695312 L 18.378906 10.6875 L 16.234375 10.6875 L 16.234375 6.84375 L 14.535156 6.84375 L 14.535156 14.535156 L 6.84375 14.535156 L 6.84375 20.082031 L 8.542969 20.082031 L 8.542969 16.234375 L 14.535156 16.234375 L 14.535156 20.082031 L 18.378906 20.082031 L 18.378906 26.074219 L 14.535156 26.074219 L 14.535156 29.917969 L 10.6875 29.917969 L 10.6875 33.765625 L 4.695312 33.765625 L 4.695312 26.074219 L 0.851562 26.074219 L 0.851562 23.925781 L 6.84375 23.925781 L 6.84375 31.621094 L 8.542969 31.621094 L 8.542969 27.773438 L 12.386719 27.773438 L 12.386719 23.925781 L 16.234375 23.925781 L 16.234375 22.226562 L 12.386719 22.226562 L 12.386719 18.378906 L 10.6875 18.378906 L 10.6875 26.074219 L 8.542969 26.074219 L 8.542969 22.226562 L 4.695312 22.226562 Z M 4.695312 15.382812 "/>
<path fill-rule="nonzero" fill="rgb(20%, 20%, 20%)" fill-opacity="1" d="M 12.386719 34.617188 L 12.386719 31.621094 L 16.234375 31.621094 L 16.234375 27.773438 L 18.378906 27.773438 L 18.378906 31.621094 L 22.226562 31.621094 L 22.226562 39.3125 L 29.917969 39.3125 L 29.917969 45.304688 L 27.773438 45.304688 L 27.773438 41.457031 L 20.082031 41.457031 L 20.082031 33.765625 L 14.535156 33.765625 L 14.535156 35.464844 L 18.378906 35.464844 L 18.378906 43.15625 L 26.074219 43.15625 L 26.074219 49.148438 L 23.925781 49.148438 L 23.925781 45.304688 L 16.234375 45.304688 L 16.234375 37.613281 L 14.535156 37.613281 L 14.535156 45.304688 L 8.542969 45.304688 L 8.542969 41.457031 L 6.84375 41.457031 L 6.84375 45.304688 L 4.695312 45.304688 L 4.695312 35.464844 L 10.6875 35.464844 L 10.6875 37.613281 L 6.84375 37.613281 L 6.84375 39.3125 L 10.6875 39.3125 L 10.6875 43.15625 L 12.386719 43.15625 Z M 12.386719 34.617188 "/>
<path fill-rule="nonzero" fill="rgb(20%, 20%, 20%)" fill-opacity="1" d="M 30.769531 4.695312 L 45.304688 4.695312 L 45.304688 14.535156 L 29.917969 14.535156 L 29.917969 33.765625 L 26.074219 33.765625 L 26.074219 35.464844 L 37.613281 35.464844 L 37.613281 41.457031 L 33.765625 41.457031 L 33.765625 43.15625 L 39.3125 43.15625 L 39.3125 39.3125 L 43.15625 39.3125 L 43.15625 29.917969 L 41.457031 29.917969 L 41.457031 37.613281 L 39.3125 37.613281 L 39.3125 27.773438 L 45.304688 27.773438 L 45.304688 45.304688 L 43.15625 45.304688 L 43.15625 41.457031 L 41.457031 41.457031 L 41.457031 45.304688 L 31.621094 45.304688 L 31.621094 39.3125 L 35.464844 39.3125 L 35.464844 37.613281 L 23.925781 37.613281 L 23.925781 31.621094 L 27.773438 31.621094 L 27.773438 29.917969 L 20.082031 29.917969 L 20.082031 20.082031 L 27.773438 20.082031 L 27.773438 12.386719 L 39.3125 12.386719 L 39.3125 10.6875 L 26.074219 10.6875 L 26.074219 18.378906 L 16.234375 18.378906 L 16.234375 12.386719 L 20.082031 12.386719 L 20.082031 4.695312 L 23.925781 4.695312 L 23.925781 0.851562 L 26.074219 0.851562 L 26.074219 6.84375 L 22.226562 6.84375 L 22.226562 14.535156 L 18.378906 14.535156 L 18.378906 16.234375 L 23.925781 16.234375 L 23.925781 8.542969 L 41.457031 8.542969 L 41.457031 12.386719 L 43.15625 12.386719 L 43.15625 6.84375 L 27.773438 6.84375 L 27.773438 4.695312 Z M 30.769531 4.695312 "/>
<path fill-rule="nonzero" fill="rgb(20%, 20%, 20%)" fill-opacity="1" d="M 37.613281 30.769531 L 37.613281 33.765625 L 31.621094 33.765625 L 31.621094 23.925781 L 35.464844 23.925781 L 35.464844 22.226562 L 31.621094 22.226562 L 31.621094 16.234375 L 45.304688 16.234375 L 45.304688 22.226562 L 41.457031 22.226562 L 41.457031 23.925781 L 49.148438 23.925781 L 49.148438 26.074219 L 39.3125 26.074219 L 39.3125 20.082031 L 43.15625 20.082031 L 43.15625 18.378906 L 33.765625 18.378906 L 33.765625 20.082031 L 37.613281 20.082031 L 37.613281 26.074219 L 33.765625 26.074219 L 33.765625 31.621094 L 35.464844 31.621094 L 35.464844 27.773438 L 37.613281 27.773438 Z M 37.613281 30.769531 "/>
<path fill-rule="nonzero" fill="rgb(70%, 21%, 21%)" fill-opacity="1" d="M 21.78125 21.78125 L 28.21875 21.78125 L 28.21875 28.21875 L 21.78125 28.21875 Z M 21.78125 21.78125 "/>
<path fill-rule="nonzero" fill="rgb(70%, 70%, 21%)" fill-opacity="1" d="M 25.625 2.550781 L 24.371094 2.550781 L 24.371094 1.296875 L 25.625 1.296875 Z M 25.625 2.550781 "/>
<path fill-rule="nonzero" fill="rgb(21%, 70%, 21%)" fill-opacity="1" d="M 48.703125 25.625 L 47.449219 25.625 L 47.449219 24.371094 L 48.703125 24.371094 Z M 48.703125 25.625 "/>
<path fill-rule="nonzero" fill="rgb(21%, 70%, 70%)" fill-opacity="1" d="M 25.625 48.703125 L 24.371094 48.703125 L 24.371094 47.449219 L 25.625 47.449219 Z M 25.625 48.703125 "/>
<path fill-rule="nonzero" fill="rgb(21%, 21%, 70%)" fill-opacity="1" d="M 2.550781 25.625 L 1.296875 25.625 L 1.296875 24.371094 L 2.550781 24.371094 Z M 2.550781 25.625 "/>
</svg>
