<?xml version="1.0" encoding="UTF-8"?>
<svg xmlns="http://www.w3.org/2000/svg" xmlns:xlink="http://www.w3.org/1999/xlink" width="55mm" height="55mm" viewBox="0 0 55 55">
<rect x="-5.5" y="-5.5" width="66" height="66" fill="rgb(90%, 90%, 90%)" fill-opacity="1"/>
<path fill-rule="nonzero" fill="rgb(20%, 20%, 20%)" fill-opacity="1" d="M 9.3125 42.308594 L 9.3125 38.925781 L 13.542969 38.925781 L 13.542969 37.226562 L 9.3125 37.226562 L 9.3125 32.996094 L 7.613281 32.996094 L 7.613281 49.917969 L 5.082031 49.917969 L 5.082031 30.464844 L 16.074219 30.464844 L 16.074219 32.996094 L 11.84375 32.996094 L 11.84375 34.695312 L 16.074219 34.695312 L 16.074219 43.15625 L 17.773438 43.15625 L 17.773438 38.925781 L 20.304688 38.925781 L 20.304688 45.6875 L 13.542969 45.6875 L 13.542969 41.457031 L 11.84375 41.457031 L 11.84375 47.386719 L 22.003906 47.386719 L 22.003906 37.226562 L 17.773438 37.226562 L 17.773438 20.304688 L 16.074219 20.304688 L 16.074219 28.765625 L 9.3125 28.765625 L 9.3125 24.535156 L 7.613281 24.535156 L 7.613281 28.765625 L 0.851562 28.765625 L 0.851562 26.234375 L 5.082031 26.234375 L 5.082031 22.003906 L 11.84375 22.003906 L 11.84375 26.234375 L 13.542969 26.234375 L 13.542969 20.304688 L 5.082031 20.304688 L 5.082031 5.082031 L 11.84375 5.082031 L 11.84375 9.3125 L 13.542969 9.3125 L 13.542969 5.082031 L 16.074219 5.082031 L 16.074219 11.84375 L 9.3125 11.84375 L 9.3125 7.613281 L 7.613281 7.613281 L 7.613281 13.542969 L 17.773438 13.542969 L 17.773438 5.082031 L 49.917969 5.082031 L 49.917969 16.074219 L 30.464844 16.074219 L 30.464844 13.542969 L 47.386719 13.542969 L 47.386719 11.84375 L 24.535156 11.84375 L 24.535156 13.542969 L 28.765625 13.542969 L 28.765625 17.773438 L 49.917969 17.773438 L 49.917969 24.535156 L 45.6875 24.535156 L 45.6875 28.765625 L 32.996094 28.765625 L 32.996094 30.464844 L 37.226562 30.464844 L 37.226562 32.996094 L 30.464844 32.996094 L 30.464844 26.234375 L 43.15625 26.234375 L 43.15625 24.535156 L 28.765625 24.535156 L 28.765625 34.695312 L 37.226562 34.695312 L 37.226562 38.925781 L 45.6875 38.925781 L 45.6875 41.457031 L 41.457031 41.457031 L 41.457031 43.15625 L 47.386719 43.15625 L 47.386719 37.226562 L 38.925781 37.226562 L 38.925781 30.464844 L 47.386719 30.464844 L 47.386719 26.234375 L 54.148438 26.234375 L 54.148438 28.765625 L 49.917969 28.765625 L 49.917969 32.996094 L 41.457031 32.996094 L 41.457031 34.695312 L 49.917969 34.695312 L 49.917969 45.6875 L 38.925781 45.6875 L 38.925781 41.457031 L 34.695312 41.457031 L 34.695312 37.226562 L 26.234375 37.226562 L 26.234375 22.003906 L 47.386719 22.003906 L 47.386719 20.304688 L 26.234375 20.304688 L 26.234375 16.074219 L 22.003906 16.074219 L 22.003906 9.3125 L 47.386719 9.3125 L 47.386719 7.613281 L 20.304688 7.613281 L 20.304688 16.074219 L 7.613281 16.074219 L 7.613281 17.773438 L 20.304688 17.773438 L 20.304688 34.695312 L 22.003906 34.695312 L 22.003906 17.773438 L 24.535156 17.773438 L 24.535156 47.386719 L 26.234375 47.386719 L 26.234375 43.15625 L 30.464844 43.15625 L 30.464844 41.457031 L 26.234375 41.457031 L 26.234375 38.925781 L 32.996094 38.925781 L 32.996094 47.386719 L 34.695312 47.386719 L 34.695312 43.15625 L 37.226562 43.15625 L 37.226562 47.386719 L 49.917969 47.386719 L 49.917969 49.917969 L 30.464844 49.917969 L 30.464844 45.6875 L 28.765625 45.6875 L 28.765625 49.917969 L 9.3125 49.917969 Z M 9.3125 42.308594 "/>
<path fill-rule="nonzero" fill="rgb(80%, 40%, 40%)" fill-opacity="1" d="M 52.125 26.742188 L 53.644531 26.742188 L 53.644531 28.261719 L 52.125 28.261719 Z M 52.125 26.742188 "/>
<path fill-rule="nonzero" fill="rgb(40%, 80%, 40%)" fill-opacity="1" d="M 1.355469 26.742188 L 2.875 26.742188 L 2.875 28.261719 L 1.355469 28.261719 Z M 1.355469 26.742188 "/>
</svg>
